SplineFontDB: 3.2
FontName: Fira_Comp_Regular
FullName: Fira Comp Regular
FamilyName: Fira Comp
Weight: Book
Copyright: Copyright (c) 2020, The Fira Comp Project Authors (https://github.com/Photonico/Fira_Comp
Version: 0.800
ItalicAngle: 0
UnderlinePosition: -100
UnderlineWidth: 50
Ascent: 1638
Descent: 410
InvalidEm: 0
sfntRevision: 0x0000e667
LayerCount: 2
Layer: 0 1 "Back" 1
Layer: 1 1 "Fore" 0
XUID: [1021 237 -532267276 6154126]
StyleMap: 0x0040
FSType: 0
OS2Version: 4
OS2_WeightWidthSlopeOnly: 0
OS2_UseTypoMetrics: 1
CreationTime: 1568041596
ModificationTime: 1641319821
PfmFamily: 17
TTFWeight: 400
TTFWidth: 5
LineGap: 0
VLineGap: 0
Panose: 2 11 8 9 5 0 0 2 0 4
OS2TypoAscent: 1890
OS2TypoAOffset: 0
OS2TypoDescent: -630
OS2TypoDOffset: 0
OS2TypoLinegap: 0
OS2WinAscent: 1890
OS2WinAOffset: 0
OS2WinDescent: 630
OS2WinDOffset: 0
HheadAscent: 1890
HheadAOffset: 0
HheadDescent: -630
HheadDOffset: 0
OS2SubXSize: 1331
OS2SubYSize: 1228
OS2SubXOff: 0
OS2SubYOff: 153
OS2SupXSize: 1331
OS2SupYSize: 1228
OS2SupXOff: 0
OS2SupYOff: 716
OS2StrikeYSize: 53
OS2StrikeYPos: 664
OS2CapHeight: 1376
OS2XHeight: 1048
OS2Vendor: 'CTDB'
OS2CodePages: 6000009f.00000000
OS2UnicodeRanges: 40000287.02003901.00000000.00000000
Lookup: 1 0 0 "'aalt' Access All Alternates lookup 0" { "'aalt' Access All Alternates lookup 0 subtable"  } ['aalt' ('DFLT' <'dflt' > 'cyrl' <'dflt' > 'grek' <'dflt' > 'latn' <'AFK ' 'AZE ' 'CAT ' 'CRT ' 'KAZ ' 'MOL ' 'PLK ' 'ROM ' 'TAT ' 'TRK ' 'dflt' > 'zinh' <'dflt' > 'zyyy' <'dflt' > ) ]
Lookup: 3 0 0 "'aalt' Access All Alternates lookup 1" { "'aalt' Access All Alternates lookup 1 subtable"  } ['aalt' ('DFLT' <'dflt' > 'cyrl' <'dflt' > 'grek' <'dflt' > 'latn' <'AFK ' 'AZE ' 'CAT ' 'CRT ' 'KAZ ' 'MOL ' 'PLK ' 'ROM ' 'TAT ' 'TRK ' 'dflt' > 'zinh' <'dflt' > 'zyyy' <'dflt' > ) ]

StartChar: .notdef
Encoding: 1114112 -1 0
Width: 1260
Flags: W
LayerCount: 2
Fore
SplineSet
1071 2206 m 1,0,-1
 1071 -735 l 1,1,-1
 189 -735 l 1,2,-1
 189 2206 l 1,3,-1
 1071 2206 l 1,0,-1
958 2096 m 1,4,-1
 305 2096 l 1,5,-1
 305 -626 l 1,6,-1
 958 -626 l 1,7,-1
 958 2096 l 1,4,-1
628.5 327 m 128,-1,9
 612 313 612 313 592 313 c 0,10,11
 571 313 571 313 555.5 326.5 c 128,-1,12
 540 340 540 340 540 363 c 2,13,-1
 540 540 l 1,14,15
 616 544 616 544 656.5 561 c 128,-1,16
 697 578 697 578 714 611 c 128,-1,17
 731 644 731 644 731 702 c 0,18,19
 731 771 731 771 703.5 809 c 128,-1,20
 676 847 676 847 603 847 c 0,21,22
 570 847 570 847 545.5 841.5 c 128,-1,23
 521 836 521 836 494 823 c 0,24,25
 478 817 478 817 466 817 c 0,26,27
 443 817 443 817 429.5 830.5 c 128,-1,28
 416 844 416 844 416 865 c 0,29,30
 416 904 416 904 478 925.5 c 128,-1,31
 540 947 540 947 611 947 c 0,32,33
 737 947 737 947 790.5 880 c 128,-1,34
 844 813 844 813 844 706 c 0,35,36
 844 595 844 595 796.5 534.5 c 128,-1,37
 749 474 749 474 645 458 c 1,38,-1
 645 363 l 2,39,8
 645 341 645 341 628.5 327 c 128,-1,9
540 231 m 128,-1,41
 561 252 561 252 592 252 c 0,42,43
 624 252 624 252 645 231 c 128,-1,44
 666 210 666 210 666 179 c 0,45,46
 666 145 666 145 645 123 c 128,-1,47
 624 101 624 101 592 101 c 256,48,49
 560 101 560 101 539.5 123 c 128,-1,50
 519 145 519 145 519 179 c 0,51,40
 519 210 519 210 540 231 c 128,-1,41
EndSplineSet
EndChar

StartChar: exclam
Encoding: 33 33 4
Width: 1260
GlyphClass: 2
Flags: W
LayerCount: 2
Fore
SplineSet
706 477 m 1,0,-1
 547 477 l 1,1,-1
 526 1446 l 1,2,-1
 724 1446 l 1,3,-1
 706 477 l 1,0,-1
700.5 238.5 m 128,-1,5
 733 220 733 220 751.5 187.5 c 128,-1,6
 770 155 770 155 770 118 c 0,7,8
 770 79 770 79 751.5 46.5 c 128,-1,9
 733 14 733 14 700.5 -5 c 128,-1,10
 668 -24 668 -24 628 -24 c 0,11,12
 589 -24 589 -24 557 -5 c 128,-1,13
 525 14 525 14 506.5 46.5 c 128,-1,14
 488 79 488 79 488 118 c 0,15,16
 488 156 488 156 506.5 188 c 128,-1,17
 525 220 525 220 557 238.5 c 128,-1,18
 589 257 589 257 628 257 c 0,19,4
 668 257 668 257 700.5 238.5 c 128,-1,5
EndSplineSet
Substitution2: "Single Substitution lookup 262 subtable" numbersign_exclam.liga
Substitution2: "Single Substitution lookup 254 subtable" LIG
Substitution2: "Single Substitution lookup 253 subtable" exclam_exclam.liga
Substitution2: "Single Substitution lookup 252 subtable" LIG
Substitution2: "Single Substitution lookup 206 subtable" LIG
Substitution2: "Single Substitution lookup 199 subtable" LIG
Substitution2: "Single Substitution lookup 189 subtable" LIG
AlternateSubs2: "'aalt' Access All Alternates lookup 1 subtable" LIG exclam_exclam.liga numbersign_exclam.liga
EndChar

StartChar: quotedbl
Encoding: 34 34 5
Width: 1260
GlyphClass: 2
Flags: W
LayerCount: 2
Fore
SplineSet
343 1551 m 1,0,-1
 565 1551 l 1,1,-1
 532 1005 l 1,2,-1
 377 1005 l 1,3,-1
 343 1551 l 1,0,-1
696 1551 m 1,4,-1
 917 1551 l 1,5,-1
 883 1005 l 1,6,-1
 728 1005 l 1,7,-1
 696 1551 l 1,4,-1
EndSplineSet
EndChar

StartChar: numbersign
Encoding: 35 35 6
Width: 1260
GlyphClass: 2
Flags: W
LayerCount: 2
Fore
SplineSet
901 493 m 1,0,-1
 1071 493 l 1,1,-1
 1071 356 l 1,2,-1
 881 356 l 1,3,-1
 837 0 l 1,4,-1
 686 0 l 1,5,-1
 733 356 l 1,6,-1
 427 356 l 1,7,-1
 381 0 l 1,8,-1
 230 0 l 1,9,-1
 277 356 l 1,10,-1
 111 356 l 1,11,-1
 111 493 l 1,12,-1
 295 493 l 1,13,-1
 359 958 l 1,14,-1
 189 958 l 1,15,-1
 189 1095 l 1,16,-1
 377 1095 l 1,17,-1
 423 1446 l 1,18,-1
 574 1446 l 1,19,-1
 524 1095 l 1,20,-1
 833 1095 l 1,21,-1
 879 1446 l 1,22,-1
 1030 1446 l 1,23,-1
 981 1095 l 1,24,-1
 1149 1095 l 1,25,-1
 1149 958 l 1,26,-1
 963 958 l 1,27,-1
 901 493 l 1,0,-1
751 493 m 1,28,-1
 815 958 l 1,29,-1
 507 958 l 1,30,-1
 445 493 l 1,31,-1
 751 493 l 1,28,-1
EndSplineSet
Substitution2: "Single Substitution lookup 264 subtable" LIG
Substitution2: "Single Substitution lookup 263 subtable" numbersign_numbersign.liga
Substitution2: "Single Substitution lookup 262 subtable" LIG
Substitution2: "Single Substitution lookup 248 subtable" bracketright_numbersign.liga
Substitution2: "Single Substitution lookup 233 subtable" LIG
Substitution2: "Single Substitution lookup 232 subtable" numbersign_numbersign_numbersign.liga
Substitution2: "Single Substitution lookup 190 subtable" LIG
Substitution2: "Single Substitution lookup 189 subtable" numbersign_numbersign_numbersign_numbersign.liga
AlternateSubs2: "'aalt' Access All Alternates lookup 1 subtable" numbersign_numbersign_numbersign_numbersign.liga LIG numbersign_numbersign_numbersign.liga bracketright_numbersign.liga numbersign_numbersign.liga
EndChar

StartChar: dollar
Encoding: 36 36 7
Width: 1260
GlyphClass: 2
Flags: W
LayerCount: 2
Fore
SplineSet
726 1466 m 1,0,1
 845 1453 845 1453 943 1407.5 c 128,-1,2
 1041 1362 1041 1362 1112 1297 c 1,3,-1
 1004 1186 l 1,4,5
 882 1300 882 1300 726 1320 c 1,6,-1
 726 841 l 1,7,8
 910 781 910 781 1019.5 677.5 c 128,-1,9
 1129 574 1129 574 1129 398 c 0,10,11
 1129 296 1129 296 1083 208.5 c 128,-1,12
 1037 121 1037 121 946 61 c 128,-1,13
 855 1 855 1 726 -16 c 1,14,-1
 726 -321 l 1,15,-1
 584 -321 l 1,16,-1
 584 -22 l 1,17,18
 446 -14 446 -14 335.5 41.5 c 128,-1,19
 225 97 225 97 145 175 c 1,20,-1
 250 292 l 1,21,22
 396 143 396 143 584 127 c 1,23,-1
 584 709 l 1,24,25
 394 772 394 772 297 869 c 128,-1,26
 200 966 200 966 200 1108 c 0,27,28
 200 1195 200 1195 243.5 1272.5 c 128,-1,29
 287 1350 287 1350 373.5 1402.5 c 128,-1,30
 460 1455 460 1455 584 1466 c 1,31,-1
 584 1782 l 1,32,-1
 726 1782 l 1,33,-1
 726 1466 l 1,0,1
441 1248.5 m 128,-1,35
 388 1197 388 1197 388 1111 c 0,36,37
 388 1060 388 1060 405 1022 c 128,-1,38
 422 984 422 984 464.5 951.5 c 128,-1,39
 507 919 507 919 584 887 c 1,40,-1
 584 1316 l 1,41,34
 494 1300 494 1300 441 1248.5 c 128,-1,35
726 137 m 1,42,43
 939 180 939 180 939 396 c 0,44,45
 939 487 939 487 890.5 549 c 128,-1,46
 842 611 842 611 726 660 c 1,47,-1
 726 137 l 1,42,43
EndSplineSet
Substitution2: "Single Substitution lookup 260 subtable" less_dollar.liga
Substitution2: "Single Substitution lookup 250 subtable" LIG
Substitution2: "Single Substitution lookup 221 subtable" LIG
Substitution2: "'ss04' Style Set 4 lookup 177 subtable" dollar.ss05
AlternateSubs2: "'aalt' Access All Alternates lookup 1 subtable" LIG less_dollar.liga
EndChar

StartChar: percent
Encoding: 37 37 8
Width: 1260
GlyphClass: 2
Flags: W
LayerCount: 2
Fore
SplineSet
1173 1412 m 1,0,-1
 179 -42 l 1,1,-1
 68 32 l 1,2,-1
 1060 1485 l 1,3,-1
 1173 1412 l 1,0,-1
513 1423.5 m 128,-1,5
 583 1378 583 1378 619.5 1301.5 c 128,-1,6
 656 1225 656 1225 656 1133 c 0,7,8
 656 1042 656 1042 619.5 964.5 c 128,-1,9
 583 887 583 887 513 840.5 c 128,-1,10
 443 794 443 794 349 794 c 0,11,12
 254 794 254 794 183.5 840.5 c 128,-1,13
 113 887 113 887 76 965 c 128,-1,14
 39 1043 39 1043 39 1133 c 0,15,16
 39 1225 39 1225 76 1302 c 128,-1,17
 113 1379 113 1379 183 1424 c 128,-1,18
 253 1469 253 1469 349 1469 c 0,19,4
 443 1469 443 1469 513 1423.5 c 128,-1,5
242.5 1289.5 m 128,-1,21
 201 1236 201 1236 201 1133 c 0,22,23
 201 1032 201 1032 242 975 c 128,-1,24
 283 918 283 918 349 918 c 256,25,26
 415 918 415 918 455 971.5 c 128,-1,27
 495 1025 495 1025 495 1133 c 256,28,29
 495 1241 495 1241 455 1292 c 128,-1,30
 415 1343 415 1343 349 1343 c 0,31,20
 284 1343 284 1343 242.5 1289.5 c 128,-1,21
1080 618 m 128,-1,33
 1150 572 1150 572 1187 495 c 128,-1,34
 1224 418 1224 418 1224 327 c 256,35,36
 1224 236 1224 236 1187 158.5 c 128,-1,37
 1150 81 1150 81 1080 34 c 128,-1,38
 1010 -13 1010 -13 916 -13 c 0,39,40
 821 -13 821 -13 751 34 c 128,-1,41
 681 81 681 81 643.5 158.5 c 128,-1,42
 606 236 606 236 606 327 c 0,43,44
 606 419 606 419 643.5 495.5 c 128,-1,45
 681 572 681 572 750.5 618 c 128,-1,46
 820 664 820 664 916 664 c 0,47,32
 1010 664 1010 664 1080 618 c 128,-1,33
809 484.5 m 128,-1,49
 768 432 768 432 768 327 c 0,50,51
 768 226 768 226 809 168.5 c 128,-1,52
 850 111 850 111 916 111 c 256,53,54
 982 111 982 111 1022 165.5 c 128,-1,55
 1062 220 1062 220 1062 327 c 0,56,57
 1062 435 1062 435 1022 486 c 128,-1,58
 982 537 982 537 916 537 c 256,59,48
 850 537 850 537 809 484.5 c 128,-1,49
EndSplineSet
Substitution2: "Single Substitution lookup 265 subtable" LIG
Substitution2: "Single Substitution lookup 264 subtable" percent_percent.liga
AlternateSubs2: "'aalt' Access All Alternates lookup 1 subtable" percent_percent.liga LIG
EndChar

StartChar: ampersand
Encoding: 38 38 9
Width: 1260
GlyphClass: 2
Flags: W
LayerCount: 2
Fore
SplineSet
602 776 m 1,0,-1
 883 428 l 1,1,2
 954 549 954 549 987 694 c 1,3,-1
 1154 627 l 1,4,5
 1154 627 1154 627 1154 627 c 1,6,7
 1100 435 1100 435 993 291 c 1,8,-1
 1181 57 l 1,9,-1
 1181 57 l 1,10,-1
 1010 0 l 1,11,-1
 879 166 l 1,12,13
 705 -20 705 -20 467 -20 c 0,14,15
 278 -20 278 -20 169.5 87 c 128,-1,16
 61 194 61 194 61 381 c 0,17,18
 61 512 61 512 124.5 609.5 c 128,-1,19
 188 707 188 707 360 809 c 1,20,21
 197 1001 197 1001 197 1165 c 0,22,23
 197 1313 197 1313 292.5 1399 c 128,-1,24
 388 1485 388 1485 567 1485 c 0,25,26
 735 1485 735 1485 827.5 1399.5 c 128,-1,27
 920 1314 920 1314 920 1165 c 0,28,29
 920 962 920 962 602 776 c 1,0,-1
508 897 m 1,30,31
 642 976 642 976 691.5 1035.5 c 128,-1,32
 741 1095 741 1095 741 1169 c 128,-1,33
 741 1243 741 1243 691.5 1289 c 128,-1,34
 642 1335 642 1335 561 1335 c 0,35,36
 474 1335 474 1335 424.5 1290.5 c 128,-1,37
 375 1246 375 1246 375 1165 c 0,38,39
 375 1047 375 1047 508 897 c 1,30,31
778 287 m 1,40,-1
 455 688 l 1,41,42
 252 565 252 565 252 387 c 0,43,44
 252 282 252 282 319 211.5 c 128,-1,45
 386 141 386 141 479 141 c 0,46,47
 639 141 639 141 778 287 c 1,40,-1
EndSplineSet
Substitution2: "Single Substitution lookup 243 subtable" LIG
Substitution2: "Single Substitution lookup 242 subtable" ampersand_ampersand.liga
Substitution2: "'ss03' Style Set 3 lookup 175 subtable" ampersand.ss03
AlternateSubs2: "'aalt' Access All Alternates lookup 1 subtable" ampersand_ampersand.liga LIG
EndChar

StartChar: quotesingle
Encoding: 39 39 10
Width: 1260
GlyphClass: 2
Flags: W
LayerCount: 2
Fore
SplineSet
520 1551 m 1,0,-1
 740 1551 l 1,1,-1
 708 1005 l 1,2,-1
 552 1005 l 1,3,-1
 520 1551 l 1,0,-1
EndSplineSet
EndChar

StartChar: parenleft
Encoding: 40 40 11
Width: 1260
GlyphClass: 2
Flags: W
LayerCount: 2
Fore
SplineSet
495 362 m 128,-1,1
 544 203 544 203 640 73.5 c 128,-1,2
 736 -56 736 -56 896 -197 c 1,3,-1
 803 -294 l 1,4,5
 619 -145 619 -145 502.5 -0.5 c 128,-1,6
 386 144 386 144 324 323.5 c 128,-1,7
 262 503 262 503 262 735 c 256,8,9
 262 967 262 967 324 1146.5 c 128,-1,10
 386 1326 386 1326 503 1470.5 c 128,-1,11
 620 1615 620 1615 803 1764 c 1,12,-1
 896 1668 l 1,13,14
 734 1524 734 1524 638.5 1396 c 128,-1,15
 543 1268 543 1268 494.5 1109 c 128,-1,16
 446 950 446 950 446 735 c 0,17,0
 446 521 446 521 495 362 c 128,-1,1
EndSplineSet
Substitution2: "Single Substitution lookup 264 subtable" numbersign_parenleft.liga
Substitution2: "Single Substitution lookup 233 subtable" numbersign_underscore_parenleft.liga
Substitution2: "'case' Case-Sensitive Forms lookup 13 subtable" parenleft.case
Substitution2: "'dnom' Denominators lookup 5 subtable" parenleft.dnom
Substitution2: "'numr' Numerators lookup 4 subtable" parenleft.numr
Substitution2: "'sups' Superscript lookup 3 subtable" uni207D
Substitution2: "'subs' Subscript lookup 2 subtable" uni208D
AlternateSubs2: "'aalt' Access All Alternates lookup 1 subtable" uni208D uni207D parenleft.numr parenleft.dnom parenleft.case numbersign_underscore_parenleft.liga numbersign_parenleft.liga
EndChar

StartChar: parenright
Encoding: 41 41 12
Width: 1260
GlyphClass: 2
Flags: W
LayerCount: 2
Fore
SplineSet
765.5 1109 m 128,-1,1
 717 1268 717 1268 621.5 1396 c 128,-1,2
 526 1524 526 1524 364 1668 c 1,3,-1
 457 1764 l 1,4,5
 641 1615 641 1615 757.5 1470.5 c 128,-1,6
 874 1326 874 1326 936.5 1146.5 c 128,-1,7
 999 967 999 967 999 735 c 256,8,9
 999 503 999 503 936.5 323.5 c 128,-1,10
 874 144 874 144 757.5 -0.5 c 128,-1,11
 641 -145 641 -145 457 -294 c 1,12,-1
 364 -197 l 1,13,14
 524 -55 524 -55 620 74 c 128,-1,15
 716 203 716 203 765 362 c 128,-1,16
 814 521 814 521 814 735 c 0,17,0
 814 950 814 950 765.5 1109 c 128,-1,1
EndSplineSet
Substitution2: "'case' Case-Sensitive Forms lookup 13 subtable" parenright.case
Substitution2: "'dnom' Denominators lookup 5 subtable" parenright.dnom
Substitution2: "'numr' Numerators lookup 4 subtable" parenright.numr
Substitution2: "'sups' Superscript lookup 3 subtable" uni207E
Substitution2: "'subs' Subscript lookup 2 subtable" uni208E
AlternateSubs2: "'aalt' Access All Alternates lookup 1 subtable" uni208E uni207E parenright.numr parenright.dnom parenright.case
EndChar

StartChar: asterisk
Encoding: 42 42 13
Width: 1260
GlyphClass: 2
Flags: W
LayerCount: 2
Fore
SplineSet
1166 467 m 1,0,-1
 1067 296 l 1,1,-1
 695 551 l 1,2,-1
 729 101 l 1,3,-1
 531 101 l 1,4,-1
 565 551 l 1,5,-1
 193 296 l 1,6,-1
 94 467 l 1,7,-1
 501 663 l 1,8,-1
 94 858 l 1,9,-1
 193 1029 l 1,10,-1
 565 775 l 1,11,-1
 531 1224 l 1,12,-1
 729 1224 l 1,13,-1
 695 775 l 1,14,-1
 1067 1029 l 1,15,-1
 1166 858 l 1,16,-1
 759 663 l 1,17,-1
 1166 467 l 1,0,-1
EndSplineSet
Substitution2: "Single Substitution lookup 275 subtable" asterisk.lc
Substitution2: "Single Substitution lookup 272 subtable" slash_asterisk.liga
Substitution2: "Single Substitution lookup 260 subtable" less_asterisk.liga
Substitution2: "Single Substitution lookup 245 subtable" LIG
Substitution2: "Single Substitution lookup 244 subtable" asterisk_asterisk.liga
Substitution2: "Single Substitution lookup 219 subtable" LIG
Substitution2: "Single Substitution lookup 191 subtable" LIG
Substitution2: "Single Substitution lookup 190 subtable" asterisk_asterisk_asterisk.liga
AlternateSubs2: "'aalt' Access All Alternates lookup 1 subtable" asterisk_asterisk_asterisk.liga LIG asterisk_asterisk.liga less_asterisk.liga slash_asterisk.liga asterisk.lc
EndChar

StartChar: plus
Encoding: 43 43 14
Width: 1260
GlyphClass: 2
Flags: W
LayerCount: 2
Fore
SplineSet
710 727 m 1,0,-1
 1123 727 l 1,1,-1
 1123 579 l 1,2,-1
 710 579 l 1,3,-1
 710 163 l 1,4,-1
 545 163 l 1,5,-1
 545 579 l 1,6,-1
 138 579 l 1,7,-1
 138 727 l 1,8,-1
 545 727 l 1,9,-1
 545 1146 l 1,10,-1
 710 1146 l 1,11,-1
 710 727 l 1,0,-1
EndSplineSet
Substitution2: "Single Substitution lookup 275 subtable" plus.lc
Substitution2: "Single Substitution lookup 269 subtable" LIG
Substitution2: "Single Substitution lookup 268 subtable" plus_plus.liga
Substitution2: "Single Substitution lookup 267 subtable" LIG
Substitution2: "Single Substitution lookup 262 subtable" less_plus.liga
Substitution2: "Single Substitution lookup 236 subtable" LIG
Substitution2: "Single Substitution lookup 235 subtable" plus_plus_plus.liga
Substitution2: "Single Substitution lookup 231 subtable" LIG
Substitution2: "'dnom' Denominators lookup 5 subtable" plus.dnom
Substitution2: "'numr' Numerators lookup 4 subtable" plus.numr
Substitution2: "'sups' Superscript lookup 3 subtable" uni207A
Substitution2: "'subs' Subscript lookup 2 subtable" uni208A
AlternateSubs2: "'aalt' Access All Alternates lookup 1 subtable" uni208A uni207A plus.numr plus.dnom LIG plus_plus_plus.liga less_plus.liga plus_plus.liga plus.lc
EndChar

StartChar: comma
Encoding: 44 44 15
Width: 1260
GlyphClass: 2
Flags: W
LayerCount: 2
Fore
SplineSet
717 323 m 128,-1,1
 756 300 756 300 778 262 c 128,-1,2
 800 224 800 224 800 177 c 0,3,4
 800 138 800 138 790.5 99.5 c 128,-1,5
 781 61 781 61 759 13 c 2,6,-1
 589 -377 l 1,7,-1
 430 -377 l 1,8,-1
 530 38 l 1,9,10
 498 61 498 61 480 98 c 128,-1,11
 462 135 462 135 462 177 c 0,12,13
 462 223 462 223 484 261.5 c 128,-1,14
 506 300 506 300 544.5 323 c 128,-1,15
 583 346 583 346 630 346 c 0,16,0
 678 346 678 346 717 323 c 128,-1,1
EndSplineSet
EndChar

StartChar: hyphen
Encoding: 45 45 16
Width: 1260
GlyphClass: 2
Flags: W
LayerCount: 2
Fore
SplineSet
209 734 m 1,0,-1
 1051 734 l 1,1,-1
 1051 581 l 1,2,-1
 209 581 l 1,3,-1
 209 734 l 1,0,-1
EndSplineSet
Substitution2: "Single Substitution lookup 275 subtable" hyphen.lc
Substitution2: "Single Substitution lookup 265 subtable" period_hyphen.liga
Substitution2: "Single Substitution lookup 260 subtable" less_hyphen.liga
Substitution2: "Single Substitution lookup 259 subtable" LIG
Substitution2: "Single Substitution lookup 258 subtable" hyphen_hyphen.liga
Substitution2: "Single Substitution lookup 257 subtable" LIG
Substitution2: "Single Substitution lookup 256 subtable" greater_hyphen.liga
Substitution2: "Single Substitution lookup 246 subtable" bar_hyphen.liga
Substitution2: "Single Substitution lookup 244 subtable" asciitilde_hyphen.liga
Substitution2: "Single Substitution lookup 229 subtable" less_less_hyphen.liga
Substitution2: "Single Substitution lookup 228 subtable" LIG
Substitution2: "Single Substitution lookup 227 subtable" LIG
Substitution2: "Single Substitution lookup 226 subtable" less_hyphen_hyphen.liga
Substitution2: "Single Substitution lookup 225 subtable" LIG
Substitution2: "Single Substitution lookup 217 subtable" LIG
Substitution2: "Single Substitution lookup 216 subtable" LIG
Substitution2: "Single Substitution lookup 215 subtable" hyphen_hyphen_hyphen.liga
Substitution2: "Single Substitution lookup 214 subtable" LIG
Substitution2: "Single Substitution lookup 213 subtable" LIG
Substitution2: "Single Substitution lookup 210 subtable" LIG
Substitution2: "Single Substitution lookup 209 subtable" greater_greater_hyphen.liga
Substitution2: "Single Substitution lookup 193 subtable" LIG
Substitution2: "Single Substitution lookup 191 subtable" bar_bar_hyphen.liga
Substitution2: "Single Substitution lookup 189 subtable" LIG
Substitution2: "Single Substitution lookup 188 subtable" less_exclam_hyphen_hyphen.liga
Substitution2: "'case' Case-Sensitive Forms lookup 13 subtable" hyphen.case
AlternateSubs2: "'aalt' Access All Alternates lookup 1 subtable" hyphen.case less_exclam_hyphen_hyphen.liga LIG bar_bar_hyphen.liga greater_greater_hyphen.liga hyphen_hyphen_hyphen.liga less_hyphen_hyphen.liga less_less_hyphen.liga asciitilde_hyphen.liga bar_hyphen.liga greater_hyphen.liga hyphen_hyphen.liga less_hyphen.liga period_hyphen.liga hyphen.lc
EndChar

StartChar: period
Encoding: 46 46 17
Width: 1260
GlyphClass: 2
Flags: W
LayerCount: 2
Fore
SplineSet
468.5 254 m 128,-1,1
 493 296 493 296 535 321 c 128,-1,2
 577 346 577 346 628 346 c 0,3,4
 681 346 681 346 723.5 321 c 128,-1,5
 766 296 766 296 790 254 c 128,-1,6
 814 212 814 212 814 162 c 0,7,8
 814 111 814 111 790 68 c 128,-1,9
 766 25 766 25 723.5 0.5 c 128,-1,10
 681 -24 681 -24 628 -24 c 0,11,12
 577 -24 577 -24 535 0.5 c 128,-1,13
 493 25 493 25 468.5 67.5 c 128,-1,14
 444 110 444 110 444 162 c 0,15,0
 444 212 444 212 468.5 254 c 128,-1,1
EndSplineSet
Substitution2: "Single Substitution lookup 269 subtable" question_period.liga
Substitution2: "Single Substitution lookup 267 subtable" LIG
Substitution2: "Single Substitution lookup 266 subtable" period_period.liga
Substitution2: "Single Substitution lookup 265 subtable" LIG
Substitution2: "Single Substitution lookup 235 subtable" LIG
Substitution2: "Single Substitution lookup 234 subtable" period_period_period.liga
Substitution2: "Single Substitution lookup 233 subtable" LIG
Substitution2: "Single Substitution lookup 206 subtable" exclam_exclam_period.liga
AlternateSubs2: "'aalt' Access All Alternates lookup 1 subtable" exclam_exclam_period.liga LIG period_period_period.liga period_period.liga question_period.liga
EndChar

StartChar: slash
Encoding: 47 47 18
Width: 1260
GlyphClass: 2
Flags: W
LayerCount: 2
Fore
SplineSet
110 -153 m 1,0,-1
 1009 1700 l 1,1,-1
 1150 1631 l 1,2,-1
 253 -216 l 1,3,-1
 110 -153 l 1,0,-1
EndSplineSet
Substitution2: "Single Substitution lookup 276 subtable" backslash_slash.liga
Substitution2: "Single Substitution lookup 275 subtable" LIG
Substitution2: "Single Substitution lookup 274 subtable" LIG
Substitution2: "Single Substitution lookup 273 subtable" slash_slash.liga
Substitution2: "Single Substitution lookup 272 subtable" LIG
Substitution2: "Single Substitution lookup 262 subtable" less_slash.liga
Substitution2: "Single Substitution lookup 245 subtable" asterisk_slash.liga
Substitution2: "Single Substitution lookup 239 subtable" LIG
Substitution2: "Single Substitution lookup 238 subtable" slash_slash_slash.liga
Substitution2: "Single Substitution lookup 237 subtable" LIG
Substitution2: "Single Substitution lookup 232 subtable" LIG
Substitution2: "Single Substitution lookup 203 subtable" LIG
Substitution2: "'frac' Diagonal Fractions lookup 6 subtable" fraction
AlternateSubs2: "'aalt' Access All Alternates lookup 1 subtable" fraction LIG slash_slash_slash.liga asterisk_slash.liga less_slash.liga slash_slash.liga backslash_slash.liga
EndChar

StartChar: zero
Encoding: 48 48 19
Width: 1260
GlyphClass: 2
Flags: W
LayerCount: 2
Fore
SplineSet
416.5 1181.5 m 128,-1,1
 341 1035 341 1035 341 724 c 0,2,3
 341 119 341 119 630 119 c 0,4,5
 771 119 771 119 845 265 c 128,-1,6
 919 411 919 411 919 724 c 0,7,8
 919 1328 919 1328 630 1328 c 0,9,0
 492 1328 492 1328 416.5 1181.5 c 128,-1,1
729.5 821.5 m 128,-1,11
 769 782 769 782 769 725 c 0,12,13
 769 666 769 666 729.5 626 c 128,-1,14
 690 586 690 586 630 586 c 0,15,16
 572 586 572 586 533 626 c 128,-1,17
 494 666 494 666 494 725 c 0,18,19
 494 782 494 782 533 821.5 c 128,-1,20
 572 861 572 861 630 861 c 0,21,10
 690 861 690 861 729.5 821.5 c 128,-1,11
983 1277 m 128,-1,23
 1104 1085 1104 1085 1104 724 c 0,24,25
 1104 362 1104 362 983 169 c 128,-1,26
 862 -24 862 -24 630 -24 c 256,27,28
 398 -24 398 -24 277 168.5 c 128,-1,29
 156 361 156 361 156 724 c 0,30,31
 156 1085 156 1085 277 1277 c 128,-1,32
 398 1469 398 1469 630 1469 c 256,33,22
 862 1469 862 1469 983 1277 c 128,-1,23
EndSplineSet
Substitution2: "'ss20' Style Set 20 lookup 183 subtable" zero.tosf
Substitution2: "'ss19' Style Set 19 lookup 182 subtable" zero.zero
Substitution2: "'zero' Slashed Zero lookup 24 subtable" zero.zero
Substitution2: "'onum' Oldstyle Figures lookup 12 subtable" zero.tosf
Substitution2: "'frac' Diagonal Fractions lookup 7 subtable" zero.numr
Substitution2: "'dnom' Denominators lookup 5 subtable" zero.dnom
Substitution2: "'numr' Numerators lookup 4 subtable" zero.numr
Substitution2: "'sups' Superscript lookup 3 subtable" uni2070
Substitution2: "'subs' Subscript lookup 2 subtable" uni2080
AlternateSubs2: "'aalt' Access All Alternates lookup 1 subtable" uni2080 uni2070 zero.numr zero.dnom zero.tosf zero.zero
EndChar

StartChar: one
Encoding: 49 49 20
Width: 1260
GlyphClass: 2
Flags: W
LayerCount: 2
Fore
SplineSet
1087 144 m 1,0,-1
 1087 0 l 1,1,-1
 252 0 l 1,2,-1
 252 144 l 1,3,-1
 608 144 l 1,4,-1
 608 1255 l 1,5,-1
 276 1053 l 1,6,-1
 200 1179 l 1,7,-1
 630 1446 l 1,8,-1
 785 1446 l 1,9,-1
 785 144 l 1,10,-1
 1087 144 l 1,0,-1
EndSplineSet
Substitution2: "'ss20' Style Set 20 lookup 183 subtable" one.tosf
Substitution2: "'onum' Oldstyle Figures lookup 12 subtable" one.tosf
Substitution2: "'frac' Diagonal Fractions lookup 7 subtable" one.numr
Substitution2: "'dnom' Denominators lookup 5 subtable" one.dnom
Substitution2: "'numr' Numerators lookup 4 subtable" one.numr
Substitution2: "'sups' Superscript lookup 3 subtable" uni00B9
Substitution2: "'subs' Subscript lookup 2 subtable" uni2081
AlternateSubs2: "'aalt' Access All Alternates lookup 1 subtable" uni2081 uni00B9 one.numr one.dnom one.tosf
EndChar

StartChar: two
Encoding: 50 50 21
Width: 1260
GlyphClass: 2
Flags: W
LayerCount: 2
Fore
SplineSet
798 1416.5 m 128,-1,1
 897 1364 897 1364 949.5 1273 c 128,-1,2
 1002 1182 1002 1182 1002 1066 c 0,3,4
 1002 933 1002 933 940 807 c 128,-1,5
 878 681 878 681 741 529.5 c 128,-1,6
 604 378 604 378 354 150 c 1,7,-1
 1036 150 l 1,8,-1
 1013 0 l 1,9,-1
 153 0 l 1,10,-1
 153 144 l 1,11,12
 438 417 438 417 574.5 569.5 c 128,-1,13
 711 722 711 722 763.5 830.5 c 128,-1,14
 816 939 816 939 816 1060 c 0,15,16
 816 1183 816 1183 747 1252.5 c 128,-1,17
 678 1322 678 1322 558 1322 c 0,18,19
 454 1322 454 1322 385 1287 c 128,-1,20
 316 1252 316 1252 246 1168 c 1,21,-1
 124 1262 l 1,22,23
 211 1368 211 1368 316.5 1418.5 c 128,-1,24
 422 1469 422 1469 566 1469 c 0,25,0
 699 1469 699 1469 798 1416.5 c 128,-1,1
EndSplineSet
Substitution2: "'ss20' Style Set 20 lookup 183 subtable" two.tosf
Substitution2: "'onum' Oldstyle Figures lookup 12 subtable" two.tosf
Substitution2: "'frac' Diagonal Fractions lookup 7 subtable" two.numr
Substitution2: "'dnom' Denominators lookup 5 subtable" two.dnom
Substitution2: "'numr' Numerators lookup 4 subtable" two.numr
Substitution2: "'sups' Superscript lookup 3 subtable" uni00B2
Substitution2: "'subs' Subscript lookup 2 subtable" uni2082
AlternateSubs2: "'aalt' Access All Alternates lookup 1 subtable" uni2082 uni00B2 two.numr two.dnom two.tosf
EndChar

StartChar: three
Encoding: 51 51 22
Width: 1260
GlyphClass: 2
Flags: W
LayerCount: 2
Fore
SplineSet
797.5 1420.5 m 128,-1,1
 899 1372 899 1372 953.5 1289.5 c 128,-1,2
 1008 1207 1008 1207 1008 1108 c 0,3,4
 1008 1023 1008 1023 970 951 c 128,-1,5
 932 879 932 879 867 832.5 c 128,-1,6
 802 786 802 786 726 771 c 1,7,8
 814 764 814 764 888.5 721 c 128,-1,9
 963 678 963 678 1008.5 600.5 c 128,-1,10
 1054 523 1054 523 1054 417 c 0,11,12
 1054 292 1054 292 990.5 191.5 c 128,-1,13
 927 91 927 91 813 33.5 c 128,-1,14
 699 -24 699 -24 552 -24 c 0,15,16
 424 -24 424 -24 305.5 24 c 128,-1,17
 187 72 187 72 108 169 c 1,18,-1
 227 266 l 1,19,20
 287 196 287 196 372 159 c 128,-1,21
 457 122 457 122 548 122 c 0,22,23
 648 122 648 122 720.5 157.5 c 128,-1,24
 793 193 793 193 831.5 260 c 128,-1,25
 870 327 870 327 870 417 c 0,26,27
 870 691 870 691 570 691 c 2,28,-1
 448 691 l 1,29,-1
 471 831 l 1,30,-1
 556 831 l 2,31,32
 628 831 628 831 691 858.5 c 128,-1,33
 754 886 754 886 792.5 943.5 c 128,-1,34
 831 1001 831 1001 831 1083 c 0,35,36
 831 1161 831 1161 794.5 1216 c 128,-1,37
 758 1271 758 1271 696 1300 c 128,-1,38
 634 1329 634 1329 558 1329 c 0,39,40
 467 1329 467 1329 396.5 1297 c 128,-1,41
 326 1265 326 1265 251 1195 c 1,42,-1
 153 1303 l 1,43,44
 329 1469 329 1469 564 1469 c 0,45,0
 696 1469 696 1469 797.5 1420.5 c 128,-1,1
EndSplineSet
Substitution2: "'ss20' Style Set 20 lookup 183 subtable" three.tosf
Substitution2: "'onum' Oldstyle Figures lookup 12 subtable" three.tosf
Substitution2: "'frac' Diagonal Fractions lookup 7 subtable" three.numr
Substitution2: "'dnom' Denominators lookup 5 subtable" three.dnom
Substitution2: "'numr' Numerators lookup 4 subtable" three.numr
Substitution2: "'sups' Superscript lookup 3 subtable" uni00B3
Substitution2: "'subs' Subscript lookup 2 subtable" uni2083
AlternateSubs2: "'aalt' Access All Alternates lookup 1 subtable" uni2083 uni00B3 three.numr three.dnom three.tosf
EndChar

StartChar: four
Encoding: 52 52 23
Width: 1260
GlyphClass: 2
Flags: W
LayerCount: 2
Fore
SplineSet
1115 308 m 1,0,-1
 928 308 l 1,1,-1
 928 0 l 1,2,-1
 758 0 l 1,3,-1
 757 308 l 1,4,-1
 156 308 l 1,5,-1
 156 436 l 1,6,-1
 600 1469 l 1,7,-1
 747 1407 l 1,8,-1
 343 449 l 1,9,-1
 757 449 l 1,10,-1
 757 820 l 5,11,-1
 927 840 l 1,12,-1
 928 449 l 1,13,-1
 1115 449 l 1,14,-1
 1115 308 l 1,0,-1
EndSplineSet
Substitution2: "'ss20' Style Set 20 lookup 183 subtable" four.tosf
Substitution2: "'onum' Oldstyle Figures lookup 12 subtable" four.tosf
Substitution2: "'frac' Diagonal Fractions lookup 7 subtable" four.numr
Substitution2: "'dnom' Denominators lookup 5 subtable" four.dnom
Substitution2: "'numr' Numerators lookup 4 subtable" four.numr
Substitution2: "'sups' Superscript lookup 3 subtable" uni2074
Substitution2: "'subs' Subscript lookup 2 subtable" uni2084
AlternateSubs2: "'aalt' Access All Alternates lookup 1 subtable" uni2084 uni2074 four.numr four.dnom four.tosf
EndChar

StartChar: five
Encoding: 53 53 24
Width: 1260
GlyphClass: 2
Flags: W
LayerCount: 2
Fore
SplineSet
997 1305 m 1,0,-1
 425 1305 l 1,1,-1
 425 850 l 1,2,3
 489 885 489 885 548 898.5 c 128,-1,4
 607 912 607 912 675 912 c 0,5,6
 794 912 794 912 883.5 858 c 128,-1,7
 973 804 973 804 1021.5 702 c 128,-1,8
 1070 600 1070 600 1070 458 c 0,9,10
 1070 314 1070 314 1009.5 205 c 128,-1,11
 949 96 949 96 838.5 36 c 128,-1,12
 728 -24 728 -24 581 -24 c 0,13,14
 455 -24 455 -24 352.5 20.5 c 128,-1,15
 250 65 250 65 162 150 c 1,16,-1
 271 255 l 1,17,18
 336 187 336 187 412.5 154.5 c 128,-1,19
 489 122 489 122 583 122 c 0,20,21
 727 122 727 122 806 209 c 128,-1,22
 885 296 885 296 885 463 c 0,23,24
 885 627 885 627 814.5 699.5 c 128,-1,25
 744 772 744 772 625 772 c 0,26,27
 565 772 565 772 517 761 c 128,-1,28
 469 750 469 750 399 724 c 1,29,-1
 257 724 l 1,30,-1
 257 1446 l 1,31,-1
 1023 1446 l 1,32,-1
 997 1305 l 1,0,-1
EndSplineSet
Substitution2: "'ss20' Style Set 20 lookup 183 subtable" five.tosf
Substitution2: "'onum' Oldstyle Figures lookup 12 subtable" five.tosf
Substitution2: "'frac' Diagonal Fractions lookup 7 subtable" five.numr
Substitution2: "'dnom' Denominators lookup 5 subtable" five.dnom
Substitution2: "'numr' Numerators lookup 4 subtable" five.numr
Substitution2: "'sups' Superscript lookup 3 subtable" uni2075
Substitution2: "'subs' Subscript lookup 2 subtable" uni2085
AlternateSubs2: "'aalt' Access All Alternates lookup 1 subtable" uni2085 uni2075 five.numr five.dnom five.tosf
EndChar

StartChar: six
Encoding: 54 54 25
Width: 1260
GlyphClass: 2
Flags: W
LayerCount: 2
Fore
SplineSet
899.5 891 m 128,-1,1
 992 840 992 840 1047 737.5 c 128,-1,2
 1102 635 1102 635 1102 486 c 0,3,4
 1102 331 1102 331 1041.5 215.5 c 128,-1,5
 981 100 981 100 877 38 c 128,-1,6
 773 -24 773 -24 647 -24 c 0,7,8
 394 -24 394 -24 280.5 159.5 c 128,-1,9
 167 343 167 343 167 684 c 0,10,11
 167 922 167 922 231 1099.5 c 128,-1,12
 295 1277 295 1277 416.5 1373 c 128,-1,13
 538 1469 538 1469 705 1469 c 0,14,15
 865 1469 865 1469 990 1385 c 1,16,-1
 921 1266 l 1,17,18
 821 1327 821 1327 702 1326 c 0,19,20
 593 1326 593 1326 513.5 1255.5 c 128,-1,21
 434 1185 434 1185 391 1054.5 c 128,-1,22
 348 924 348 924 343 747 c 1,23,24
 411 848 411 848 497.5 895 c 128,-1,25
 584 942 584 942 692 942 c 0,26,0
 807 942 807 942 899.5 891 c 128,-1,1
850.5 215 m 128,-1,28
 921 311 921 311 921 482 c 0,29,30
 921 651 921 651 854.5 724 c 128,-1,31
 788 797 788 797 665 797 c 0,32,33
 565 797 565 797 483.5 742.5 c 128,-1,34
 402 688 402 688 346 592 c 1,35,36
 350 427 350 427 382 323.5 c 128,-1,37
 414 220 414 220 478.5 169.5 c 128,-1,38
 543 119 543 119 646 119 c 0,39,27
 780 119 780 119 850.5 215 c 128,-1,28
EndSplineSet
Substitution2: "'ss20' Style Set 20 lookup 183 subtable" six.tosf
Substitution2: "'onum' Oldstyle Figures lookup 12 subtable" six.tosf
Substitution2: "'frac' Diagonal Fractions lookup 7 subtable" six.numr
Substitution2: "'dnom' Denominators lookup 5 subtable" six.dnom
Substitution2: "'numr' Numerators lookup 4 subtable" six.numr
Substitution2: "'sups' Superscript lookup 3 subtable" uni2076
Substitution2: "'subs' Subscript lookup 2 subtable" uni2086
AlternateSubs2: "'aalt' Access All Alternates lookup 1 subtable" uni2086 uni2076 six.numr six.dnom six.tosf
EndChar

StartChar: seven
Encoding: 55 55 26
Width: 1260
GlyphClass: 2
Flags: W
LayerCount: 2
Fore
SplineSet
319 30 m 1,0,-1
 883 1299 l 1,1,-1
 205 1299 l 1,2,-1
 205 1446 l 1,3,-1
 1061 1446 l 1,4,-1
 1061 1311 l 1,5,-1
 484 -20 l 1,6,-1
 319 30 l 1,0,-1
EndSplineSet
Substitution2: "'ss20' Style Set 20 lookup 183 subtable" seven.tosf
Substitution2: "'onum' Oldstyle Figures lookup 12 subtable" seven.tosf
Substitution2: "'frac' Diagonal Fractions lookup 7 subtable" seven.numr
Substitution2: "'dnom' Denominators lookup 5 subtable" seven.dnom
Substitution2: "'numr' Numerators lookup 4 subtable" seven.numr
Substitution2: "'sups' Superscript lookup 3 subtable" uni2077
Substitution2: "'subs' Subscript lookup 2 subtable" uni2087
AlternateSubs2: "'aalt' Access All Alternates lookup 1 subtable" uni2087 uni2077 seven.numr seven.dnom seven.tosf
EndChar

StartChar: eight
Encoding: 56 56 27
Width: 1260
GlyphClass: 2
Flags: W
LayerCount: 2
Fore
SplineSet
1001.5 922.5 m 128,-1,1
 939 845 939 845 813 776 c 1,2,3
 959 716 959 716 1041 617 c 128,-1,4
 1123 518 1123 518 1123 388 c 0,5,6
 1123 270 1123 270 1062 176 c 128,-1,7
 1001 82 1001 82 888.5 29 c 128,-1,8
 776 -24 776 -24 626 -24 c 0,9,10
 475 -24 475 -24 364.5 29.5 c 128,-1,11
 254 83 254 83 196 176 c 128,-1,12
 138 269 138 269 138 384 c 0,13,14
 138 628 138 628 427 761 c 1,15,16
 308 818 308 818 252 896 c 128,-1,17
 196 974 196 974 196 1092 c 0,18,19
 196 1217 196 1217 262 1302 c 128,-1,20
 328 1387 328 1387 428 1428 c 128,-1,21
 528 1469 528 1469 630 1469 c 0,22,23
 741 1469 741 1469 840 1429 c 128,-1,24
 939 1389 939 1389 1001.5 1306.5 c 128,-1,25
 1064 1224 1064 1224 1064 1102 c 0,26,0
 1064 1000 1064 1000 1001.5 922.5 c 128,-1,1
407 963 m 128,-1,28
 443 916 443 916 504.5 887.5 c 128,-1,29
 566 859 566 859 688 820 c 1,30,31
 759 860 759 860 802 898 c 128,-1,32
 845 936 845 936 867.5 983 c 128,-1,33
 890 1030 890 1030 890 1095 c 0,34,35
 890 1205 890 1205 821.5 1269 c 128,-1,36
 753 1333 753 1333 630 1333 c 256,37,38
 507 1333 507 1333 439 1269 c 128,-1,39
 371 1205 371 1205 371 1090 c 0,40,27
 371 1010 371 1010 407 963 c 128,-1,28
890.5 534.5 m 128,-1,42
 844 591 844 591 770 626 c 128,-1,43
 696 661 696 661 549 711 c 1,44,45
 446 664 446 664 384.5 586.5 c 128,-1,46
 323 509 323 509 323 383 c 0,47,48
 323 258 323 258 400.5 188.5 c 128,-1,49
 478 119 478 119 625 119 c 0,50,51
 724 119 724 119 794 153.5 c 128,-1,52
 864 188 864 188 900.5 248.5 c 128,-1,53
 937 309 937 309 937 385 c 0,54,41
 937 478 937 478 890.5 534.5 c 128,-1,42
EndSplineSet
Substitution2: "'ss20' Style Set 20 lookup 183 subtable" eight.tosf
Substitution2: "'onum' Oldstyle Figures lookup 12 subtable" eight.tosf
Substitution2: "'frac' Diagonal Fractions lookup 7 subtable" eight.numr
Substitution2: "'dnom' Denominators lookup 5 subtable" eight.dnom
Substitution2: "'numr' Numerators lookup 4 subtable" eight.numr
Substitution2: "'sups' Superscript lookup 3 subtable" uni2078
Substitution2: "'subs' Subscript lookup 2 subtable" uni2088
AlternateSubs2: "'aalt' Access All Alternates lookup 1 subtable" uni2088 uni2078 eight.numr eight.dnom eight.tosf
EndChar

StartChar: nine
Encoding: 57 57 28
Width: 1260
GlyphClass: 2
Flags: W
LayerCount: 2
Fore
SplineSet
869.5 1395.5 m 128,-1,1
 975 1324 975 1324 1027.5 1192 c 128,-1,2
 1080 1060 1080 1060 1080 876 c 0,3,4
 1080 587 1080 587 1001 413 c 128,-1,5
 922 239 922 239 758.5 137 c 128,-1,6
 595 35 595 35 309 -44 c 1,7,-1
 268 90 l 1,8,9
 476 148 476 148 608 225 c 128,-1,10
 740 302 740 302 811 418 c 128,-1,11
 882 534 882 534 892 703 c 1,12,13
 751 531 751 531 553 530 c 0,14,15
 432 530 432 530 339 586 c 128,-1,16
 246 642 246 642 193 746.5 c 128,-1,17
 140 851 140 851 140 992 c 0,18,19
 140 1142 140 1142 201.5 1249.5 c 128,-1,20
 263 1357 263 1357 369.5 1412 c 128,-1,21
 476 1467 476 1467 608 1467 c 0,22,0
 764 1467 764 1467 869.5 1395.5 c 128,-1,1
754 719 m 128,-1,24
 828 767 828 767 896 859 c 1,25,26
 894 1028 894 1028 862.5 1130 c 128,-1,27
 831 1232 831 1232 768.5 1278 c 128,-1,28
 706 1324 706 1324 608 1324 c 0,29,30
 467 1324 467 1324 394.5 1238 c 128,-1,31
 322 1152 322 1152 322 986 c 0,32,33
 322 825 322 825 390.5 748 c 128,-1,34
 459 671 459 671 586 671 c 0,35,23
 680 671 680 671 754 719 c 128,-1,24
EndSplineSet
Substitution2: "'ss20' Style Set 20 lookup 183 subtable" nine.tosf
Substitution2: "'onum' Oldstyle Figures lookup 12 subtable" nine.tosf
Substitution2: "'frac' Diagonal Fractions lookup 7 subtable" nine.numr
Substitution2: "'dnom' Denominators lookup 5 subtable" nine.dnom
Substitution2: "'numr' Numerators lookup 4 subtable" nine.numr
Substitution2: "'sups' Superscript lookup 3 subtable" uni2079
Substitution2: "'subs' Subscript lookup 2 subtable" uni2089
AlternateSubs2: "'aalt' Access All Alternates lookup 1 subtable" uni2089 uni2079 nine.numr nine.dnom nine.tosf
EndChar

StartChar: colon
Encoding: 58 58 29
Width: 1260
GlyphClass: 2
Flags: W
LayerCount: 2
Fore
SplineSet
481.5 989 m 128,-1,1
 504 1028 504 1028 542.5 1050.5 c 128,-1,2
 581 1073 581 1073 628 1073 c 0,3,4
 676 1073 676 1073 715 1050.5 c 128,-1,5
 754 1028 754 1028 776.5 989 c 128,-1,6
 799 950 799 950 799 904 c 256,7,8
 799 858 799 858 776.5 818.5 c 128,-1,9
 754 779 754 779 715 756 c 128,-1,10
 676 733 676 733 628 733 c 0,11,12
 581 733 581 733 542.5 756 c 128,-1,13
 504 779 504 779 481.5 818.5 c 128,-1,14
 459 858 459 858 459 904 c 256,15,0
 459 950 459 950 481.5 989 c 128,-1,1
481.5 231 m 128,-1,17
 504 270 504 270 542.5 293 c 128,-1,18
 581 316 581 316 628 316 c 256,19,20
 675 316 675 316 714.5 293 c 128,-1,21
 754 270 754 270 776.5 231 c 128,-1,22
 799 192 799 192 799 147 c 0,23,24
 799 100 799 100 776.5 60.5 c 128,-1,25
 754 21 754 21 715 -1.5 c 128,-1,26
 676 -24 676 -24 628 -24 c 0,27,28
 581 -24 581 -24 542.5 -1.5 c 128,-1,29
 504 21 504 21 481.5 60.5 c 128,-1,30
 459 100 459 100 459 147 c 0,31,16
 459 192 459 192 481.5 231 c 128,-1,17
EndSplineSet
Substitution2: "Single Substitution lookup 275 subtable" colon.uc
Substitution2: "Single Substitution lookup 269 subtable" question_colon.liga
Substitution2: "Single Substitution lookup 262 subtable" numbersign_colon.liga
Substitution2: "Single Substitution lookup 260 subtable" less_colon.liga
Substitution2: "Single Substitution lookup 254 subtable" greater_colon.liga
Substitution2: "Single Substitution lookup 249 subtable" LIG
Substitution2: "Single Substitution lookup 248 subtable" colon_colon.liga
Substitution2: "Single Substitution lookup 195 subtable" LIG
Substitution2: "Single Substitution lookup 194 subtable" LIG
Substitution2: "Single Substitution lookup 193 subtable" colon_colon_colon.liga
AlternateSubs2: "'aalt' Access All Alternates lookup 1 subtable" colon_colon_colon.liga LIG colon_colon.liga greater_colon.liga less_colon.liga numbersign_colon.liga question_colon.liga colon.uc
EndChar

StartChar: semicolon
Encoding: 59 59 30
Width: 1260
GlyphClass: 2
Flags: W
LayerCount: 2
Fore
SplineSet
715 1050.5 m 128,-1,1
 754 1028 754 1028 776.5 989 c 128,-1,2
 799 950 799 950 799 904 c 256,3,4
 799 858 799 858 776.5 818.5 c 128,-1,5
 754 779 754 779 715 756 c 128,-1,6
 676 733 676 733 628 733 c 0,7,8
 581 733 581 733 542.5 756 c 128,-1,9
 504 779 504 779 481.5 818.5 c 128,-1,10
 459 858 459 858 459 904 c 256,11,12
 459 950 459 950 481.5 989 c 128,-1,13
 504 1028 504 1028 542.5 1050.5 c 128,-1,14
 581 1073 581 1073 628 1073 c 0,15,0
 676 1073 676 1073 715 1050.5 c 128,-1,1
715 325 m 128,-1,17
 754 302 754 302 776.5 264 c 128,-1,18
 799 226 799 226 799 180 c 0,19,20
 799 139 799 139 789.5 100 c 128,-1,21
 780 61 780 61 757 13 c 2,22,-1
 587 -378 l 1,23,-1
 427 -378 l 1,24,-1
 528 39 l 1,25,26
 495 61 495 61 477 98 c 128,-1,27
 459 135 459 135 459 179 c 0,28,29
 459 225 459 225 481.5 263.5 c 128,-1,30
 504 302 504 302 542.5 325 c 128,-1,31
 581 348 581 348 628 348 c 0,32,16
 676 348 676 348 715 325 c 128,-1,17
EndSplineSet
Substitution2: "Single Substitution lookup 272 subtable" LIG
Substitution2: "Single Substitution lookup 271 subtable" semicolon_semicolon.liga
AlternateSubs2: "'aalt' Access All Alternates lookup 1 subtable" semicolon_semicolon.liga LIG
EndChar

StartChar: less
Encoding: 60 60 31
Width: 1260
GlyphClass: 2
Flags: W
LayerCount: 2
Fore
SplineSet
1078 198 m 1,0,-1
 336 660 l 1,1,-1
 1078 1119 l 1,2,-1
 983 1248 l 1,3,-1
 185 749 l 1,4,-1
 185 568 l 1,5,-1
 983 69 l 1,6,-1
 1078 198 l 1,0,-1
EndSplineSet
Substitution2: "Single Substitution lookup 262 subtable" LIG
Substitution2: "Single Substitution lookup 261 subtable" less_less.liga
Substitution2: "Single Substitution lookup 260 subtable" LIG
Substitution2: "Single Substitution lookup 259 subtable" hyphen_less.liga
Substitution2: "Single Substitution lookup 249 subtable" colon_less.liga
Substitution2: "Single Substitution lookup 233 subtable" period_period_less.liga
Substitution2: "Single Substitution lookup 232 subtable" LIG
Substitution2: "Single Substitution lookup 231 subtable" LIG
Substitution2: "Single Substitution lookup 230 subtable" less_less_less.liga
Substitution2: "Single Substitution lookup 229 subtable" LIG
Substitution2: "Single Substitution lookup 228 subtable" less_hyphen_less.liga
Substitution2: "Single Substitution lookup 227 subtable" LIG
Substitution2: "Single Substitution lookup 225 subtable" LIG
Substitution2: "Single Substitution lookup 224 subtable" less_equal_less.liga
Substitution2: "Single Substitution lookup 223 subtable" LIG
Substitution2: "Single Substitution lookup 221 subtable" LIG
Substitution2: "Single Substitution lookup 220 subtable" LIG
Substitution2: "Single Substitution lookup 219 subtable" LIG
Substitution2: "Single Substitution lookup 218 subtable" LIG
Substitution2: "Single Substitution lookup 217 subtable" LIG
Substitution2: "Single Substitution lookup 216 subtable" hyphen_less_less.liga
Substitution2: "Single Substitution lookup 202 subtable" LIG
Substitution2: "Single Substitution lookup 201 subtable" equal_less_less.liga
Substitution2: "Single Substitution lookup 189 subtable" LIG
Substitution2: "Single Substitution lookup 188 subtable" LIG
AlternateSubs2: "'aalt' Access All Alternates lookup 1 subtable" LIG equal_less_less.liga hyphen_less_less.liga less_equal_less.liga less_hyphen_less.liga less_less_less.liga period_period_less.liga colon_less.liga hyphen_less.liga less_less.liga
EndChar

StartChar: equal
Encoding: 61 61 32
Width: 1260
GlyphClass: 2
Flags: W
LayerCount: 2
Fore
SplineSet
1039 776 m 1,0,-1
 222 776 l 1,1,-1
 222 928 l 1,2,-1
 1039 928 l 1,3,-1
 1039 776 l 1,0,-1
1039 377 m 1,4,-1
 222 377 l 1,5,-1
 222 530 l 1,6,-1
 1039 530 l 1,7,-1
 1039 377 l 1,4,-1
EndSplineSet
Substitution2: "Single Substitution lookup 272 subtable" slash_equal.liga
Substitution2: "Single Substitution lookup 269 subtable" question_equal.liga
Substitution2: "Single Substitution lookup 265 subtable" period_equal.liga
Substitution2: "Single Substitution lookup 262 subtable" numbersign_equal.liga
Substitution2: "Single Substitution lookup 260 subtable" less_equal.liga
Substitution2: "Single Substitution lookup 254 subtable" greater_equal.liga
Substitution2: "Single Substitution lookup 252 subtable" exclam_equal.liga
Substitution2: "Single Substitution lookup 251 subtable" LIG
Substitution2: "Single Substitution lookup 250 subtable" equal_equal.liga
Substitution2: "Single Substitution lookup 249 subtable" colon_equal.liga
Substitution2: "Single Substitution lookup 246 subtable" bar_equal.liga
Substitution2: "Single Substitution lookup 244 subtable" asciitilde_equal.liga
Substitution2: "Single Substitution lookup 243 subtable" asciicircum_equal.liga
Substitution2: "Single Substitution lookup 237 subtable" LIG
Substitution2: "Single Substitution lookup 236 subtable" slash_equal_equal.liga
Substitution2: "Single Substitution lookup 229 subtable" less_less_equal.liga
Substitution2: "Single Substitution lookup 224 subtable" LIG
Substitution2: "Single Substitution lookup 223 subtable" LIG
Substitution2: "Single Substitution lookup 222 subtable" less_equal_equal.liga
Substitution2: "Single Substitution lookup 221 subtable" LIG
Substitution2: "Single Substitution lookup 207 subtable" greater_greater_equal.liga
Substitution2: "Single Substitution lookup 206 subtable" LIG
Substitution2: "Single Substitution lookup 205 subtable" exclam_equal_equal.liga
Substitution2: "Single Substitution lookup 204 subtable" LIG
Substitution2: "Single Substitution lookup 203 subtable" equal_slash_equal.liga
Substitution2: "Single Substitution lookup 202 subtable" LIG
Substitution2: "Single Substitution lookup 201 subtable" LIG
Substitution2: "Single Substitution lookup 200 subtable" LIG
Substitution2: "Single Substitution lookup 199 subtable" equal_exclam_equal.liga
Substitution2: "Single Substitution lookup 198 subtable" LIG
Substitution2: "Single Substitution lookup 197 subtable" equal_equal_equal.liga
Substitution2: "Single Substitution lookup 196 subtable" LIG
Substitution2: "Single Substitution lookup 195 subtable" equal_colon_equal.liga
Substitution2: "Single Substitution lookup 194 subtable" colon_colon_equal.liga
Substitution2: "Single Substitution lookup 192 subtable" LIG
Substitution2: "Single Substitution lookup 191 subtable" bar_bar_equal.liga
Substitution2: "Single Substitution lookup 188 subtable" LIG
Substitution2: "'dnom' Denominators lookup 5 subtable" equal.dnom
Substitution2: "'numr' Numerators lookup 4 subtable" equal.numr
Substitution2: "'sups' Superscript lookup 3 subtable" uni207C
AlternateSubs2: "'aalt' Access All Alternates lookup 1 subtable" uni207C equal.numr equal.dnom LIG bar_bar_equal.liga colon_colon_equal.liga equal_colon_equal.liga equal_equal_equal.liga equal_exclam_equal.liga equal_slash_equal.liga exclam_equal_equal.liga greater_greater_equal.liga less_equal_equal.liga less_less_equal.liga slash_equal_equal.liga asciicircum_equal.liga asciitilde_equal.liga bar_equal.liga colon_equal.liga equal_equal.liga exclam_equal.liga greater_equal.liga less_equal.liga numbersign_equal.liga period_equal.liga question_equal.liga slash_equal.liga
EndChar

StartChar: greater
Encoding: 62 62 33
Width: 1260
GlyphClass: 2
Flags: W
LayerCount: 2
Fore
SplineSet
185 198 m 1,0,-1
 927 660 l 1,1,-1
 185 1119 l 1,2,-1
 280 1248 l 1,3,-1
 1078 749 l 1,4,-1
 1078 568 l 1,5,-1
 280 69 l 1,6,-1
 185 198 l 1,0,-1
EndSplineSet
Substitution2: "Single Substitution lookup 272 subtable" slash_greater.liga
Substitution2: "Single Substitution lookup 267 subtable" plus_greater.liga
Substitution2: "Single Substitution lookup 260 subtable" less_greater.liga
Substitution2: "Single Substitution lookup 257 subtable" hyphen_greater.liga
Substitution2: "Single Substitution lookup 256 subtable" LIG
Substitution2: "Single Substitution lookup 255 subtable" greater_greater.liga
Substitution2: "Single Substitution lookup 254 subtable" LIG
Substitution2: "Single Substitution lookup 251 subtable" equal_greater.liga
Substitution2: "Single Substitution lookup 250 subtable" dollar_greater.liga
Substitution2: "Single Substitution lookup 249 subtable" colon_greater.liga
Substitution2: "Single Substitution lookup 246 subtable" bar_greater.liga
Substitution2: "Single Substitution lookup 245 subtable" asterisk_greater.liga
Substitution2: "Single Substitution lookup 244 subtable" asciitilde_greater.liga
Substitution2: "Single Substitution lookup 232 subtable" less_slash_greater.liga
Substitution2: "Single Substitution lookup 231 subtable" less_plus_greater.liga
Substitution2: "Single Substitution lookup 225 subtable" less_hyphen_greater.liga
Substitution2: "Single Substitution lookup 223 subtable" less_equal_greater.liga
Substitution2: "Single Substitution lookup 221 subtable" less_dollar_greater.liga
Substitution2: "Single Substitution lookup 220 subtable" less_bar_greater.liga
Substitution2: "Single Substitution lookup 219 subtable" less_asterisk_greater.liga
Substitution2: "Single Substitution lookup 218 subtable" less_asciitilde_greater.liga
Substitution2: "Single Substitution lookup 214 subtable" hyphen_hyphen_greater.liga
Substitution2: "Single Substitution lookup 213 subtable" LIG
Substitution2: "Single Substitution lookup 212 subtable" hyphen_greater_greater.liga
Substitution2: "Single Substitution lookup 211 subtable" LIG
Substitution2: "Single Substitution lookup 210 subtable" greater_hyphen_greater.liga
Substitution2: "Single Substitution lookup 209 subtable" LIG
Substitution2: "Single Substitution lookup 208 subtable" greater_greater_greater.liga
Substitution2: "Single Substitution lookup 207 subtable" LIG
Substitution2: "Single Substitution lookup 206 subtable" greater_equal_greater.liga
Substitution2: "Single Substitution lookup 201 subtable" LIG
Substitution2: "Single Substitution lookup 200 subtable" equal_greater_greater.liga
Substitution2: "Single Substitution lookup 198 subtable" equal_equal_greater.liga
Substitution2: "Single Substitution lookup 193 subtable" bar_hyphen_greater.liga
Substitution2: "Single Substitution lookup 192 subtable" bar_equal_greater.liga
Substitution2: "Single Substitution lookup 191 subtable" bar_bar_greater.liga
Substitution2: "Single Substitution lookup 190 subtable" asciitilde_asciitilde_greater.liga
Substitution2: "Single Substitution lookup 188 subtable" less_equal_equal_greater.liga
Substitution2: "Single Substitution lookup 186 subtable" bar_bar_bar_greater.liga
AlternateSubs2: "'aalt' Access All Alternates lookup 1 subtable" bar_bar_bar_greater.liga less_equal_equal_greater.liga asciitilde_asciitilde_greater.liga bar_bar_greater.liga bar_equal_greater.liga bar_hyphen_greater.liga equal_equal_greater.liga equal_greater_greater.liga LIG greater_equal_greater.liga greater_greater_greater.liga greater_hyphen_greater.liga hyphen_greater_greater.liga hyphen_hyphen_greater.liga less_asciitilde_greater.liga less_asterisk_greater.liga less_bar_greater.liga less_dollar_greater.liga less_equal_greater.liga less_hyphen_greater.liga less_plus_greater.liga less_slash_greater.liga asciitilde_greater.liga asterisk_greater.liga bar_greater.liga colon_greater.liga dollar_greater.liga equal_greater.liga greater_greater.liga hyphen_greater.liga less_greater.liga plus_greater.liga slash_greater.liga
EndChar

StartChar: question
Encoding: 63 63 34
Width: 1260
GlyphClass: 2
Flags: W
LayerCount: 2
Fore
SplineSet
847.5 1424 m 128,-1,1
 942 1379 942 1379 992.5 1304.5 c 128,-1,2
 1043 1230 1043 1230 1043 1146 c 0,3,4
 1043 1065 1043 1065 1015.5 1006.5 c 128,-1,5
 988 948 988 948 948 910 c 128,-1,6
 908 872 908 872 843 823 c 0,7,8
 782 777 782 777 747.5 744.5 c 128,-1,9
 713 712 713 712 689 663.5 c 128,-1,10
 665 615 665 615 665 549 c 2,11,-1
 665 477 l 1,12,-1
 487 477 l 1,13,-1
 487 560 l 2,14,15
 487 647 487 647 517 710.5 c 128,-1,16
 547 774 547 774 589.5 816 c 128,-1,17
 632 858 632 858 701 910 c 0,18,19
 756 952 756 952 787 980.5 c 128,-1,20
 818 1009 818 1009 839 1048 c 128,-1,21
 860 1087 860 1087 860 1135 c 0,22,23
 860 1222 860 1222 790 1272 c 128,-1,24
 720 1322 720 1322 611 1322 c 0,25,26
 532 1322 532 1322 454.5 1284 c 128,-1,27
 377 1246 377 1246 314 1169 c 1,28,-1
 188 1261 l 1,29,30
 364 1469 364 1469 629 1469 c 0,31,0
 753 1469 753 1469 847.5 1424 c 128,-1,1
653.5 238.5 m 128,-1,33
 686 220 686 220 705 187.5 c 128,-1,34
 724 155 724 155 724 118 c 0,35,36
 724 79 724 79 705 46.5 c 128,-1,37
 686 14 686 14 653.5 -5 c 128,-1,38
 621 -24 621 -24 581 -24 c 0,39,40
 522 -24 522 -24 482 17 c 128,-1,41
 442 58 442 58 442 118 c 0,42,43
 442 156 442 156 460.5 188 c 128,-1,44
 479 220 479 220 510.5 238.5 c 128,-1,45
 542 257 542 257 581 257 c 0,46,32
 621 257 621 257 653.5 238.5 c 128,-1,33
EndSplineSet
Substitution2: "Single Substitution lookup 271 subtable" LIG
Substitution2: "Single Substitution lookup 270 subtable" question_question.liga
Substitution2: "Single Substitution lookup 269 subtable" LIG
Substitution2: "Single Substitution lookup 267 subtable" period_question.liga
Substitution2: "Single Substitution lookup 264 subtable" numbersign_question.liga
AlternateSubs2: "'aalt' Access All Alternates lookup 1 subtable" numbersign_question.liga period_question.liga LIG question_question.liga
EndChar

StartChar: at
Encoding: 64 64 35
Width: 1260
GlyphClass: 2
Flags: W
LayerCount: 2
Fore
SplineSet
991 1348 m 128,-1,1
 1131 1227 1131 1227 1180.5 1037 c 128,-1,2
 1230 847 1230 847 1230 598 c 0,3,4
 1230 317 1230 317 1204.5 148 c 128,-1,5
 1179 -21 1179 -21 1112 -105.5 c 128,-1,6
 1045 -190 1045 -190 921 -190 c 0,7,8
 840 -190 840 -190 784 -140 c 128,-1,9
 728 -90 728 -90 700.5 -20 c 128,-1,10
 673 50 673 50 674 108 c 1,11,-1
 666 108 l 1,12,13
 631 21 631 21 562.5 -37.5 c 128,-1,14
 494 -96 494 -96 379 -96 c 0,15,16
 215 -96 215 -96 138.5 33.5 c 128,-1,17
 62 163 62 163 62 385 c 0,18,19
 62 655 62 655 168.5 791 c 128,-1,20
 275 927 275 927 474 927 c 0,21,22
 552 927 552 927 619 910.5 c 128,-1,23
 686 894 686 894 770 849 c 1,24,-1
 770 228 l 2,25,26
 770 70 770 70 809 11 c 128,-1,27
 848 -48 848 -48 918 -48 c 0,28,29
 980 -48 980 -48 1008.5 32.5 c 128,-1,30
 1037 113 1037 113 1043 238.5 c 128,-1,31
 1049 364 1049 364 1049 595 c 0,32,33
 1049 821 1049 821 1014.5 976.5 c 128,-1,34
 980 1132 980 1132 880.5 1224 c 128,-1,35
 781 1316 781 1316 598 1316 c 0,36,37
 480 1316 480 1316 362 1274 c 128,-1,38
 244 1232 244 1232 121 1123 c 1,39,-1
 20 1240 l 1,40,41
 155 1358 155 1358 301.5 1413.5 c 128,-1,42
 448 1469 448 1469 595 1469 c 0,43,0
 851 1469 851 1469 991 1348 c 128,-1,1
334 751.5 m 128,-1,45
 279 706 279 706 256 616 c 128,-1,46
 233 526 233 526 233 385 c 0,47,48
 233 219 233 219 271.5 128 c 128,-1,49
 310 37 310 37 400 37 c 0,50,51
 466 37 466 37 509.5 67.5 c 128,-1,52
 553 98 553 98 574 134 c 128,-1,53
 595 170 595 170 617 222 c 1,54,-1
 617 766 l 1,55,56
 584 783 584 783 552.5 790 c 128,-1,57
 521 797 521 797 482 797 c 0,58,44
 389 797 389 797 334 751.5 c 128,-1,45
EndSplineSet
Substitution2: "Single Substitution lookup 244 subtable" asciitilde_at.liga
Substitution2: "'ss05' Style Set 5 lookup 178 subtable" at.ss06
Substitution2: "'aalt' Access All Alternates lookup 0 subtable" asciitilde_at.liga
EndChar

StartChar: A
Encoding: 65 65 36
Width: 1260
GlyphClass: 2
Flags: W
AnchorPoint: "Anchor-7" 630 1446 basechar 0
AnchorPoint: "Anchor-6" 626 0 basechar 0
LayerCount: 2
Fore
SplineSet
338 369 m 1,0,-1
 223 0 l 1,1,-1
 43 0 l 1,2,-1
 514 1446 l 1,3,-1
 747 1446 l 1,4,-1
 1217 0 l 1,5,-1
 1026 0 l 1,6,-1
 911 369 l 1,7,-1
 338 369 l 1,0,-1
863 520 m 1,8,-1
 626 1293 l 1,9,-1
 385 520 l 1,10,-1
 863 520 l 1,8,-1
EndSplineSet
Substitution2: "Single Substitution lookup 184 subtable" ordfeminine
Substitution2: "'aalt' Access All Alternates lookup 0 subtable" ordfeminine
EndChar

StartChar: B
Encoding: 66 66 37
Width: 1260
GlyphClass: 2
Flags: W
AnchorPoint: "Anchor-7" 630 1446 basechar 0
AnchorPoint: "Anchor-6" 630 0 basechar 0
LayerCount: 2
Fore
SplineSet
1056.5 172 m 128,-1,1
 980 80 980 80 858 40 c 128,-1,2
 736 0 736 0 591 0 c 2,3,-1
 203 0 l 1,4,-1
 203 1446 l 1,5,-1
 559 1446 l 2,6,7
 779 1446 779 1446 924.5 1361.5 c 128,-1,8
 1070 1277 1070 1277 1070 1082 c 0,9,10
 1070 952 1070 952 993.5 872 c 128,-1,11
 917 792 917 792 801 766 c 1,12,13
 1133 709 1133 709 1133 413 c 0,14,0
 1133 264 1133 264 1056.5 172 c 128,-1,1
600 1299 m 2,16,-1
 384 1299 l 1,17,-1
 384 831 l 1,18,-1
 618 831 l 2,19,20
 749 831 749 831 816 889 c 128,-1,21
 883 947 883 947 883 1072 c 0,22,15
 884 1299 884 1299 600 1299 c 2,16,-1
857.5 620 m 128,-1,24
 774 681 774 681 631 681 c 2,25,-1
 384 681 l 1,26,-1
 384 150 l 1,27,-1
 623 150 l 2,28,29
 756 150 756 150 848.5 206 c 128,-1,30
 941 262 941 262 941 406 c 0,31,23
 941 559 941 559 857.5 620 c 128,-1,24
EndSplineSet
EndChar

StartChar: C
Encoding: 67 67 38
Width: 1260
GlyphClass: 2
Flags: W
AnchorPoint: "Anchor-7" 768 1446 basechar 0
AnchorPoint: "Anchor-6" 734 0 basechar 0
LayerCount: 2
Fore
SplineSet
985 1435 m 128,-1,1
 1081 1401 1081 1401 1171 1329 c 1,2,-1
 1069 1210 l 1,3,4
 941 1317 941 1317 766 1317 c 0,5,6
 640 1317 640 1317 540.5 1258 c 128,-1,7
 441 1199 441 1199 381.5 1067 c 128,-1,8
 322 935 322 935 322 724 c 0,9,10
 322 517 322 517 379 384.5 c 128,-1,11
 436 252 436 252 534 192 c 128,-1,12
 632 132 632 132 761 132 c 0,13,14
 871 132 871 132 950 164.5 c 128,-1,15
 1029 197 1029 197 1098 253 c 1,16,-1
 1192 133 l 1,17,18
 1118 62 1118 62 1011 19 c 128,-1,19
 904 -24 904 -24 759 -24 c 0,20,21
 580 -24 580 -24 438 63 c 128,-1,22
 296 150 296 150 214.5 318.5 c 128,-1,23
 133 487 133 487 133 724 c 0,24,25
 133 959 133 959 216 1127.5 c 128,-1,26
 299 1296 299 1296 440 1382.5 c 128,-1,27
 581 1469 581 1469 752 1469 c 0,28,0
 889 1469 889 1469 985 1435 c 128,-1,1
EndSplineSet
EndChar

StartChar: D
Encoding: 68 68 39
Width: 1260
GlyphClass: 2
Flags: W
AnchorPoint: "Anchor-7" 595 1446 basechar 0
AnchorPoint: "Anchor-6" 630 0 basechar 0
LayerCount: 2
Fore
SplineSet
972 159.5 m 128,-1,1
 783 0 783 0 507 0 c 2,2,-1
 175 0 l 1,3,-1
 175 1446 l 1,4,-1
 484 1446 l 2,5,6
 677 1446 677 1446 825.5 1388 c 128,-1,7
 974 1330 974 1330 1067.5 1171 c 128,-1,8
 1161 1012 1161 1012 1161 730 c 0,9,0
 1161 319 1161 319 972 159.5 c 128,-1,1
902 1090 m 128,-1,11
 838 1215 838 1215 743 1256 c 128,-1,12
 648 1297 648 1297 527 1297 c 2,13,-1
 357 1297 l 1,14,-1
 357 146 l 1,15,-1
 529 146 l 2,16,17
 717 146 717 146 841.5 274.5 c 128,-1,18
 966 403 966 403 966 730 c 0,19,10
 966 965 966 965 902 1090 c 128,-1,11
EndSplineSet
EndChar

StartChar: E
Encoding: 69 69 40
Width: 1260
GlyphClass: 2
Flags: W
AnchorPoint: "Anchor-7" 674 1446 basechar 0
AnchorPoint: "Anchor-6" 684 0 basechar 0
LayerCount: 2
Fore
SplineSet
446 810 m 1,0,-1
 982 810 l 1,1,-1
 982 660 l 1,2,-1
 446 660 l 1,3,-1
 446 146 l 1,4,-1
 1104 146 l 1,5,-1
 1104 0 l 1,6,-1
 264 0 l 1,7,-1
 264 1446 l 1,8,-1
 1085 1446 l 1,9,-1
 1064 1297 l 1,10,-1
 446 1297 l 1,11,-1
 446 810 l 1,0,-1
EndSplineSet
EndChar

StartChar: F
Encoding: 70 70 41
Width: 1260
GlyphClass: 2
Flags: W
AnchorPoint: "Anchor-7" 630 1446 basechar 0
AnchorPoint: "Anchor-6" 630 0 basechar 0
LayerCount: 2
Fore
SplineSet
472 791 m 1,0,-1
 1039 791 l 1,1,-1
 1039 644 l 1,2,-1
 472 644 l 1,3,-1
 472 0 l 1,4,-1
 291 0 l 1,5,-1
 291 1446 l 1,6,-1
 1143 1446 l 1,7,-1
 1121 1297 l 1,8,-1
 472 1297 l 1,9,-1
 472 791 l 1,0,-1
EndSplineSet
Substitution2: "Single Substitution lookup 241 subtable" LIG
Substitution2: "'aalt' Access All Alternates lookup 0 subtable" LIG
EndChar

StartChar: G
Encoding: 71 71 42
Width: 1260
GlyphClass: 2
Flags: W
AnchorPoint: "Anchor-7" 693 1446 basechar 0
AnchorPoint: "Anchor-6" 694 0 basechar 0
LayerCount: 2
Fore
SplineSet
359 59.5 m 128,-1,1
 233 143 233 143 164.5 310.5 c 128,-1,2
 96 478 96 478 96 724 c 0,3,4
 96 962 96 962 180 1130.5 c 128,-1,5
 264 1299 264 1299 402 1384 c 128,-1,6
 540 1469 540 1469 701 1469 c 0,7,8
 836 1469 836 1469 930.5 1431 c 128,-1,9
 1025 1393 1025 1393 1114 1311 c 1,10,-1
 1004 1196 l 1,11,12
 938 1258 938 1258 864.5 1287.5 c 128,-1,13
 791 1317 791 1317 702 1317 c 0,14,15
 590 1317 590 1317 497 1258.5 c 128,-1,16
 404 1200 404 1200 347.5 1068 c 128,-1,17
 291 936 291 936 291 724 c 0,18,19
 291 414 291 414 386.5 271.5 c 128,-1,20
 482 129 482 129 675 129 c 0,21,22
 821 129 821 129 950 198 c 1,23,-1
 950 573 l 1,24,-1
 666 573 l 1,25,-1
 644 724 l 1,26,-1
 1131 724 l 1,27,-1
 1131 102 l 1,28,29
 1020 41 1020 41 910 8.5 c 128,-1,30
 800 -24 800 -24 659 -24 c 0,31,0
 485 -24 485 -24 359 59.5 c 128,-1,1
EndSplineSet
EndChar

StartChar: H
Encoding: 72 72 43
Width: 1260
GlyphClass: 2
Flags: W
AnchorPoint: "Anchor-7" 630 1446 basechar 0
AnchorPoint: "Anchor-6" 630 0 basechar 0
LayerCount: 2
Fore
SplineSet
903 686 m 1,0,-1
 357 686 l 1,1,-1
 357 0 l 1,2,-1
 175 0 l 1,3,-1
 175 1446 l 1,4,-1
 357 1446 l 1,5,-1
 357 835 l 1,6,-1
 903 835 l 1,7,-1
 903 1446 l 1,8,-1
 1085 1446 l 1,9,-1
 1085 0 l 1,10,-1
 903 0 l 1,11,-1
 903 686 l 1,0,-1
EndSplineSet
EndChar

StartChar: I
Encoding: 73 73 44
Width: 1260
GlyphClass: 2
Flags: W
AnchorPoint: "Anchor-7" 630 1446 basechar 0
AnchorPoint: "Anchor-6" 630 0 basechar 0
LayerCount: 2
Fore
SplineSet
1044 1300 m 1,0,-1
 723 1300 l 1,1,-1
 723 146 l 1,2,-1
 1044 146 l 1,3,-1
 1044 0 l 1,4,-1
 216 0 l 1,5,-1
 216 146 l 1,6,-1
 538 146 l 1,7,-1
 538 1300 l 1,8,-1
 216 1300 l 1,9,-1
 216 1446 l 1,10,-1
 1044 1446 l 1,11,-1
 1044 1300 l 1,0,-1
EndSplineSet
EndChar

StartChar: J
Encoding: 74 74 45
Width: 1260
GlyphClass: 2
Flags: W
AnchorPoint: "Anchor-7" 734 1446 basechar 0
AnchorPoint: "Anchor-6" 630 0 basechar 0
LayerCount: 2
Fore
SplineSet
1043 480 m 2,0,1
 1043 347 1043 347 996 233.5 c 128,-1,2
 949 120 949 120 839 48 c 128,-1,3
 729 -24 729 -24 549 -24 c 0,4,5
 441 -24 441 -24 339 9.5 c 128,-1,6
 237 43 237 43 152 107 c 1,7,-1
 233 228 l 1,8,9
 320 172 320 172 397.5 150 c 128,-1,10
 475 128 475 128 547 128 c 0,11,12
 696 128 696 128 778.5 224 c 128,-1,13
 861 320 861 320 861 490 c 2,14,-1
 861 1297 l 1,15,-1
 433 1297 l 1,16,-1
 433 1446 l 1,17,-1
 1043 1446 l 1,18,-1
 1043 480 l 2,0,1
EndSplineSet
EndChar

StartChar: K
Encoding: 75 75 46
Width: 1260
GlyphClass: 2
Flags: W
AnchorPoint: "Anchor-7" 686 1446 basechar 0
AnchorPoint: "Anchor-6" 677 0 basechar 0
LayerCount: 2
Fore
SplineSet
221 0 m 1,0,-1
 221 1446 l 1,1,-1
 402 1446 l 1,2,-1
 402 0 l 1,3,-1
 221 0 l 1,0,-1
982 1446 m 1,4,-1
 1192 1446 l 1,5,-1
 627 783 l 1,6,-1
 1232 0 l 1,7,-1
 1005 0 l 1,8,-1
 413 772 l 1,9,-1
 982 1446 l 1,4,-1
EndSplineSet
EndChar

StartChar: L
Encoding: 76 76 47
Width: 1260
GlyphClass: 2
Flags: W
AnchorPoint: "Anchor-7" 377 1446 basechar 0
AnchorPoint: "Anchor-6" 696 0 basechar 0
LayerCount: 2
Fore
SplineSet
285 1446 m 1,0,-1
 467 1446 l 1,1,-1
 467 163 l 1,2,-1
 1127 163 l 1,3,-1
 1106 0 l 1,4,-1
 285 0 l 1,5,-1
 285 1446 l 1,0,-1
EndSplineSet
EndChar

StartChar: M
Encoding: 77 77 48
Width: 1260
GlyphClass: 2
Flags: W
AnchorPoint: "Anchor-7" 630 1446 basechar 0
AnchorPoint: "Anchor-6" 630 0 basechar 0
LayerCount: 2
Fore
SplineSet
1196 0 m 1,0,-1
 1021 0 l 1,1,-1
 976 755 l 2,2,3
 964 957 964 957 964 1219 c 2,4,-1
 964 1279 l 1,5,-1
 720 259 l 1,6,-1
 538 259 l 1,7,-1
 276 1279 l 1,8,9
 279 1216 279 1216 279 1043 c 0,10,11
 279 866 279 866 274 757 c 2,12,-1
 235 0 l 1,13,-1
 64 0 l 1,14,-1
 146 1446 l 1,15,-1
 400 1446 l 1,16,-1
 634 456 l 1,17,-1
 858 1446 l 1,18,-1
 1114 1446 l 1,19,-1
 1196 0 l 1,0,-1
EndSplineSet
EndChar

StartChar: N
Encoding: 78 78 49
Width: 1260
GlyphClass: 2
Flags: W
AnchorPoint: "Anchor-7" 627 1446 basechar 0
AnchorPoint: "Anchor-6" 630 0 basechar 0
LayerCount: 2
Fore
SplineSet
320 1272 m 1,0,1
 320 1264 320 1264 321 1242.5 c 128,-1,2
 322 1221 322 1221 326 1183 c 0,3,4
 345 896 345 896 344 725 c 2,5,-1
 344 0 l 1,6,-1
 175 0 l 1,7,-1
 175 1446 l 1,8,-1
 422 1446 l 1,9,-1
 940 169 l 1,10,-1
 936 245 l 1,11,12
 916 524 916 524 916 723 c 2,13,-1
 916 1446 l 1,14,-1
 1085 1446 l 1,15,-1
 1085 0 l 1,16,-1
 830 0 l 1,17,-1
 320 1272 l 1,0,1
EndSplineSet
EndChar

StartChar: O
Encoding: 79 79 50
Width: 1260
GlyphClass: 2
Flags: W
AnchorPoint: "Anchor-7" 630 1446 basechar 0
AnchorPoint: "Anchor-6" 630 0 basechar 0
LayerCount: 2
Fore
SplineSet
1102.5 331 m 128,-1,1
 1042 163 1042 163 922 69.5 c 128,-1,2
 802 -24 802 -24 630 -24 c 256,3,4
 458 -24 458 -24 338 67.5 c 128,-1,5
 218 159 218 159 158 326.5 c 128,-1,6
 98 494 98 494 98 719 c 0,7,8
 98 942 98 942 158 1111 c 128,-1,9
 218 1280 218 1280 338 1374.5 c 128,-1,10
 458 1469 458 1469 630 1469 c 256,11,12
 802 1469 802 1469 922 1376.5 c 128,-1,13
 1042 1284 1042 1284 1102.5 1115.5 c 128,-1,14
 1163 947 1163 947 1163 722 c 0,15,0
 1163 499 1163 499 1102.5 331 c 128,-1,1
890 1168 m 128,-1,17
 809 1317 809 1317 630 1317 c 256,18,19
 451 1317 451 1317 370 1167 c 128,-1,20
 289 1017 289 1017 289 719 c 0,21,22
 289 425 289 425 372 277 c 128,-1,23
 455 129 455 129 630 129 c 0,24,25
 809 129 809 129 890 277 c 128,-1,26
 971 425 971 425 971 722 c 256,27,16
 971 1019 971 1019 890 1168 c 128,-1,17
EndSplineSet
Substitution2: "Single Substitution lookup 184 subtable" ordmasculine
Substitution2: "'aalt' Access All Alternates lookup 0 subtable" ordmasculine
EndChar

StartChar: P
Encoding: 80 80 51
Width: 1260
GlyphClass: 2
Flags: W
AnchorPoint: "Anchor-7" 630 1446 basechar 0
AnchorPoint: "Anchor-6" 630 0 basechar 0
LayerCount: 2
Fore
SplineSet
1020.5 648.5 m 128,-1,1
 871 537 871 537 610 537 c 2,2,-1
 425 537 l 1,3,-1
 425 0 l 1,4,-1
 243 0 l 1,5,-1
 243 1446 l 1,6,-1
 612 1446 l 2,7,8
 878 1446 878 1446 1024 1335.5 c 128,-1,9
 1170 1225 1170 1225 1170 1002 c 0,10,0
 1170 760 1170 760 1020.5 648.5 c 128,-1,1
884 1229.5 m 128,-1,12
 793 1301 793 1301 634 1301 c 2,13,-1
 425 1301 l 1,14,-1
 425 684 l 1,15,-1
 627 684 l 2,16,17
 793 684 793 684 884 755 c 128,-1,18
 975 826 975 826 975 1000 c 0,19,11
 975 1158 975 1158 884 1229.5 c 128,-1,12
EndSplineSet
EndChar

StartChar: Q
Encoding: 81 81 52
Width: 1260
GlyphClass: 2
Flags: W
AnchorPoint: "Anchor-7" 630 1446 basechar 0
AnchorPoint: "Anchor-6" 630 0 basechar 0
LayerCount: 2
Fore
SplineSet
499 403 m 1024,0,-1
1207 211 m 1024,1,-1
1283 36 m 1024,2,3
970 0 m 1,4,-1
 803 261 l 1,5,6
 714 408 714 408 630 406 c 0,7,8
 499 403 499 403 475 82 c 1,9,-1
 389 84 l 1,10,11
 427 596 427 596 630 595 c 0,12,13
 770 595 770 595 879 436 c 1,14,-1
 1046 175 l 1,15,16
 1114 81 1114 81 1184 175 c 1,17,-1
 1207 211 l 1,18,-1
 1283 36 l 1,19,-1
 1260 0 l 1,20,21
 1107 -199 1107 -199 970 0 c 1,4,-1
1102.5 331 m 128,-1,23
 1042 163 1042 163 922 69.5 c 128,-1,24
 802 -24 802 -24 630 -24 c 256,25,26
 458 -24 458 -24 338 67.5 c 128,-1,27
 218 159 218 159 158 326.5 c 128,-1,28
 98 494 98 494 98 719 c 0,29,30
 98 942 98 942 158 1111 c 128,-1,31
 218 1280 218 1280 338 1374.5 c 128,-1,32
 458 1469 458 1469 630 1469 c 256,33,34
 802 1469 802 1469 922 1376.5 c 128,-1,35
 1042 1284 1042 1284 1102.5 1115.5 c 128,-1,36
 1163 947 1163 947 1163 722 c 0,37,22
 1163 499 1163 499 1102.5 331 c 128,-1,23
890 1168 m 128,-1,39
 809 1317 809 1317 630 1317 c 256,40,41
 451 1317 451 1317 370 1167 c 128,-1,42
 289 1017 289 1017 289 719 c 0,43,44
 289 425 289 425 372 277 c 128,-1,45
 455 129 455 129 630 129 c 0,46,47
 809 129 809 129 890 277 c 128,-1,48
 971 425 971 425 971 722 c 256,49,38
 971 1019 971 1019 890 1168 c 128,-1,39
EndSplineSet
EndChar

StartChar: R
Encoding: 82 82 53
Width: 1260
GlyphClass: 2
Flags: W
AnchorPoint: "Anchor-7" 630 1446 basechar 0
AnchorPoint: "Anchor-6" 627 0 basechar 0
LayerCount: 2
Fore
SplineSet
1031.5 783 m 128,-1,1
 934 681 934 681 776 642 c 1,2,-1
 1205 0 l 1,3,-1
 986 0 l 1,4,-1
 591 621 l 1,5,-1
 396 621 l 1,6,-1
 396 0 l 1,7,-1
 213 0 l 1,8,-1
 213 1446 l 1,9,-1
 585 1446 l 2,10,11
 853 1446 853 1446 991 1343 c 128,-1,12
 1129 1240 1129 1240 1129 1041 c 0,13,0
 1129 885 1129 885 1031.5 783 c 128,-1,1
854.5 1239.5 m 128,-1,15
 775 1301 775 1301 606 1301 c 2,16,-1
 396 1301 l 1,17,-1
 396 764 l 1,18,-1
 606 764 l 2,19,20
 768 764 768 764 851 829.5 c 128,-1,21
 934 895 934 895 934 1041 c 0,22,14
 934 1178 934 1178 854.5 1239.5 c 128,-1,15
EndSplineSet
EndChar

StartChar: S
Encoding: 83 83 54
Width: 1260
GlyphClass: 2
Flags: W
AnchorPoint: "Anchor-7" 642 1446 basechar 0
AnchorPoint: "Anchor-6" 623 0 basechar 0
LayerCount: 2
Fore
SplineSet
1064.5 179 m 128,-1,1
 1002 83 1002 83 883 29.5 c 128,-1,2
 764 -24 764 -24 599 -24 c 0,3,4
 443 -24 443 -24 313.5 23.5 c 128,-1,5
 184 71 184 71 91 161 c 1,6,-1
 200 283 l 1,7,8
 279 208 279 208 377 168.5 c 128,-1,9
 475 129 475 129 602 129 c 0,10,11
 692 129 692 129 768.5 159 c 128,-1,12
 845 189 845 189 891.5 249.5 c 128,-1,13
 938 310 938 310 938 397 c 0,14,15
 938 469 938 469 910 517.5 c 128,-1,16
 882 566 882 566 814 604.5 c 128,-1,17
 746 643 746 643 621 680 c 0,18,19
 467 725 467 725 366 778 c 128,-1,20
 265 831 265 831 209.5 908.5 c 128,-1,21
 154 986 154 986 154 1098 c 0,22,23
 154 1205 154 1205 213.5 1289.5 c 128,-1,24
 273 1374 273 1374 379.5 1421.5 c 128,-1,25
 486 1469 486 1469 623 1469 c 0,26,27
 768 1469 768 1469 879.5 1427.5 c 128,-1,28
 991 1386 991 1386 1085 1304 c 1,29,-1
 978 1186 l 1,30,31
 903 1252 903 1252 814 1284.5 c 128,-1,32
 725 1317 725 1317 629 1317 c 0,33,34
 548 1317 548 1317 482.5 1293.5 c 128,-1,35
 417 1270 417 1270 378.5 1221.5 c 128,-1,36
 340 1173 340 1173 340 1104 c 0,37,38
 340 1040 340 1040 373.5 996 c 128,-1,39
 407 952 407 952 485 915 c 128,-1,40
 563 878 563 878 705 836 c 0,41,42
 835 798 835 798 925.5 749.5 c 128,-1,43
 1016 701 1016 701 1071.5 616 c 128,-1,44
 1127 531 1127 531 1127 400 c 0,45,0
 1127 275 1127 275 1064.5 179 c 128,-1,1
EndSplineSet
EndChar

StartChar: T
Encoding: 84 84 55
Width: 1260
GlyphClass: 2
Flags: W
AnchorPoint: "Anchor-7" 628 1446 basechar 0
AnchorPoint: "Anchor-6" 628 0 basechar 0
LayerCount: 2
Fore
SplineSet
717 0 m 1,0,-1
 536 0 l 1,1,-1
 536 1290 l 1,2,-1
 84 1290 l 1,3,-1
 84 1446 l 1,4,-1
 1175 1446 l 1,5,-1
 1156 1290 l 1,6,-1
 717 1290 l 1,7,-1
 717 0 l 1,0,-1
EndSplineSet
Substitution2: "Single Substitution lookup 242 subtable" LIG
Substitution2: "'aalt' Access All Alternates lookup 0 subtable" LIG
EndChar

StartChar: U
Encoding: 85 85 56
Width: 1260
GlyphClass: 2
Flags: W
AnchorPoint: "Anchor-7" 630 1446 basechar 0
AnchorPoint: "Anchor-6" 630 0 basechar 0
LayerCount: 2
Fore
SplineSet
1108 468 m 2,0,1
 1108 322 1108 322 1049 211 c 128,-1,2
 990 100 990 100 881.5 38 c 128,-1,3
 773 -24 773 -24 628 -24 c 0,4,5
 482 -24 482 -24 374.5 38 c 128,-1,6
 267 100 267 100 209.5 211 c 128,-1,7
 152 322 152 322 152 468 c 2,8,-1
 152 1446 l 1,9,-1
 333 1446 l 1,10,-1
 333 462 l 2,11,12
 333 299 333 299 409 216 c 128,-1,13
 485 133 485 133 628 133 c 0,14,15
 772 133 772 133 848 216 c 128,-1,16
 924 299 924 299 924 462 c 2,17,-1
 924 1446 l 1,18,-1
 1108 1446 l 1,19,-1
 1108 468 l 2,0,1
EndSplineSet
EndChar

StartChar: V
Encoding: 86 86 57
Width: 1260
GlyphClass: 2
Flags: W
AnchorPoint: "Anchor-7" 630 1446 basechar 0
AnchorPoint: "Anchor-6" 630 0 basechar 0
LayerCount: 2
Fore
SplineSet
1025 1446 m 1,0,-1
 1209 1446 l 1,1,-1
 725 0 l 1,2,-1
 536 0 l 1,3,-1
 51 1446 l 1,4,-1
 248 1446 l 1,5,-1
 634 207 l 1,6,-1
 1025 1446 l 1,0,-1
EndSplineSet
EndChar

StartChar: W
Encoding: 87 87 58
Width: 1260
GlyphClass: 2
Flags: W
AnchorPoint: "Anchor-7" 630 1446 basechar 0
AnchorPoint: "Anchor-6" 630 0 basechar 0
LayerCount: 2
Fore
SplineSet
1030 0 m 1,0,-1
 791 0 l 1,1,-1
 625 1091 l 1,2,-1
 458 0 l 1,3,-1
 213 0 l 1,4,-1
 9 1446 l 1,5,-1
 192 1446 l 1,6,-1
 347 201 l 1,7,-1
 520 1278 l 1,8,-1
 744 1278 l 1,9,-1
 908 201 l 1,10,-1
 1082 1446 l 1,11,-1
 1251 1446 l 1,12,-1
 1030 0 l 1,0,-1
EndSplineSet
EndChar

StartChar: X
Encoding: 88 88 59
Width: 1260
GlyphClass: 2
Flags: W
AnchorPoint: "Anchor-7" 630 1446 basechar 0
AnchorPoint: "Anchor-6" 630 0 basechar 0
LayerCount: 2
Fore
SplineSet
313 1446 m 1,0,-1
 630 891 l 1,1,-1
 948 1446 l 1,2,-1
 1146 1446 l 1,3,-1
 735 780 l 1,4,-1
 1195 0 l 1,5,-1
 986 0 l 1,6,-1
 626 653 l 1,7,-1
 262 0 l 1,8,-1
 65 0 l 1,9,-1
 519 771 l 1,10,-1
 104 1446 l 1,11,-1
 313 1446 l 1,0,-1
EndSplineSet
EndChar

StartChar: Y
Encoding: 89 89 60
Width: 1260
GlyphClass: 2
Flags: W
AnchorPoint: "Anchor-7" 638 1446 basechar 0
AnchorPoint: "Anchor-6" 630 0 basechar 0
LayerCount: 2
Fore
SplineSet
723 0 m 1,0,-1
 538 0 l 1,1,-1
 538 556 l 1,2,-1
 49 1446 l 1,3,-1
 251 1446 l 1,4,-1
 634 722 l 1,5,-1
 1022 1446 l 1,6,-1
 1211 1446 l 1,7,-1
 723 558 l 1,8,-1
 723 0 l 1,0,-1
EndSplineSet
EndChar

StartChar: Z
Encoding: 90 90 61
Width: 1260
GlyphClass: 2
Flags: W
AnchorPoint: "Anchor-7" 669 1446 basechar 0
AnchorPoint: "Anchor-6" 630 0 basechar 0
LayerCount: 2
Fore
SplineSet
1108 158 m 1,0,-1
 1086 0 l 1,1,-1
 150 0 l 1,2,-1
 150 148 l 1,3,-1
 915 1291 l 1,4,-1
 226 1291 l 1,5,-1
 226 1446 l 1,6,-1
 1110 1446 l 1,7,-1
 1110 1297 l 1,8,-1
 351 158 l 1,9,-1
 1108 158 l 1,0,-1
EndSplineSet
EndChar

StartChar: bracketleft
Encoding: 91 91 62
Width: 1260
GlyphClass: 2
Flags: W
LayerCount: 2
Fore
SplineSet
386 1713 m 1,0,-1
 913 1713 l 1,1,-1
 913 1561 l 1,2,-1
 553 1561 l 1,3,-1
 553 -92 l 1,4,-1
 913 -92 l 1,5,-1
 913 -243 l 1,6,-1
 386 -243 l 1,7,-1
 386 1713 l 1,0,-1
EndSplineSet
Substitution2: "Single Substitution lookup 262 subtable" numbersign_bracketleft.liga
Substitution2: "Single Substitution lookup 248 subtable" LIG
Substitution2: "'case' Case-Sensitive Forms lookup 13 subtable" bracketleft.case
AlternateSubs2: "'aalt' Access All Alternates lookup 1 subtable" bracketleft.case LIG numbersign_bracketleft.liga
EndChar

StartChar: backslash
Encoding: 92 92 63
Width: 1260
GlyphClass: 2
Flags: W
LayerCount: 2
Fore
SplineSet
251 1700 m 1,0,-1
 1150 -153 l 1,1,-1
 1007 -216 l 1,2,-1
 110 1631 l 1,3,-1
 251 1700 l 1,0,-1
EndSplineSet
Substitution2: "Single Substitution lookup 277 subtable" backslash.ss08
Substitution2: "Single Substitution lookup 276 subtable" LIG
Substitution2: "Single Substitution lookup 275 subtable" slash_backslash.liga
AlternateSubs2: "'aalt' Access All Alternates lookup 1 subtable" slash_backslash.liga LIG
EndChar

StartChar: bracketright
Encoding: 93 93 64
Width: 1260
GlyphClass: 2
Flags: W
LayerCount: 2
Fore
SplineSet
874 -243 m 1,0,-1
 348 -243 l 1,1,-1
 348 -93 l 1,2,-1
 707 -93 l 1,3,-1
 707 1561 l 1,4,-1
 348 1561 l 1,5,-1
 348 1713 l 1,6,-1
 874 1713 l 1,7,-1
 874 -243 l 1,0,-1
EndSplineSet
Substitution2: "Single Substitution lookup 248 subtable" LIG
Substitution2: "Single Substitution lookup 246 subtable" bar_bracketright.liga
Substitution2: "'case' Case-Sensitive Forms lookup 13 subtable" bracketright.case
AlternateSubs2: "'aalt' Access All Alternates lookup 1 subtable" bracketright.case bar_bracketright.liga LIG
EndChar

StartChar: asciicircum
Encoding: 94 94 65
Width: 1260
GlyphClass: 2
Flags: W
LayerCount: 2
Fore
SplineSet
1106 1107 m 1,0,-1
 914 1107 l 1,1,-1
 628 1605 l 1,2,-1
 343 1107 l 1,3,-1
 154 1107 l 1,4,-1
 551 1763 l 1,5,-1
 709 1763 l 1,6,-1
 1106 1107 l 1,0,-1
EndSplineSet
Substitution2: "Single Substitution lookup 243 subtable" LIG
Substitution2: "'aalt' Access All Alternates lookup 0 subtable" LIG
EndChar

StartChar: underscore
Encoding: 95 95 66
Width: 1260
GlyphClass: 2
Flags: W
LayerCount: 2
Fore
SplineSet
105 -227 m 1,0,-1
 1155 -227 l 1,1,-1
 1155 -381 l 1,2,-1
 105 -381 l 1,3,-1
 105 -227 l 1,0,-1
EndSplineSet
Substitution2: "Single Substitution lookup 275 subtable" LIG
Substitution2: "Single Substitution lookup 274 subtable" underscore_underscore.liga
Substitution2: "Single Substitution lookup 264 subtable" numbersign_underscore.liga
Substitution2: "Single Substitution lookup 240 subtable" LIG
Substitution2: "Single Substitution lookup 239 subtable" underscore_bar_underscore.liga
Substitution2: "Single Substitution lookup 233 subtable" LIG
AlternateSubs2: "'aalt' Access All Alternates lookup 1 subtable" LIG underscore_bar_underscore.liga numbersign_underscore.liga underscore_underscore.liga
EndChar

StartChar: grave
Encoding: 96 96 67
Width: 1260
GlyphClass: 2
Flags: W
LayerCount: 2
Fore
SplineSet
388 1502 m 1,0,-1
 482 1652 l 1,1,-1
 870 1404 l 1,2,-1
 812 1307 l 1,3,-1
 388 1502 l 1,0,-1
EndSplineSet
Substitution2: "'case' Case-Sensitive Forms lookup 13 subtable" grave.case
Substitution2: "'aalt' Access All Alternates lookup 0 subtable" grave.case
EndChar

StartChar: a
Encoding: 97 97 68
Width: 1260
GlyphClass: 2
Flags: W
AnchorPoint: "Anchor-7" 613 1106 basechar 0
AnchorPoint: "Anchor-6" 630 0 basechar 0
LayerCount: 2
Fore
SplineSet
1024 145 m 128,-1,1
 1045 114 1045 114 1093 100 c 1,2,-1
 1050 -24 l 1,3,4
 890 -3 890 -3 848 131 c 1,5,6
 789 54 789 54 699 15 c 128,-1,7
 609 -24 609 -24 501 -24 c 0,8,9
 392 -24 392 -24 311 18 c 128,-1,10
 230 60 230 60 187 137 c 128,-1,11
 144 214 144 214 144 317 c 0,12,13
 144 488 144 488 277.5 579.5 c 128,-1,14
 411 671 411 671 663 671 c 2,15,-1
 826 671 l 1,16,-1
 826 764 l 2,17,18
 826 880 826 880 758.5 931.5 c 128,-1,19
 691 983 691 983 562 983 c 0,20,21
 437 983 437 983 274 926 c 1,22,-1
 228 1060 l 1,23,24
 413 1129 413 1129 589 1129 c 0,25,26
 792 1129 792 1129 897.5 1034 c 128,-1,27
 1003 939 1003 939 1003 772 c 2,28,-1
 1003 242 l 2,29,0
 1003 176 1003 176 1024 145 c 128,-1,1
702 151.5 m 128,-1,31
 776 193 776 193 826 267 c 1,32,-1
 826 551 l 1,33,-1
 666 551 l 2,34,35
 491 551 491 551 412 491.5 c 128,-1,36
 333 432 333 432 333 319 c 0,37,38
 333 110 333 110 546 110 c 0,39,30
 628 110 628 110 702 151.5 c 128,-1,31
EndSplineSet
Substitution2: "Single Substitution lookup 184 subtable" ordfeminine
Substitution2: "'aalt' Access All Alternates lookup 0 subtable" ordfeminine
EndChar

StartChar: b
Encoding: 98 98 69
Width: 1260
GlyphClass: 2
Flags: W
AnchorPoint: "Anchor-7" 630 1551 basechar 0
AnchorPoint: "Anchor-6" 630 0 basechar 0
LayerCount: 2
Fore
SplineSet
529.5 1086 m 128,-1,1
 609 1129 609 1129 703 1129 c 0,2,3
 917 1129 917 1129 1017 977.5 c 128,-1,4
 1117 826 1117 826 1117 553 c 0,5,6
 1117 384 1117 384 1067 253.5 c 128,-1,7
 1017 123 1017 123 918 49.5 c 128,-1,8
 819 -24 819 -24 680 -24 c 0,9,10
 583 -24 583 -24 508.5 10 c 128,-1,11
 434 44 434 44 378 114 c 1,12,-1
 365 0 l 1,13,-1
 211 0 l 1,14,-1
 211 1551 l 1,15,-1
 388 1573 l 1,16,-1
 388 962 l 1,17,0
 450 1043 450 1043 529.5 1086 c 128,-1,1
851.5 227.5 m 128,-1,19
 925 336 925 336 925 555 c 0,20,21
 925 770 925 770 859 878.5 c 128,-1,22
 793 987 793 987 665 987 c 0,23,24
 580 987 580 987 509.5 936.5 c 128,-1,25
 439 886 439 886 388 810 c 1,26,-1
 388 262 l 1,27,28
 432 195 432 195 497.5 157 c 128,-1,29
 563 119 563 119 638 119 c 0,30,18
 778 119 778 119 851.5 227.5 c 128,-1,19
EndSplineSet
EndChar

StartChar: c
Encoding: 99 99 70
Width: 1260
GlyphClass: 2
Flags: W
AnchorPoint: "Anchor-7" 723 1088 basechar 0
AnchorPoint: "Anchor-6" 712 0 basechar 0
LayerCount: 2
Fore
SplineSet
999 225 m 1,1,-1
 1085 109 l 1,2,3
 1013 48 1013 48 911 12 c 128,-1,4
 809 -24 809 -24 711 -24 c 0,5,6
 548 -24 548 -24 431 46.5 c 128,-1,7
 314 117 314 117 253 246 c 128,-1,8
 192 375 192 375 192 548 c 0,9,10
 192 715 192 715 254 847 c 128,-1,11
 316 979 316 979 433.5 1054 c 128,-1,12
 551 1129 551 1129 713 1129 c 0,13,14
 924 1129 924 1129 1083 1001 c 1,15,-1
 997 883 l 1,16,17
 854 982 854 982 711 982 c 0,18,19
 613 982 613 982 539.5 933.5 c 128,-1,20
 466 885 466 885 424.5 787.5 c 128,-1,21
 383 690 383 690 383 548 c 0,22,23
 383 336 383 336 472 232 c 128,-1,24
 561 128 561 128 711 128 c 0,25,0
 859 128 859 128 999 225 c 1,1,-1
EndSplineSet
EndChar

StartChar: d
Encoding: 100 100 71
Width: 1260
GlyphClass: 2
Flags: W
AnchorPoint: "Anchor-7" 630 1551 basechar 0
AnchorPoint: "Anchor-6" 630 0 basechar 0
LayerCount: 2
Fore
SplineSet
1049 1551 m 1,0,-1
 1049 0 l 1,1,-1
 895 0 l 1,2,-1
 878 146 l 1,3,4
 817 60 817 60 737 18 c 128,-1,5
 657 -24 657 -24 564 -24 c 0,6,7
 354 -24 354 -24 248.5 130.5 c 128,-1,8
 143 285 143 285 143 551 c 0,9,10
 143 718 143 718 195 849.5 c 128,-1,11
 247 981 247 981 345 1055 c 128,-1,12
 443 1129 443 1129 577 1129 c 0,13,14
 672 1129 672 1129 744.5 1096.5 c 128,-1,15
 817 1064 817 1064 873 999 c 1,16,-1
 873 1573 l 1,17,-1
 1049 1551 l 1,0,-1
409 877.5 m 128,-1,19
 335 768 335 768 335 551 c 0,20,21
 335 337 335 337 403 228 c 128,-1,22
 471 119 471 119 601 119 c 0,23,24
 757 119 757 119 873 293 c 1,25,-1
 873 845 l 1,26,27
 828 912 828 912 763 949.5 c 128,-1,28
 698 987 698 987 623 987 c 0,29,18
 483 987 483 987 409 877.5 c 128,-1,19
EndSplineSet
EndChar

StartChar: e
Encoding: 101 101 72
Width: 1260
GlyphClass: 2
Flags: W
AnchorPoint: "Anchor-7" 652 1106 basechar 0
AnchorPoint: "Anchor-6" 630 0 basechar 0
LayerCount: 2
Fore
SplineSet
398 284.5 m 128,-1,1
 442 202 442 202 513.5 162.5 c 128,-1,2
 585 123 585 123 673 123 c 0,3,4
 755 123 755 123 824 147 c 128,-1,5
 893 171 893 171 968 223 c 1,6,-1
 1051 106 l 1,7,8
 973 45 973 45 873 10.5 c 128,-1,9
 773 -24 773 -24 671 -24 c 0,10,11
 512 -24 512 -24 398 47.5 c 128,-1,12
 284 119 284 119 224.5 249 c 128,-1,13
 165 379 165 379 165 551 c 0,14,15
 165 718 165 718 225 849.5 c 128,-1,16
 285 981 285 981 394 1055 c 128,-1,17
 503 1129 503 1129 648 1129 c 0,18,19
 787 1129 787 1129 888 1064 c 128,-1,20
 989 999 989 999 1043.5 876.5 c 128,-1,21
 1098 754 1098 754 1098 587 c 0,22,23
 1098 539 1098 539 1093 490 c 1,24,-1
 350 490 l 1,25,0
 354 367 354 367 398 284.5 c 128,-1,1
441.5 894 m 128,-1,27
 361 804 361 804 351 627 c 1,28,-1
 927 627 l 1,29,30
 924 801 924 801 850.5 892.5 c 128,-1,31
 777 984 777 984 650 984 c 0,32,26
 522 984 522 984 441.5 894 c 128,-1,27
EndSplineSet
EndChar

StartChar: f
Encoding: 102 102 73
Width: 1260
GlyphClass: 2
Flags: W
AnchorPoint: "Anchor-7" 777 1551 basechar 0
AnchorPoint: "Anchor-6" 549 0 basechar 0
LayerCount: 2
Fore
SplineSet
1022.5 1558 m 128,-1,1
 1095 1543 1095 1543 1164 1513 c 1,2,-1
 1107 1382 l 1,3,4
 1004 1428 1004 1428 870 1428 c 0,5,6
 638 1428 638 1428 638 1245 c 2,7,-1
 638 1020 l 1,8,-1
 1012 1020 l 1,9,-1
 994 881 l 1,10,-1
 638 881 l 1,11,-1
 638 0 l 1,12,-1
 461 0 l 1,13,-1
 461 881 l 1,14,-1
 197 881 l 1,15,-1
 197 1020 l 1,16,-1
 461 1020 l 1,17,-1
 461 1240 l 2,18,19
 461 1340 461 1340 513.5 1415.5 c 128,-1,20
 566 1491 566 1491 657.5 1532 c 128,-1,21
 749 1573 749 1573 864 1573 c 0,22,0
 950 1573 950 1573 1022.5 1558 c 128,-1,1
EndSplineSet
Substitution2: "Single Substitution lookup 254 subtable" LIG
Substitution2: "'aalt' Access All Alternates lookup 0 subtable" LIG
EndChar

StartChar: g
Encoding: 103 103 74
Width: 1260
GlyphClass: 2
Flags: W
AnchorPoint: "Anchor-7" 617 1106 basechar 0
AnchorPoint: "Anchor-6" 0 0 basechar 0
LayerCount: 2
Fore
SplineSet
1165 1058 m 1,0,1
 1100 1038 1100 1038 1026 1031.5 c 128,-1,2
 952 1025 952 1025 841 1025 c 1,3,4
 1033 937 1033 937 1033 747 c 0,5,6
 1033 638 1033 638 983.5 552 c 128,-1,7
 934 466 934 466 840 418.5 c 128,-1,8
 746 371 746 371 618 371 c 0,9,10
 563 371 563 371 525.5 375.5 c 128,-1,11
 488 380 488 380 453 392 c 1,12,13
 428 374 428 374 411.5 345 c 128,-1,14
 395 316 395 316 395 285 c 0,15,16
 395 242 395 242 428.5 217 c 128,-1,17
 462 192 462 192 543 192 c 2,18,-1
 743 192 l 2,19,20
 852 192 852 192 941.5 152.5 c 128,-1,21
 1031 113 1031 113 1082 44.5 c 128,-1,22
 1133 -24 1133 -24 1133 -108 c 0,23,24
 1133 -271 1133 -271 995.5 -358 c 128,-1,25
 858 -445 858 -445 605 -445 c 0,26,27
 431 -445 431 -445 328.5 -409.5 c 128,-1,28
 226 -374 226 -374 182 -301 c 128,-1,29
 138 -228 138 -228 138 -112 c 1,30,-1
 297 -112 l 1,31,32
 297 -180 297 -180 323 -221 c 128,-1,33
 349 -262 349 -262 415.5 -281.5 c 128,-1,34
 482 -301 482 -301 604 -301 c 0,35,36
 785 -301 785 -301 870 -256 c 128,-1,37
 955 -211 955 -211 955 -120 c 0,38,39
 955 -43 955 -43 885.5 -2 c 128,-1,40
 816 39 816 39 705 39 c 2,41,-1
 507 39 l 2,42,43
 416 39 416 39 353 67.5 c 128,-1,44
 290 96 290 96 259.5 143 c 128,-1,45
 229 190 229 190 229 247 c 0,46,47
 229 301 229 301 260.5 351 c 128,-1,48
 292 401 292 401 351 440 c 1,49,50
 255 490 255 490 210 565 c 128,-1,51
 165 640 165 640 165 746 c 0,52,53
 165 856 165 856 221 943.5 c 128,-1,54
 277 1031 277 1031 377.5 1080.5 c 128,-1,55
 478 1130 478 1130 606 1130 c 0,56,57
 739 1130 739 1130 826.5 1141 c 128,-1,58
 914 1152 914 1152 973 1171 c 128,-1,59
 1032 1190 1032 1190 1110 1224 c 1,60,-1
 1165 1058 l 1,0,1
411.5 931.5 m 128,-1,62
 346 862 346 862 346 746 c 0,63,64
 346 628 346 628 412.5 558 c 128,-1,65
 479 488 479 488 610 488 c 0,66,67
 726 488 726 488 788.5 556 c 128,-1,68
 851 624 851 624 851 747 c 0,69,70
 851 872 851 872 789 936.5 c 128,-1,71
 727 1001 727 1001 606 1001 c 0,72,61
 477 1001 477 1001 411.5 931.5 c 128,-1,62
EndSplineSet
EndChar

StartChar: h
Encoding: 104 104 75
Width: 1260
GlyphClass: 2
Flags: W
AnchorPoint: "Anchor-7" 630 1551 basechar 0
AnchorPoint: "Anchor-6" 630 0 basechar 0
LayerCount: 2
Fore
SplineSet
388 955 m 1,0,1
 452 1039 452 1039 546 1084 c 128,-1,2
 640 1129 640 1129 740 1129 c 0,3,4
 899 1129 899 1129 975 1045 c 128,-1,5
 1051 961 1051 961 1051 803 c 2,6,-1
 1051 0 l 1,7,-1
 875 0 l 1,8,-1
 875 799 l 2,9,10
 875 898 875 898 828.5 944 c 128,-1,11
 782 990 782 990 684 990 c 0,12,13
 597 990 597 990 517 935 c 128,-1,14
 437 880 437 880 388 806 c 1,15,-1
 388 0 l 1,16,-1
 211 0 l 1,17,-1
 211 1549 l 1,18,-1
 388 1568 l 1,19,-1
 388 955 l 1,0,1
EndSplineSet
EndChar

StartChar: i
Encoding: 105 105 76
Width: 1260
GlyphClass: 2
Flags: W
AnchorPoint: "Anchor-7" 0 0 basechar 0
AnchorPoint: "Anchor-6" 630 0 basechar 0
LayerCount: 2
Fore
SplineSet
723.5 1588.5 m 128,-1,1
 759 1553 759 1553 759 1501 c 0,2,3
 759 1446 759 1446 723.5 1410.5 c 128,-1,4
 688 1375 688 1375 630 1375 c 0,5,6
 574 1375 574 1375 538.5 1411 c 128,-1,7
 503 1447 503 1447 503 1501 c 0,8,9
 503 1554 503 1554 538.5 1589 c 128,-1,10
 574 1624 574 1624 630 1624 c 0,11,0
 688 1624 688 1624 723.5 1588.5 c 128,-1,1
771 140 m 1,12,-1
 1083 140 l 1,13,-1
 1083 0 l 1,14,-1
 253 0 l 1,15,-1
 253 140 l 1,16,-1
 594 140 l 1,17,-1
 594 966 l 1,18,-1
 264 966 l 1,19,-1
 264 1106 l 1,20,-1
 771 1106 l 1,21,-1
 771 140 l 1,12,-1
EndSplineSet
Substitution2: "Single Substitution lookup 276 subtable" i.salt_low
Substitution2: "'locl' Localized Forms in Latin lookup 22 subtable" i.loclTRK
Substitution2: "'locl' Localized Forms in Latin lookup 20 subtable" i.loclTRK
Substitution2: "'locl' Localized Forms in Latin lookup 18 subtable" i.loclTRK
Substitution2: "'locl' Localized Forms in Latin lookup 15 subtable" i.loclTRK
Substitution2: "'locl' Localized Forms in Latin lookup 14 subtable" i.loclTRK
AlternateSubs2: "'aalt' Access All Alternates lookup 1 subtable" i.loclTRK i.salt_low
EndChar

StartChar: j
Encoding: 106 106 77
Width: 1260
GlyphClass: 2
Flags: W
AnchorPoint: "Anchor-7" 772 1106 basechar 0
AnchorPoint: "Anchor-6" 0 0 basechar 0
LayerCount: 2
Fore
SplineSet
864 1588.5 m 128,-1,1
 900 1553 900 1553 900 1501 c 0,2,3
 900 1446 900 1446 864 1410.5 c 128,-1,4
 828 1375 828 1375 770 1375 c 0,5,6
 714 1375 714 1375 679 1410.5 c 128,-1,7
 644 1446 644 1446 644 1501 c 0,8,9
 644 1554 644 1554 679 1589 c 128,-1,10
 714 1624 714 1624 770 1624 c 0,11,0
 828 1624 828 1624 864 1588.5 c 128,-1,1
935 177 m 2,12,13
 935 -91 935 -91 756.5 -239.5 c 128,-1,14
 578 -388 578 -388 230 -445 c 1,15,-1
 201 -309 l 1,16,17
 469 -265 469 -265 613.5 -154.5 c 128,-1,18
 758 -44 758 -44 758 166 c 2,19,-1
 758 966 l 1,20,-1
 298 966 l 1,21,-1
 298 1106 l 1,22,-1
 935 1106 l 1,23,-1
 935 177 l 2,12,13
EndSplineSet
Substitution2: "Single Substitution lookup 276 subtable" j.salt_low
Substitution2: "'aalt' Access All Alternates lookup 0 subtable" j.salt_low
EndChar

StartChar: k
Encoding: 107 107 78
Width: 1260
GlyphClass: 2
Flags: W
AnchorPoint: "Anchor-7" 630 1551 basechar 0
AnchorPoint: "Anchor-6" 642 0 basechar 0
LayerCount: 2
Fore
SplineSet
399 0 m 1,0,-1
 223 0 l 1,1,-1
 223 1551 l 1,2,-1
 399 1573 l 1,3,-1
 399 0 l 1,0,-1
640 608 m 1,4,-1
 1195 0 l 1,5,-1
 963 0 l 1,6,-1
 419 604 l 1,7,-1
 908 1106 l 1,8,-1
 1137 1106 l 1,9,-1
 640 608 l 1,4,-1
EndSplineSet
EndChar

StartChar: l
Encoding: 108 108 79
Width: 1260
GlyphClass: 2
Flags: W
AnchorPoint: "Anchor-7" 557 1551 basechar 0
AnchorPoint: "Anchor-6" 757 0 basechar 0
LayerCount: 2
Fore
SplineSet
642 273 m 2,0,1
 642 195 642 195 690.5 159 c 128,-1,2
 739 123 739 123 824 123 c 0,3,4
 913 123 913 123 1010 162 c 1,5,-1
 1058 33 l 1,6,7
 1008 8 1008 8 940.5 -8 c 128,-1,8
 873 -24 873 -24 795 -24 c 0,9,10
 697 -24 697 -24 622 12.5 c 128,-1,11
 547 49 547 49 506 118.5 c 128,-1,12
 465 188 465 188 465 283 c 2,13,-1
 465 1412 l 1,14,-1
 126 1412 l 1,15,-1
 126 1551 l 1,16,-1
 642 1551 l 1,17,-1
 642 273 l 2,0,1
EndSplineSet
Substitution2: "Single Substitution lookup 254 subtable" f_l.liga
Substitution2: "Single Substitution lookup 242 subtable" T_l.liga
Substitution2: "Single Substitution lookup 241 subtable" F_l.liga
AlternateSubs2: "'aalt' Access All Alternates lookup 1 subtable" F_l.liga T_l.liga f_l.liga
EndChar

StartChar: m
Encoding: 109 109 80
Width: 1260
GlyphClass: 2
Flags: W
AnchorPoint: "Anchor-7" 630 1106 basechar 0
AnchorPoint: "Anchor-6" 630 0 basechar 0
LayerCount: 2
Fore
SplineSet
1094.5 1063.5 m 128,-1,1
 1154 998 1154 998 1154 823 c 2,2,-1
 1154 0 l 1,3,-1
 990 0 l 1,4,-1
 990 795 l 2,5,6
 990 874 990 874 985 913.5 c 128,-1,7
 980 953 980 953 962 972 c 128,-1,8
 944 991 944 991 905 991 c 0,9,10
 797 991 797 991 712 859 c 1,11,-1
 712 0 l 1,12,-1
 547 0 l 1,13,-1
 547 795 l 2,14,15
 547 874 547 874 542 913.5 c 128,-1,16
 537 953 537 953 519 972 c 128,-1,17
 501 991 501 991 462 991 c 0,18,19
 354 991 354 991 269 859 c 1,20,-1
 269 0 l 1,21,-1
 106 0 l 1,22,-1
 106 1106 l 1,23,-1
 245 1106 l 1,24,-1
 255 978 l 1,25,26
 305 1050 305 1050 362 1089.5 c 128,-1,27
 419 1129 419 1129 496 1129 c 0,28,29
 652 1129 652 1129 696 983 c 1,30,31
 745 1054 745 1054 802.5 1091.5 c 128,-1,32
 860 1129 860 1129 940 1129 c 0,33,0
 1035 1129 1035 1129 1094.5 1063.5 c 128,-1,1
EndSplineSet
EndChar

StartChar: n
Encoding: 110 110 81
Width: 1260
GlyphClass: 2
Flags: W
AnchorPoint: "Anchor-7" 630 1106 basechar 0
AnchorPoint: "Anchor-6" 632 0 basechar 0
LayerCount: 2
Fore
SplineSet
211 1106 m 1,0,-1
 361 1106 l 1,1,-1
 375 953 l 1,2,3
 441 1036 441 1036 541.5 1082.5 c 128,-1,4
 642 1129 642 1129 740 1129 c 0,5,6
 899 1129 899 1129 975 1045 c 128,-1,7
 1051 961 1051 961 1051 803 c 2,8,-1
 1051 0 l 1,9,-1
 875 0 l 1,10,-1
 875 673 l 2,11,12
 875 797 875 797 862 862 c 128,-1,13
 849 927 849 927 808.5 958.5 c 128,-1,14
 768 990 768 990 686 990 c 0,15,16
 597 990 597 990 517.5 935 c 128,-1,17
 438 880 438 880 388 806 c 1,18,-1
 388 0 l 1,19,-1
 211 0 l 1,20,-1
 211 1106 l 1,0,-1
EndSplineSet
EndChar

StartChar: o
Encoding: 111 111 82
Width: 1260
GlyphClass: 2
Flags: W
AnchorPoint: "Anchor-7" 630 1106 basechar 0
AnchorPoint: "Anchor-6" 630 0 basechar 0
LayerCount: 2
Fore
SplineSet
892 1059 m 128,-1,1
 998 989 998 989 1052 859.5 c 128,-1,2
 1106 730 1106 730 1106 553 c 0,3,4
 1106 382 1106 382 1051 252 c 128,-1,5
 996 122 996 122 888.5 49 c 128,-1,6
 781 -24 781 -24 630 -24 c 0,7,8
 477 -24 477 -24 370.5 47 c 128,-1,9
 264 118 264 118 209 247 c 128,-1,10
 154 376 154 376 154 551 c 0,11,12
 154 723 154 723 209.5 853.5 c 128,-1,13
 265 984 265 984 372.5 1056.5 c 128,-1,14
 480 1129 480 1129 632 1129 c 0,15,0
 786 1129 786 1129 892 1059 c 128,-1,1
415.5 878.5 m 128,-1,17
 343 772 343 772 343 551 c 0,18,19
 343 334 343 334 414.5 227.5 c 128,-1,20
 486 121 486 121 630 121 c 256,21,22
 774 121 774 121 845.5 227.5 c 128,-1,23
 917 334 917 334 917 553 c 0,24,25
 917 771 917 771 845.5 878 c 128,-1,26
 774 985 774 985 632 985 c 0,27,16
 488 985 488 985 415.5 878.5 c 128,-1,17
EndSplineSet
Substitution2: "Single Substitution lookup 184 subtable" ordmasculine
Substitution2: "'aalt' Access All Alternates lookup 0 subtable" ordmasculine
EndChar

StartChar: p
Encoding: 112 112 83
Width: 1260
GlyphClass: 2
Flags: W
AnchorPoint: "Anchor-7" 630 1106 basechar 0
AnchorPoint: "Anchor-6" 630 0 basechar 0
LayerCount: 2
Fore
SplineSet
1012 979 m 128,-1,1
 1106 829 1106 829 1106 553 c 0,2,3
 1106 382 1106 382 1058.5 252.5 c 128,-1,4
 1011 123 1011 123 915 49.5 c 128,-1,5
 819 -24 819 -24 680 -24 c 0,6,7
 497 -24 497 -24 388 104 c 1,8,-1
 388 -423 l 1,9,-1
 211 -445 l 1,10,-1
 211 1106 l 1,11,-1
 361 1106 l 1,12,-1
 376 952 l 1,13,14
 437 1038 437 1038 521.5 1083.5 c 128,-1,15
 606 1129 606 1129 706 1129 c 0,16,0
 918 1129 918 1129 1012 979 c 128,-1,1
509 936.5 m 128,-1,18
 439 886 439 886 388 810 c 1,19,-1
 388 262 l 1,20,21
 432 197 432 197 497.5 160 c 128,-1,22
 563 123 563 123 641 123 c 0,23,24
 780 123 780 123 848.5 229 c 128,-1,25
 917 335 917 335 917 555 c 0,26,27
 917 773 917 773 855 880 c 128,-1,28
 793 987 793 987 664 987 c 0,29,17
 579 987 579 987 509 936.5 c 128,-1,18
EndSplineSet
EndChar

StartChar: q
Encoding: 113 113 84
Width: 1260
GlyphClass: 2
Flags: W
AnchorPoint: "Anchor-7" 630 1106 basechar 0
AnchorPoint: "Anchor-6" 630 0 basechar 0
LayerCount: 2
Fore
SplineSet
884 985 m 1,1,-1
 899 1106 l 1,2,-1
 1049 1106 l 1,3,-1
 1049 -445 l 1,4,-1
 873 -423 l 1,5,-1
 873 140 l 1,6,7
 814 57 814 57 734 16.5 c 128,-1,8
 654 -24 654 -24 562 -24 c 0,9,10
 348 -24 348 -24 251 126 c 128,-1,11
 154 276 154 276 154 551 c 0,12,13
 154 719 154 719 203 850 c 128,-1,14
 252 981 252 981 347 1055 c 128,-1,15
 442 1129 442 1129 576 1129 c 0,16,0
 770 1129 770 1129 884 985 c 1,1,-1
343 551 m 0,18,19
 343 336 343 336 407 229.5 c 128,-1,20
 471 123 471 123 599 123 c 0,21,22
 685 123 685 123 753.5 170 c 128,-1,23
 822 217 822 217 873 293 c 1,24,-1
 873 845 l 1,25,26
 830 912 830 912 763.5 949.5 c 128,-1,27
 697 987 697 987 620 987 c 0,28,17
 343 987 343 987 343 551 c 0,18,19
EndSplineSet
EndChar

StartChar: r
Encoding: 114 114 85
Width: 1260
GlyphClass: 2
Flags: W
AnchorPoint: "Anchor-7" 694 1106 basechar 0
AnchorPoint: "Anchor-6" 482 0 basechar 0
LayerCount: 2
Fore
SplineSet
1036.5 1124.5 m 128,-1,1
 1072 1119 1072 1119 1114 1106 c 1,2,-1
 1114 830 l 1,3,-1
 1018 830 l 1,4,-1
 977 967 l 1,5,-1
 935 967 l 2,6,7
 807 967 807 967 716.5 877 c 128,-1,8
 626 787 626 787 570 604 c 1,9,-1
 570 135 l 1,10,-1
 795 135 l 1,11,-1
 795 0 l 1,12,-1
 222 0 l 1,13,-1
 222 135 l 1,14,-1
 394 135 l 1,15,-1
 394 970 l 1,16,-1
 222 970 l 1,17,-1
 222 1106 l 1,18,-1
 528 1106 l 1,19,-1
 561 844 l 1,20,21
 628 988 628 988 721 1059 c 128,-1,22
 814 1130 814 1130 958 1130 c 0,23,0
 1001 1130 1001 1130 1036.5 1124.5 c 128,-1,1
EndSplineSet
Substitution2: "'ss01' Style Set 1 lookup 173 subtable" r.ss01
Substitution2: "'salt' Stylistic Alternatives lookup 172 subtable" r.ss01
Substitution2: "'aalt' Access All Alternates lookup 0 subtable" r.ss01
EndChar

StartChar: s
Encoding: 115 115 86
Width: 1260
GlyphClass: 2
Flags: W
AnchorPoint: "Anchor-7" 646 1106 basechar 0
AnchorPoint: "Anchor-6" 623 0 basechar 0
LayerCount: 2
Fore
SplineSet
788 169 m 128,-1,1
 862 216 862 216 862 297 c 0,2,3
 862 352 862 352 842.5 387 c 128,-1,4
 823 422 823 422 766 451.5 c 128,-1,5
 709 481 709 481 594 509 c 0,6,7
 467 541 467 541 387 578 c 128,-1,8
 307 615 307 615 262 675 c 128,-1,9
 217 735 217 735 217 828 c 0,10,11
 217 919 217 919 269.5 987.5 c 128,-1,12
 322 1056 322 1056 417.5 1092.5 c 128,-1,13
 513 1129 513 1129 638 1129 c 256,14,15
 763 1129 763 1129 863 1096 c 128,-1,16
 963 1063 963 1063 1039 1007 c 1,17,-1
 961 887 l 1,18,19
 892 934 892 934 815.5 960 c 128,-1,20
 739 986 739 986 640 986 c 0,21,22
 515 986 515 986 457.5 948 c 128,-1,23
 400 910 400 910 400 841 c 0,24,25
 400 792 400 792 427 760.5 c 128,-1,26
 454 729 454 729 514 704.5 c 128,-1,27
 574 680 574 680 694 647 c 256,28,29
 814 614 814 614 890.5 574.5 c 128,-1,30
 967 535 967 535 1010 470 c 128,-1,31
 1053 405 1053 405 1053 306 c 0,32,33
 1053 194 1053 194 988 119.5 c 128,-1,34
 923 45 923 45 817.5 10.5 c 128,-1,35
 712 -24 712 -24 587 -24 c 0,36,37
 327 -24 327 -24 154 125 c 1,38,-1
 255 242 l 1,39,40
 322 185 322 185 407.5 153.5 c 128,-1,41
 493 122 493 122 587 122 c 0,42,0
 714 122 714 122 788 169 c 128,-1,1
EndSplineSet
EndChar

StartChar: t
Encoding: 116 116 87
Width: 1260
GlyphClass: 2
Flags: W
AnchorPoint: "Anchor-7" 509 1370 basechar 0
AnchorPoint: "Anchor-6" 780 0 basechar 0
LayerCount: 2
Fore
SplineSet
952 -2.5 m 128,-1,1
 871 -24 871 -24 793 -24 c 0,2,3
 676 -24 676 -24 592.5 18.5 c 128,-1,4
 509 61 509 61 465 136.5 c 128,-1,5
 421 212 421 212 421 310 c 2,6,-1
 421 969 l 1,7,-1
 167 969 l 1,8,-1
 167 1106 l 1,9,-1
 421 1106 l 1,10,-1
 421 1357 l 1,11,-1
 598 1378 l 1,12,-1
 598 1106 l 1,13,-1
 980 1106 l 1,14,-1
 959 969 l 1,15,-1
 598 969 l 1,16,-1
 598 312 l 2,17,18
 598 217 598 217 647.5 170 c 128,-1,19
 697 123 697 123 809 123 c 256,20,21
 921 123 921 123 1021 175 c 1,22,-1
 1089 56 l 1,23,0
 1033 19 1033 19 952 -2.5 c 128,-1,1
EndSplineSet
EndChar

StartChar: u
Encoding: 117 117 88
Width: 1260
GlyphClass: 2
Flags: W
AnchorPoint: "Anchor-7" 630 1106 basechar 0
AnchorPoint: "Anchor-6" 0 0 basechar 0
LayerCount: 2
Fore
SplineSet
388 322 m 2,0,1
 388 214 388 214 432.5 165.5 c 128,-1,2
 477 117 477 117 573 117 c 0,3,4
 660 117 660 117 743 167 c 128,-1,5
 826 217 826 217 873 292 c 1,6,-1
 873 1106 l 1,7,-1
 1049 1106 l 1,8,-1
 1049 0 l 1,9,-1
 899 0 l 1,10,-1
 884 149 l 1,11,12
 820 67 820 67 725 21.5 c 128,-1,13
 630 -24 630 -24 530 -24 c 0,14,15
 371 -24 371 -24 291 60.5 c 128,-1,16
 211 145 211 145 211 301 c 2,17,-1
 211 1106 l 1,18,-1
 388 1106 l 1,19,-1
 388 322 l 2,0,1
EndSplineSet
EndChar

StartChar: v
Encoding: 118 118 89
Width: 1260
GlyphClass: 2
Flags: W
AnchorPoint: "Anchor-7" 630 1106 basechar 0
AnchorPoint: "Anchor-6" 630 0 basechar 0
LayerCount: 2
Fore
SplineSet
731 0 m 1,0,-1
 526 0 l 1,1,-1
 127 1106 l 1,2,-1
 314 1106 l 1,3,-1
 634 161 l 1,4,-1
 950 1106 l 1,5,-1
 1133 1106 l 1,6,-1
 731 0 l 1,0,-1
EndSplineSet
EndChar

StartChar: w
Encoding: 119 119 90
Width: 1260
GlyphClass: 2
Flags: W
AnchorPoint: "Anchor-7" 630 1106 basechar 0
AnchorPoint: "Anchor-6" 630 0 basechar 0
LayerCount: 2
Fore
SplineSet
780 0 m 1,0,-1
 638 812 l 1,1,-1
 482 0 l 1,2,-1
 238 0 l 1,3,-1
 37 1106 l 1,4,-1
 217 1106 l 1,5,-1
 358 109 l 1,6,-1
 535 965 l 1,7,-1
 744 965 l 1,8,-1
 911 109 l 1,9,-1
 1051 1106 l 1,10,-1
 1224 1106 l 1,11,-1
 1030 0 l 1,12,-1
 780 0 l 1,0,-1
EndSplineSet
Substitution2: "Single Substitution lookup 241 subtable" LIG
Substitution2: "Single Substitution lookup 240 subtable" w_w_w.liga
AlternateSubs2: "'aalt' Access All Alternates lookup 1 subtable" w_w_w.liga LIG
EndChar

StartChar: x
Encoding: 120 120 91
Width: 1260
GlyphClass: 2
Flags: W
AnchorPoint: "Anchor-7" 630 1106 basechar 0
AnchorPoint: "Anchor-6" 630 0 basechar 0
LayerCount: 2
Fore
SplineSet
117 0 m 1,0,-1
 525 584 l 1,1,-1
 167 1106 l 1,2,-1
 376 1106 l 1,3,-1
 632 694 l 1,4,-1
 892 1106 l 1,5,-1
 1093 1106 l 1,6,-1
 736 591 l 1,7,-1
 1144 0 l 1,8,-1
 927 0 l 1,9,-1
 625 475 l 1,10,-1
 318 0 l 1,11,-1
 117 0 l 1,0,-1
EndSplineSet
Substitution2: "Single Substitution lookup 276 subtable" x.multiply
Substitution2: "'aalt' Access All Alternates lookup 0 subtable" x.multiply
EndChar

StartChar: y
Encoding: 121 121 92
Width: 1260
GlyphClass: 2
Flags: W
AnchorPoint: "Anchor-7" 630 1106 basechar 0
AnchorPoint: "Anchor-6" 0 0 basechar 0
LayerCount: 2
Fore
SplineSet
743 -7 m 2,0,1
 700 -131 700 -131 640.5 -221.5 c 128,-1,2
 581 -312 581 -312 485 -371.5 c 128,-1,3
 389 -431 389 -431 249 -444 c 1,4,-1
 222 -304 l 1,5,6
 333 -285 333 -285 399.5 -247 c 128,-1,7
 466 -209 466 -209 504 -151 c 128,-1,8
 542 -93 542 -93 574 0 c 1,9,-1
 516 0 l 1,10,-1
 129 1106 l 1,11,-1
 318 1106 l 1,12,-1
 635 134 l 1,13,-1
 948 1106 l 1,14,-1
 1131 1106 l 1,15,-1
 743 -7 l 2,0,1
EndSplineSet
EndChar

StartChar: z
Encoding: 122 122 93
Width: 1260
GlyphClass: 2
Flags: W
AnchorPoint: "Anchor-7" 652 1106 basechar 0
AnchorPoint: "Anchor-6" 630 0 basechar 0
LayerCount: 2
Fore
SplineSet
1047 150 m 1,0,-1
 1024 0 l 1,1,-1
 215 0 l 1,2,-1
 215 133 l 1,3,-1
 829 953 l 1,4,-1
 264 953 l 1,5,-1
 264 1106 l 1,6,-1
 1041 1106 l 1,7,-1
 1041 969 l 1,8,-1
 432 150 l 1,9,-1
 1047 150 l 1,0,-1
EndSplineSet
EndChar

StartChar: braceleft
Encoding: 123 123 94
Width: 1260
GlyphClass: 2
Flags: W
LayerCount: 2
Fore
SplineSet
948 1616 m 1,0,1
 826 1616 826 1616 754.5 1581.5 c 128,-1,2
 683 1547 683 1547 683 1466 c 0,3,4
 683 1454 683 1454 684 1448 c 2,5,-1
 728 1018 l 2,6,7
 731 992 731 992 731 966 c 0,8,9
 731 863 731 863 681 808 c 128,-1,10
 631 753 631 753 531 735 c 1,11,12
 633 717 633 717 682 665 c 128,-1,13
 731 613 731 613 731 509 c 0,14,15
 731 483 731 483 728 453 c 2,16,-1
 684 22 l 2,17,18
 683 16 683 16 683 4 c 0,19,20
 683 -146 683 -146 948 -146 c 1,21,-1
 948 -285 l 1,22,23
 758 -285 758 -285 639 -220 c 128,-1,24
 520 -155 520 -155 520 -1 c 0,25,26
 520 27 520 27 522 43 c 2,27,-1
 564 442 l 2,28,29
 566 457 566 457 566 484 c 0,30,31
 566 546 566 546 537.5 585 c 128,-1,32
 509 624 509 624 439.5 644.5 c 128,-1,33
 370 665 370 665 247 665 c 1,34,-1
 247 806 l 1,35,36
 370 806 370 806 439.5 825.5 c 128,-1,37
 509 845 509 845 537.5 884 c 128,-1,38
 566 923 566 923 566 984 c 0,39,40
 566 1011 566 1011 564 1026 c 2,41,-1
 522 1427 l 2,42,43
 520 1443 520 1443 520 1471 c 0,44,45
 520 1625 520 1625 639 1690 c 128,-1,46
 758 1755 758 1755 948 1755 c 1,47,-1
 948 1616 l 1,0,1
EndSplineSet
Substitution2: "Single Substitution lookup 262 subtable" numbersign_braceleft.liga
Substitution2: "Single Substitution lookup 247 subtable" LIG
Substitution2: "'case' Case-Sensitive Forms lookup 13 subtable" braceleft.case
AlternateSubs2: "'aalt' Access All Alternates lookup 1 subtable" braceleft.case LIG numbersign_braceleft.liga
EndChar

StartChar: bar
Encoding: 124 124 95
Width: 1260
GlyphClass: 2
Flags: W
LayerCount: 2
Fore
SplineSet
708 -630 m 1,0,-1
 550 -630 l 1,1,-1
 550 1890 l 1,2,-1
 708 1890 l 1,3,-1
 708 -630 l 1,0,-1
EndSplineSet
Substitution2: "Single Substitution lookup 260 subtable" less_bar.liga
Substitution2: "Single Substitution lookup 257 subtable" hyphen_bar.liga
Substitution2: "Single Substitution lookup 248 subtable" bracketleft_bar.liga
Substitution2: "Single Substitution lookup 247 subtable" braceleft_bar.liga
Substitution2: "Single Substitution lookup 246 subtable" LIG
Substitution2: "Single Substitution lookup 245 subtable" bar_bar.liga
Substitution2: "Single Substitution lookup 239 subtable" LIG
Substitution2: "Single Substitution lookup 225 subtable" less_hyphen_bar.liga
Substitution2: "Single Substitution lookup 221 subtable" less_equal_bar.liga
Substitution2: "Single Substitution lookup 220 subtable" LIG
Substitution2: "Single Substitution lookup 219 subtable" less_bar_bar.liga
Substitution2: "Single Substitution lookup 193 subtable" LIG
Substitution2: "Single Substitution lookup 192 subtable" LIG
Substitution2: "Single Substitution lookup 191 subtable" LIG
Substitution2: "Single Substitution lookup 188 subtable" LIG
Substitution2: "Single Substitution lookup 187 subtable" less_bar_bar_bar.liga
Substitution2: "Single Substitution lookup 186 subtable" LIG
AlternateSubs2: "'aalt' Access All Alternates lookup 1 subtable" LIG less_bar_bar_bar.liga less_bar_bar.liga less_equal_bar.liga less_hyphen_bar.liga bar_bar.liga braceleft_bar.liga bracketleft_bar.liga hyphen_bar.liga less_bar.liga
EndChar

StartChar: braceright
Encoding: 125 125 96
Width: 1260
GlyphClass: 2
Flags: W
LayerCount: 2
Fore
SplineSet
621 1690.5 m 128,-1,1
 740 1626 740 1626 740 1471 c 0,2,3
 740 1443 740 1443 738 1427 c 2,4,-1
 696 1026 l 2,5,6
 694 1003 694 1003 694 991 c 0,7,8
 694 898 694 898 767.5 852 c 128,-1,9
 841 806 841 806 1013 806 c 1,10,-1
 1013 665 l 1,11,12
 842 665 842 665 768 618 c 128,-1,13
 694 571 694 571 694 477 c 0,14,15
 694 465 694 465 696 442 c 2,16,-1
 738 43 l 2,17,18
 740 27 740 27 740 -1 c 0,19,20
 740 -155 740 -155 621 -220 c 128,-1,21
 502 -285 502 -285 312 -285 c 1,22,-1
 312 -146 l 1,23,24
 578 -146 578 -146 578 4 c 0,25,26
 578 16 578 16 577 22 c 2,27,-1
 532 453 l 2,28,29
 529 483 529 483 529 509 c 0,30,31
 529 615 529 615 581.5 665.5 c 128,-1,32
 634 716 634 716 752 733 c 1,33,34
 638 752 638 752 583.5 807.5 c 128,-1,35
 529 863 529 863 529 967 c 0,36,37
 529 991 529 991 532 1018 c 2,38,-1
 577 1448 l 2,39,40
 578 1454 578 1454 578 1466 c 0,41,42
 578 1547 578 1547 506 1581.5 c 128,-1,43
 434 1616 434 1616 312 1616 c 1,44,-1
 312 1755 l 1,45,0
 502 1755 502 1755 621 1690.5 c 128,-1,1
EndSplineSet
Substitution2: "Single Substitution lookup 246 subtable" bar_braceright.liga
Substitution2: "'case' Case-Sensitive Forms lookup 13 subtable" braceright.case
AlternateSubs2: "'aalt' Access All Alternates lookup 1 subtable" braceright.case bar_braceright.liga
EndChar

StartChar: asciitilde
Encoding: 126 126 97
Width: 1260
GlyphClass: 2
Flags: W
LayerCount: 2
Fore
SplineSet
531.5 824 m 128,-1,1
 577 807 577 807 609.5 781.5 c 128,-1,2
 642 756 642 756 685 717 c 0,3,4
 734 672 734 672 765.5 651.5 c 128,-1,5
 797 631 797 631 835 631 c 0,6,7
 896 631 896 631 947 679 c 128,-1,8
 998 727 998 727 1043 810 c 1,9,-1
 1169 745 l 1,10,11
 1108 627 1108 627 1030.5 553 c 128,-1,12
 953 479 953 479 829 479 c 0,13,14
 779 479 779 479 736 496 c 128,-1,15
 693 513 693 513 661 537 c 128,-1,16
 629 561 629 561 586 600 c 0,17,18
 531 647 531 647 498 668 c 128,-1,19
 465 689 465 689 425 689 c 0,20,21
 361 689 361 689 312.5 643 c 128,-1,22
 264 597 264 597 217 511 c 1,23,-1
 91 573 l 1,24,25
 130 650 130 650 172.5 707 c 128,-1,26
 215 764 215 764 279.5 802.5 c 128,-1,27
 344 841 344 841 432 841 c 0,28,0
 486 841 486 841 531.5 824 c 128,-1,1
EndSplineSet
Substitution2: "Single Substitution lookup 275 subtable" asciitilde_asciitilde.liga
Substitution2: "Single Substitution lookup 259 subtable" less_asciitilde.liga
Substitution2: "Single Substitution lookup 256 subtable" hyphen_asciitilde.liga
Substitution2: "Single Substitution lookup 244 subtable" LIG
Substitution2: "Single Substitution lookup 243 subtable" asciitilde_asciitilde.liga
Substitution2: "Single Substitution lookup 218 subtable" LIG
Substitution2: "Single Substitution lookup 217 subtable" less_asciitilde_asciitilde.liga
Substitution2: "Single Substitution lookup 190 subtable" LIG
AlternateSubs2: "'aalt' Access All Alternates lookup 1 subtable" LIG less_asciitilde_asciitilde.liga asciitilde_asciitilde.liga hyphen_asciitilde.liga less_asciitilde.liga
EndChar

StartChar: exclamdown
Encoding: 161 161 99
Width: 1260
GlyphClass: 2
Flags: W
LayerCount: 2
Fore
SplineSet
699.5 1028 m 128,-1,1
 732 1009 732 1009 751 977 c 128,-1,2
 770 945 770 945 770 906 c 0,3,4
 770 868 770 868 751 835.5 c 128,-1,5
 732 803 732 803 699.5 784.5 c 128,-1,6
 667 766 667 766 628 766 c 256,7,8
 589 766 589 766 557 784.5 c 128,-1,9
 525 803 525 803 506.5 835.5 c 128,-1,10
 488 868 488 868 488 906 c 0,11,12
 488 965 488 965 528.5 1006 c 128,-1,13
 569 1047 569 1047 628 1047 c 0,14,0
 667 1047 667 1047 699.5 1028 c 128,-1,1
731 -415 m 1,15,-1
 526 -415 l 1,16,-1
 551 547 l 1,17,-1
 704 547 l 1,18,-1
 731 -415 l 1,15,-1
EndSplineSet
Substitution2: "'case' Case-Sensitive Forms lookup 13 subtable" exclamdown.case
Substitution2: "'aalt' Access All Alternates lookup 0 subtable" exclamdown.case
EndChar

StartChar: cent
Encoding: 162 162 100
Width: 1260
GlyphClass: 2
Flags: W
LayerCount: 2
Fore
SplineSet
783 1120 m 1,0,1
 922 1105 922 1105 1038 1012 c 1,2,-1
 949 895 l 1,3,4
 883 944 883 944 826.5 963 c 128,-1,5
 770 982 770 982 707 982 c 0,6,7
 567 982 567 982 490.5 873 c 128,-1,8
 414 764 414 764 414 548 c 0,9,10
 414 333 414 333 490 230.5 c 128,-1,11
 566 128 566 128 707 128 c 0,12,13
 771 128 771 128 828 149 c 128,-1,14
 885 170 885 170 953 222 c 1,15,-1
 1038 97 l 1,16,17
 934 8 934 8 783 -14 c 1,18,-1
 783 -322 l 1,19,-1
 626 -322 l 1,20,-1
 626 -12 l 1,21,22
 430 13 430 13 326.5 160 c 128,-1,23
 223 307 223 307 223 548 c 0,24,25
 223 701 223 701 268.5 823 c 128,-1,26
 314 945 314 945 405.5 1022 c 128,-1,27
 497 1099 497 1099 628 1117 c 1,28,-1
 628 1435 l 1,29,-1
 783 1435 l 1,30,-1
 783 1120 l 1,0,1
EndSplineSet
EndChar

StartChar: sterling
Encoding: 163 163 101
Width: 1260
GlyphClass: 2
Flags: W
LayerCount: 2
Fore
SplineSet
1104 1289 m 1,1,-1
 984 1198 l 1,2,3
 931 1262 931 1262 871.5 1291.5 c 128,-1,4
 812 1321 812 1321 734 1321 c 0,5,6
 622 1321 622 1321 563.5 1256.5 c 128,-1,7
 505 1192 505 1192 505 1067 c 2,8,-1
 505 814 l 1,9,-1
 940 814 l 1,10,-1
 940 691 l 1,11,-1
 505 691 l 1,12,-1
 505 431 l 2,13,14
 505 332 505 332 478.5 262 c 128,-1,15
 452 192 452 192 376 150 c 1,16,-1
 1087 150 l 1,17,-1
 1066 0 l 1,18,-1
 156 0 l 1,19,-1
 156 143 l 1,20,21
 235 168 235 168 272.5 207.5 c 128,-1,22
 310 247 310 247 319.5 294.5 c 128,-1,23
 329 342 329 342 329 422 c 2,24,-1
 329 691 l 1,25,-1
 156 691 l 1,26,-1
 156 814 l 1,27,-1
 329 814 l 1,28,-1
 329 1083 l 2,29,30
 329 1194 329 1194 377 1282 c 128,-1,31
 425 1370 425 1370 515.5 1419.5 c 128,-1,32
 606 1469 606 1469 728 1469 c 0,33,0
 973 1470 973 1470 1104 1289 c 1,1,-1
EndSplineSet
EndChar

StartChar: currency
Encoding: 164 164 102
Width: 1260
GlyphClass: 2
Flags: W
LayerCount: 2
Fore
SplineSet
373 1091 m 1,0,1
 486 1162 486 1162 632 1163 c 0,2,3
 782 1163 782 1163 887 1091 c 1,4,-1
 1074 1278 l 1,5,-1
 1188 1165 l 1,6,-1
 1005 980 l 1,7,8
 1042 926 1042 926 1062.5 859.5 c 128,-1,9
 1083 793 1083 793 1083 718 c 0,10,11
 1083 573 1083 573 1003 453 c 1,12,-1
 1188 270 l 1,13,-1
 1074 155 l 1,14,-1
 885 341 l 1,15,16
 779 272 779 272 632 272 c 0,17,18
 482 272 482 272 373 341 c 1,19,-1
 186 154 l 1,20,-1
 72 268 l 1,21,-1
 259 455 l 1,22,23
 183 569 183 569 184 718 c 0,24,25
 184 862 184 862 257 978 c 1,26,-1
 72 1167 l 1,27,-1
 186 1280 l 1,28,-1
 373 1091 l 1,0,1
432 940 m 128,-1,30
 362 860 362 860 362 718 c 0,31,32
 362 575 362 575 431.5 496 c 128,-1,33
 501 417 501 417 632 417 c 256,34,35
 763 417 763 417 831.5 495.5 c 128,-1,36
 900 574 900 574 900 718 c 0,37,38
 900 861 900 861 831 940.5 c 128,-1,39
 762 1020 762 1020 632 1020 c 256,40,29
 502 1020 502 1020 432 940 c 128,-1,30
EndSplineSet
EndChar

StartChar: yen
Encoding: 165 165 103
Width: 1260
GlyphClass: 2
Flags: W
LayerCount: 2
Fore
SplineSet
770 726 m 1,0,-1
 1021 726 l 1,1,-1
 1021 602 l 1,2,-1
 723 602 l 1,3,-1
 723 422 l 1,4,-1
 1021 422 l 1,5,-1
 1021 299 l 1,6,-1
 723 299 l 1,7,-1
 723 0 l 1,8,-1
 537 0 l 1,9,-1
 537 299 l 1,10,-1
 243 299 l 1,11,-1
 243 422 l 1,12,-1
 537 422 l 1,13,-1
 537 602 l 1,14,-1
 243 602 l 1,15,-1
 243 726 l 1,16,-1
 487 726 l 1,17,-1
 83 1446 l 1,18,-1
 283 1446 l 1,19,-1
 632 781 l 1,20,-1
 641 781 l 1,21,-1
 990 1446 l 1,22,-1
 1177 1446 l 1,23,-1
 770 726 l 1,0,-1
EndSplineSet
EndChar

StartChar: brokenbar
Encoding: 166 166 104
Width: 1260
GlyphClass: 2
Flags: W
LayerCount: 2
Fore
SplineSet
708 948 m 1,0,-1
 550 948 l 1,1,-1
 550 1694 l 1,2,-1
 708 1694 l 1,3,-1
 708 948 l 1,0,-1
708 -213 m 1,4,-1
 550 -213 l 1,5,-1
 550 532 l 1,6,-1
 708 532 l 1,7,-1
 708 -213 l 1,4,-1
EndSplineSet
EndChar

StartChar: section
Encoding: 167 167 105
Width: 1260
GlyphClass: 2
Flags: W
LayerCount: 2
Fore
SplineSet
857 1440.5 m 128,-1,1
 941 1412 941 1412 1017 1357 c 1,2,-1
 932 1236 l 1,3,4
 866 1282 866 1282 802 1304 c 128,-1,5
 738 1326 738 1326 654 1326 c 0,6,7
 564 1326 564 1326 509 1285.5 c 128,-1,8
 454 1245 454 1245 454 1177 c 0,9,10
 454 1128 454 1128 475 1096.5 c 128,-1,11
 496 1065 496 1065 550.5 1036.5 c 128,-1,12
 605 1008 605 1008 713 971 c 0,13,14
 831 932 831 932 900 890 c 128,-1,15
 969 848 969 848 1002 790 c 128,-1,16
 1035 732 1035 732 1035 650 c 0,17,18
 1035 569 1035 569 988 501 c 128,-1,19
 941 433 941 433 866 388 c 1,20,21
 991 295 991 295 991 159 c 0,22,23
 991 67 991 67 940 -2.5 c 128,-1,24
 889 -72 889 -72 797 -109 c 128,-1,25
 705 -146 705 -146 587 -146 c 0,26,27
 378 -146 378 -146 226 -30 c 1,28,-1
 312 88 l 1,29,30
 376 42 376 42 443 20 c 128,-1,31
 510 -2 510 -2 595 -2 c 0,32,33
 686 -2 686 -2 746.5 38.5 c 128,-1,34
 807 79 807 79 807 146 c 0,35,36
 807 195 807 195 785.5 227 c 128,-1,37
 764 259 764 259 709.5 286.5 c 128,-1,38
 655 314 655 314 547 350 c 0,39,40
 428 390 428 390 358.5 433 c 128,-1,41
 289 476 289 476 256 533 c 128,-1,42
 223 590 223 590 223 673 c 0,43,44
 223 753 223 753 270.5 821.5 c 128,-1,45
 318 890 318 890 393 936 c 1,46,47
 268 1028 268 1028 268 1163 c 0,48,49
 268 1255 268 1255 321 1325 c 128,-1,50
 374 1395 374 1395 464.5 1432 c 128,-1,51
 555 1469 555 1469 665 1469 c 0,52,0
 773 1469 773 1469 857 1440.5 c 128,-1,1
426.5 787.5 m 128,-1,54
 400 740 400 740 400 695 c 0,55,56
 400 635 400 635 427 601 c 128,-1,57
 454 567 454 567 516 539 c 128,-1,58
 578 511 578 511 735 455 c 2,59,-1
 759 446 l 1,60,61
 807 486 807 486 833.5 534 c 128,-1,62
 860 582 860 582 860 628 c 0,63,64
 860 687 860 687 831.5 720.5 c 128,-1,65
 803 754 803 754 738 783 c 128,-1,66
 673 812 673 812 501 875 c 1,67,53
 453 835 453 835 426.5 787.5 c 128,-1,54
EndSplineSet
EndChar

StartChar: dieresis
Encoding: 168 168 106
Width: 1260
GlyphClass: 4
Flags: W
AnchorPoint: "Anchor-8" 630 1470 basemark 0
LayerCount: 2
Fore
SplineSet
329.5 1393.5 m 128,-1,1
 297 1425 297 1425 297 1474 c 256,2,3
 297 1523 297 1523 329.5 1555 c 128,-1,4
 362 1587 362 1587 413 1587 c 0,5,6
 460 1587 460 1587 493 1554.5 c 128,-1,7
 526 1522 526 1522 526 1474 c 0,8,9
 526 1427 526 1427 493 1394.5 c 128,-1,10
 460 1362 460 1362 413 1362 c 0,11,0
 362 1362 362 1362 329.5 1393.5 c 128,-1,1
764.5 1393.5 m 128,-1,13
 732 1425 732 1425 732 1474 c 0,14,15
 732 1522 732 1522 764.5 1554.5 c 128,-1,16
 797 1587 797 1587 845 1587 c 0,17,18
 894 1587 894 1587 927.5 1554.5 c 128,-1,19
 961 1522 961 1522 961 1474 c 256,20,21
 961 1426 961 1426 928 1394 c 128,-1,22
 895 1362 895 1362 845 1362 c 0,23,12
 797 1362 797 1362 764.5 1393.5 c 128,-1,13
EndSplineSet
Substitution2: "'case' Case-Sensitive Forms lookup 13 subtable" dieresis.case
Substitution2: "'aalt' Access All Alternates lookup 0 subtable" dieresis.case
EndChar

StartChar: copyright
Encoding: 169 169 107
Width: 1260
GlyphClass: 2
Flags: W
LayerCount: 2
Fore
SplineSet
936 1481.5 m 128,-1,1
 1064 1395 1064 1395 1131 1246.5 c 128,-1,2
 1198 1098 1198 1098 1198 915 c 256,3,4
 1198 732 1198 732 1131 583.5 c 128,-1,5
 1064 435 1064 435 936 348.5 c 128,-1,6
 808 262 808 262 632 262 c 0,7,8
 457 262 457 262 327.5 348.5 c 128,-1,9
 198 435 198 435 130 583.5 c 128,-1,10
 62 732 62 732 62 915 c 256,11,12
 62 1098 62 1098 129.5 1246.5 c 128,-1,13
 197 1395 197 1395 326.5 1481.5 c 128,-1,14
 456 1568 456 1568 632 1568 c 256,15,0
 808 1568 808 1568 936 1481.5 c 128,-1,1
383 1391 m 128,-1,17
 281 1319 281 1319 230.5 1194.5 c 128,-1,18
 180 1070 180 1070 180 915 c 256,19,20
 180 760 180 760 230.5 636.5 c 128,-1,21
 281 513 281 513 383 441 c 128,-1,22
 485 369 485 369 632 369 c 0,23,24
 778 369 778 369 880 441 c 128,-1,25
 982 513 982 513 1032.5 636 c 128,-1,26
 1083 759 1083 759 1083 915 c 0,27,28
 1083 1070 1083 1070 1032.5 1194.5 c 128,-1,29
 982 1319 982 1319 880 1391 c 128,-1,30
 778 1463 778 1463 632 1463 c 0,31,16
 485 1463 485 1463 383 1391 c 128,-1,17
772.5 1294.5 m 128,-1,33
 828 1275 828 1275 885 1232 c 1,34,-1
 811 1131 l 1,35,36
 733 1194 733 1194 646 1194 c 0,37,38
 558 1194 558 1194 503 1126 c 128,-1,39
 448 1058 448 1058 448 917 c 0,40,41
 448 783 448 783 502 714 c 128,-1,42
 556 645 556 645 646 645 c 0,43,44
 701 645 701 645 744.5 664 c 128,-1,45
 788 683 788 683 827 718 c 1,46,-1
 896 617 l 1,47,48
 784 519 784 519 642 519 c 0,49,50
 541 519 541 519 463 565 c 128,-1,51
 385 611 385 611 341.5 701 c 128,-1,52
 298 791 298 791 298 917 c 256,53,54
 298 1043 298 1043 344.5 1132.5 c 128,-1,55
 391 1222 391 1222 468.5 1268 c 128,-1,56
 546 1314 546 1314 640 1314 c 0,57,32
 717 1314 717 1314 772.5 1294.5 c 128,-1,33
EndSplineSet
EndChar

StartChar: ordfeminine
Encoding: 170 170 108
Width: 1260
GlyphClass: 2
Flags: W
LayerCount: 2
Fore
SplineSet
870.5 1496.5 m 128,-1,1
 959 1420 959 1420 959 1280 c 2,2,-1
 959 864 l 2,3,4
 959 818 959 818 975.5 794.5 c 128,-1,5
 992 771 992 771 1028 759 c 1,6,-1
 988 645 l 1,7,8
 922 653 922 653 879.5 682.5 c 128,-1,9
 837 712 837 712 815 770 c 1,10,11
 764 711 764 711 689 678.5 c 128,-1,12
 614 646 614 646 534 646 c 0,13,14
 439 646 439 646 366.5 680.5 c 128,-1,15
 294 715 294 715 254 777.5 c 128,-1,16
 214 840 214 840 214 923 c 0,17,18
 214 1062 214 1062 334.5 1136.5 c 128,-1,19
 455 1211 455 1211 670 1211 c 2,20,-1
 793 1211 l 1,21,-1
 793 1274 l 2,22,23
 793 1360 793 1360 740.5 1399 c 128,-1,24
 688 1438 688 1438 585 1438 c 0,25,26
 537 1438 537 1438 469.5 1425.5 c 128,-1,27
 402 1413 402 1413 331 1387 c 1,28,-1
 283 1510 l 1,29,30
 448 1573 448 1573 609 1573 c 0,31,0
 782 1573 782 1573 870.5 1496.5 c 128,-1,1
671 1093 m 2,32,33
 392 1093 392 1093 392 932 c 0,34,35
 392 852 392 852 439 811 c 128,-1,36
 486 770 486 770 572 770 c 0,37,38
 635 770 635 770 694 801.5 c 128,-1,39
 753 833 753 833 793 887 c 1,40,-1
 793 1093 l 1,41,-1
 671 1093 l 2,32,33
1047 0 m 1,42,-1
 222 0 l 1,43,-1
 222 159 l 1,44,-1
 1047 159 l 1,45,-1
 1047 0 l 1,42,-1
EndSplineSet
EndChar

StartChar: guillemotleft
Encoding: 171 171 109
Width: 1260
GlyphClass: 2
Flags: W
LayerCount: 2
Fore
SplineSet
542 116 m 1,0,-1
 173 551 l 1,1,-1
 173 680 l 1,2,-1
 542 1119 l 1,3,-1
 648 1050 l 1,4,-1
 364 617 l 1,5,-1
 648 184 l 1,6,-1
 542 116 l 1,0,-1
979 116 m 1,7,-1
 608 551 l 1,8,-1
 608 680 l 1,9,-1
 979 1119 l 1,10,-1
 1085 1050 l 1,11,-1
 801 617 l 1,12,-1
 1085 184 l 1,13,-1
 979 116 l 1,7,-1
EndSplineSet
Substitution2: "'case' Case-Sensitive Forms lookup 13 subtable" guillemotleft.case
Substitution2: "'aalt' Access All Alternates lookup 0 subtable" guillemotleft.case
EndChar

StartChar: logicalnot
Encoding: 172 172 110
Width: 1260
GlyphClass: 2
Flags: W
LayerCount: 2
Fore
SplineSet
1018 283 m 1,0,-1
 856 283 l 1,1,-1
 856 580 l 1,2,-1
 243 580 l 1,3,-1
 243 730 l 1,4,-1
 1018 730 l 1,5,-1
 1018 283 l 1,0,-1
EndSplineSet
EndChar

StartChar: uni00AD
Encoding: 173 173 111
Width: 1260
GlyphClass: 2
Flags: W
LayerCount: 2
Fore
SplineSet
302 734 m 1,0,-1
 958 734 l 1,1,-1
 958 581 l 1,2,-1
 302 581 l 1,3,-1
 302 734 l 1,0,-1
EndSplineSet
Substitution2: "'case' Case-Sensitive Forms lookup 13 subtable" uni00AD.case
Substitution2: "'aalt' Access All Alternates lookup 0 subtable" uni00AD.case
EndChar

StartChar: registered
Encoding: 174 174 112
Width: 1260
GlyphClass: 2
Flags: W
LayerCount: 2
Fore
SplineSet
897 1496 m 128,-1,1
 1019 1424 1019 1424 1090 1301 c 128,-1,2
 1161 1178 1161 1178 1161 1032 c 0,3,4
 1161 887 1161 887 1090 765.5 c 128,-1,5
 1019 644 1019 644 897 573 c 128,-1,6
 775 502 775 502 630 502 c 256,7,8
 485 502 485 502 363 573 c 128,-1,9
 241 644 241 644 169.5 765.5 c 128,-1,10
 98 887 98 887 98 1032 c 0,11,12
 98 1178 98 1178 169.5 1301 c 128,-1,13
 241 1424 241 1424 363 1496 c 128,-1,14
 485 1568 485 1568 630 1568 c 256,15,0
 775 1568 775 1568 897 1496 c 128,-1,1
414.5 1411 m 128,-1,17
 318 1353 318 1353 262.5 1252.5 c 128,-1,18
 207 1152 207 1152 207 1032 c 0,19,20
 207 913 207 913 262.5 814 c 128,-1,21
 318 715 318 715 414.5 657.5 c 128,-1,22
 511 600 511 600 630 600 c 256,23,24
 749 600 749 600 845 657.5 c 128,-1,25
 941 715 941 715 996 814.5 c 128,-1,26
 1051 914 1051 914 1051 1032 c 0,27,28
 1051 1152 1051 1152 996 1252.5 c 128,-1,29
 941 1353 941 1353 845 1411 c 128,-1,30
 749 1469 749 1469 630 1469 c 256,31,16
 511 1469 511 1469 414.5 1411 c 128,-1,17
858 1158 m 0,33,34
 858 1094 858 1094 819.5 1052 c 128,-1,35
 781 1010 781 1010 717 992 c 1,36,-1
 898 745 l 1,37,-1
 759 745 l 1,38,-1
 600 973 l 1,39,-1
 541 973 l 1,40,-1
 541 745 l 1,41,-1
 421 745 l 1,42,-1
 421 1336 l 1,43,-1
 600 1336 l 2,44,32
 858 1335 858 1335 858 1158 c 0,33,34
541 1245 m 1,45,-1
 541 1064 l 1,46,-1
 607 1064 l 2,47,48
 670 1064 670 1064 702.5 1086 c 128,-1,49
 735 1108 735 1108 735 1158 c 0,50,51
 735 1244 735 1244 603 1245 c 2,52,-1
 541 1245 l 1,45,-1
EndSplineSet
EndChar

StartChar: macron
Encoding: 175 175 113
Width: 1260
GlyphClass: 2
Flags: W
LayerCount: 2
Fore
SplineSet
347 1420 m 1,0,-1
 347 1554 l 1,1,-1
 912 1554 l 1,2,-1
 912 1420 l 1,3,-1
 347 1420 l 1,0,-1
EndSplineSet
Substitution2: "'case' Case-Sensitive Forms lookup 13 subtable" macron.case
Substitution2: "'aalt' Access All Alternates lookup 0 subtable" macron.case
EndChar

StartChar: degree
Encoding: 176 176 114
Width: 1260
GlyphClass: 2
Flags: W
LayerCount: 2
Fore
SplineSet
646.5 1534 m 128,-1,1
 725 1495 725 1495 772 1420 c 128,-1,2
 819 1345 819 1345 819 1245 c 0,3,4
 819 1143 819 1143 772 1068.5 c 128,-1,5
 725 994 725 994 646.5 954.5 c 128,-1,6
 568 915 568 915 478 915 c 0,7,8
 390 915 390 915 311.5 954.5 c 128,-1,9
 233 994 233 994 185.5 1069.5 c 128,-1,10
 138 1145 138 1145 138 1247 c 0,11,12
 138 1347 138 1347 185.5 1421 c 128,-1,13
 233 1495 233 1495 311.5 1534 c 128,-1,14
 390 1573 390 1573 478 1573 c 0,15,0
 568 1573 568 1573 646.5 1534 c 128,-1,1
386 1426 m 128,-1,17
 343 1404 343 1404 317 1358.5 c 128,-1,18
 291 1313 291 1313 291 1247 c 0,19,20
 291 1180 291 1180 317 1133.5 c 128,-1,21
 343 1087 343 1087 386 1064 c 128,-1,22
 429 1041 429 1041 478 1041 c 0,23,24
 528 1041 528 1041 570.5 1063.5 c 128,-1,25
 613 1086 613 1086 639 1132 c 128,-1,26
 665 1178 665 1178 665 1245 c 0,27,28
 665 1311 665 1311 639 1357 c 128,-1,29
 613 1403 613 1403 570.5 1425.5 c 128,-1,30
 528 1448 528 1448 478 1448 c 0,31,16
 429 1448 429 1448 386 1426 c 128,-1,17
EndSplineSet
EndChar

StartChar: plusminus
Encoding: 177 177 115
Width: 1260
GlyphClass: 2
Flags: W
LayerCount: 2
Fore
SplineSet
715 816 m 1,0,-1
 1018 816 l 1,1,-1
 1018 668 l 1,2,-1
 715 668 l 1,3,-1
 715 341 l 1,4,-1
 545 341 l 1,5,-1
 545 668 l 1,6,-1
 243 668 l 1,7,-1
 243 816 l 1,8,-1
 545 816 l 1,9,-1
 545 1129 l 1,10,-1
 715 1129 l 1,11,-1
 715 816 l 1,0,-1
1018 0 m 1,12,-1
 243 0 l 1,13,-1
 243 153 l 1,14,-1
 1018 153 l 1,15,-1
 1018 0 l 1,12,-1
EndSplineSet
EndChar

StartChar: acute
Encoding: 180 180 118
Width: 1260
GlyphClass: 2
Flags: W
LayerCount: 2
Fore
SplineSet
887 1523 m 1,0,-1
 448 1344 l 1,1,-1
 394 1439 l 1,2,-1
 806 1674 l 1,3,-1
 887 1523 l 1,0,-1
EndSplineSet
Substitution2: "'locl' Localized Forms in Latin lookup 19 subtable" acute.loclPLK
Substitution2: "'case' Case-Sensitive Forms lookup 13 subtable" acute.case
AlternateSubs2: "'aalt' Access All Alternates lookup 1 subtable" acute.case acute.loclPLK
EndChar

StartChar: uni00B5
Encoding: 181 181 119
Width: 1260
GlyphClass: 2
Flags: W
LayerCount: 2
Fore
SplineSet
1016 352 m 2,0,1
 1016 181 1016 181 1074 0 c 1,2,-1
 907 -24 l 1,3,4
 891 2 891 2 876.5 56 c 128,-1,5
 862 110 862 110 857 153 c 1,6,7
 808 72 808 72 726 24 c 128,-1,8
 644 -24 644 -24 561 -24 c 256,9,10
 478 -24 478 -24 431 -1 c 128,-1,11
 384 22 384 22 343 81 c 1,12,13
 362 -53 362 -53 362 -102 c 2,14,-1
 362 -423 l 1,15,-1
 186 -445 l 1,16,-1
 186 1106 l 1,17,-1
 362 1106 l 1,18,-1
 362 486 l 2,19,20
 362 360 362 360 375 286.5 c 128,-1,21
 388 213 388 213 427.5 172 c 128,-1,22
 467 131 467 131 548 131 c 0,23,24
 640 131 640 131 713 178 c 128,-1,25
 786 225 786 225 839 299 c 1,26,-1
 839 1106 l 1,27,-1
 1016 1106 l 1,28,-1
 1016 352 l 2,0,1
EndSplineSet
EndChar

StartChar: paragraph
Encoding: 182 182 120
Width: 1260
GlyphClass: 2
Flags: W
LayerCount: 2
Fore
SplineSet
1169 -422 m 1,0,-1
 1007 -445 l 1,1,-1
 1007 1299 l 1,2,-1
 771 1299 l 1,3,-1
 771 -422 l 1,4,-1
 609 -445 l 1,5,-1
 609 606 l 1,6,7
 442 607 442 607 325 662 c 128,-1,8
 208 717 208 717 148.5 811 c 128,-1,9
 89 905 89 905 89 1023 c 0,10,11
 89 1144 89 1144 150.5 1239.5 c 128,-1,12
 212 1335 212 1335 332.5 1390.5 c 128,-1,13
 453 1446 453 1446 623 1446 c 2,14,-1
 1169 1446 l 1,15,-1
 1169 -422 l 1,0,-1
EndSplineSet
EndChar

StartChar: cedilla
Encoding: 184 184 122
Width: 1260
GlyphClass: 2
Flags: W
LayerCount: 2
Fore
SplineSet
670.5 -223.5 m 128,-1,1
 626 -205 626 -205 532 -205 c 1,2,-1
 551 34 l 1,3,-1
 672 34 l 1,4,-1
 672 -120 l 1,5,6
 770 -128 770 -128 818 -177.5 c 128,-1,7
 866 -227 866 -227 866 -295 c 0,8,9
 866 -361 866 -361 831.5 -407.5 c 128,-1,10
 797 -454 797 -454 738.5 -477.5 c 128,-1,11
 680 -501 680 -501 610 -501 c 0,12,13
 548 -501 548 -501 490.5 -487.5 c 128,-1,14
 433 -474 433 -474 391 -450 c 1,15,-1
 447 -348 l 1,16,17
 476 -364 476 -364 515.5 -372.5 c 128,-1,18
 555 -381 555 -381 589 -381 c 0,19,20
 715 -381 715 -381 715 -295 c 0,21,0
 715 -242 715 -242 670.5 -223.5 c 128,-1,1
EndSplineSet
Substitution2: "'case' Case-Sensitive Forms lookup 13 subtable" cedilla.case
Substitution2: "'aalt' Access All Alternates lookup 0 subtable" cedilla.case
EndChar

StartChar: ordmasculine
Encoding: 186 186 124
Width: 1260
GlyphClass: 2
Flags: W
LayerCount: 2
Fore
SplineSet
856 1516.5 m 128,-1,1
 953 1460 953 1460 1005 1355 c 128,-1,2
 1057 1250 1057 1250 1057 1110 c 0,3,4
 1057 973 1057 973 1004.5 868.5 c 128,-1,5
 952 764 952 764 855 705 c 128,-1,6
 758 646 758 646 630 646 c 0,7,8
 501 646 501 646 404 703 c 128,-1,9
 307 760 307 760 254.5 865.5 c 128,-1,10
 202 971 202 971 202 1110 c 0,11,12
 202 1245 202 1245 255 1350.5 c 128,-1,13
 308 1456 308 1456 405 1514.5 c 128,-1,14
 502 1573 502 1573 630 1573 c 0,15,0
 759 1573 759 1573 856 1516.5 c 128,-1,1
444 1356 m 128,-1,17
 378 1274 378 1274 378 1110 c 0,18,19
 378 945 378 945 444 862.5 c 128,-1,20
 510 780 510 780 630 780 c 0,21,22
 749 780 749 780 814.5 862.5 c 128,-1,23
 880 945 880 945 880 1110 c 256,24,25
 880 1275 880 1275 814.5 1356.5 c 128,-1,26
 749 1438 749 1438 630 1438 c 0,27,16
 510 1438 510 1438 444 1356 c 128,-1,17
1044 0 m 1,28,-1
 220 0 l 1,29,-1
 220 159 l 1,30,-1
 1044 159 l 1,31,-1
 1044 0 l 1,28,-1
EndSplineSet
EndChar

StartChar: guillemotright
Encoding: 187 187 125
Width: 1260
GlyphClass: 2
Flags: W
LayerCount: 2
Fore
SplineSet
173 1050 m 1,0,-1
 279 1119 l 1,1,-1
 648 680 l 1,2,-1
 648 551 l 1,3,-1
 279 116 l 1,4,-1
 173 184 l 1,5,-1
 457 617 l 1,6,-1
 173 1050 l 1,0,-1
608 1050 m 1,7,-1
 714 1119 l 1,8,-1
 1085 680 l 1,9,-1
 1085 551 l 1,10,-1
 714 116 l 1,11,-1
 608 184 l 1,12,-1
 892 617 l 1,13,-1
 608 1050 l 1,7,-1
EndSplineSet
Substitution2: "'case' Case-Sensitive Forms lookup 13 subtable" guillemotright.case
Substitution2: "'aalt' Access All Alternates lookup 0 subtable" guillemotright.case
EndChar

StartChar: onequarter
Encoding: 188 188 126
Width: 1260
GlyphClass: 2
Flags: W
LayerCount: 2
Fore
SplineSet
273 1275 m 1,0,-1
 71 1165 l 1,1,-1
 -2 1270 l 1,2,-1
 301 1447 l 1,3,-1
 421 1447 l 1,4,-1
 421 773 l 1,5,-1
 273 773 l 1,6,-1
 273 1275 l 1,0,-1
29 499 m 1,7,-1
 1153 1037 l 1,8,-1
 1216 924 l 1,9,-1
 95 386 l 1,10,-1
 29 499 l 1,7,-1
1147 0 m 1,11,-1
 995 0 l 1,12,-1
 995 118 l 1,13,-1
 620 118 l 1,14,-1
 620 218 l 1,15,-1
 904 695 l 1,16,-1
 1033 642 l 1,17,-1
 792 243 l 1,18,-1
 994 243 l 1,19,-1
 1007 422 l 1,20,-1
 1147 422 l 1,21,-1
 1147 243 l 1,22,-1
 1263 243 l 1,23,-1
 1263 118 l 1,24,-1
 1147 118 l 1,25,-1
 1147 0 l 1,11,-1
EndSplineSet
EndChar

StartChar: onehalf
Encoding: 189 189 127
Width: 1260
GlyphClass: 2
Flags: W
LayerCount: 2
Fore
SplineSet
267 1275 m 1,0,-1
 65 1165 l 1,1,-1
 -8 1270 l 1,2,-1
 295 1447 l 1,3,-1
 415 1447 l 1,4,-1
 415 773 l 1,5,-1
 267 773 l 1,6,-1
 267 1275 l 1,0,-1
21 499 m 1,7,-1
 1145 1037 l 1,8,-1
 1208 924 l 1,9,-1
 86 386 l 1,10,-1
 21 499 l 1,7,-1
1216.5 346.5 m 128,-1,12
 1183 296 1183 296 1109 246.5 c 128,-1,13
 1035 197 1035 197 895 127 c 1,14,-1
 1270 127 l 1,15,-1
 1252 0 l 1,16,-1
 670 0 l 1,17,-1
 670 110 l 1,18,19
 866 230 866 230 943.5 281 c 128,-1,20
 1021 332 1021 332 1055 372 c 128,-1,21
 1089 412 1089 412 1089 458 c 0,22,23
 1089 505 1089 505 1056 532.5 c 128,-1,24
 1023 560 1023 560 965 560 c 0,25,26
 848 560 848 560 766 458 c 1,27,-1
 659 539 l 1,28,29
 722 611 722 611 801.5 649 c 128,-1,30
 881 687 881 687 970 687 c 0,31,32
 1057 687 1057 687 1120.5 659 c 128,-1,33
 1184 631 1184 631 1217 580 c 128,-1,34
 1250 529 1250 529 1250 463 c 256,35,11
 1250 397 1250 397 1216.5 346.5 c 128,-1,12
EndSplineSet
EndChar

StartChar: threequarters
Encoding: 190 190 128
Width: 1260
GlyphClass: 2
Flags: W
LayerCount: 2
Fore
SplineSet
532 1409.5 m 128,-1,1
 605 1359 605 1359 605 1273 c 0,2,3
 605 1215 605 1215 570.5 1180.5 c 128,-1,4
 536 1146 536 1146 455 1133 c 1,5,6
 548 1118 548 1118 591 1082 c 128,-1,7
 634 1046 634 1046 634 973 c 0,8,9
 634 910 634 910 596 862 c 128,-1,10
 558 814 558 814 485 787 c 128,-1,11
 412 760 412 760 311 760 c 0,12,13
 221 760 221 760 138.5 789.5 c 128,-1,14
 56 819 56 819 -5 883 c 1,15,-1
 91 963 l 1,16,17
 138 921 138 921 196 900 c 128,-1,18
 254 879 254 879 316 879 c 0,19,20
 395 879 395 879 435.5 905.5 c 128,-1,21
 476 932 476 932 476 977 c 0,22,23
 476 1030 476 1030 439 1052.5 c 128,-1,24
 402 1075 402 1075 327 1075 c 2,25,-1
 229 1075 l 1,26,-1
 245 1165 l 1,27,-1
 316 1165 l 2,28,29
 450 1165 450 1165 451 1251 c 0,30,31
 451 1343 451 1343 321 1343 c 0,32,33
 204 1343 204 1343 101 1263 c 1,34,-1
 20 1351 l 1,35,36
 152 1460 152 1460 332 1460 c 0,37,0
 459 1460 459 1460 532 1409.5 c 128,-1,1
48 499 m 1,38,-1
 1172 1037 l 1,39,-1
 1236 924 l 1,40,-1
 114 386 l 1,41,-1
 48 499 l 1,38,-1
1149 0 m 1,42,-1
 997 0 l 1,43,-1
 997 118 l 1,44,-1
 622 118 l 1,45,-1
 622 218 l 1,46,-1
 906 695 l 1,47,-1
 1036 642 l 1,48,-1
 795 243 l 1,49,-1
 997 243 l 1,50,-1
 1009 422 l 1,51,-1
 1149 422 l 1,52,-1
 1149 243 l 1,53,-1
 1266 243 l 1,54,-1
 1266 118 l 1,55,-1
 1149 118 l 1,56,-1
 1149 0 l 1,42,-1
EndSplineSet
EndChar

StartChar: questiondown
Encoding: 191 191 129
Width: 1260
GlyphClass: 2
Flags: W
LayerCount: 2
Fore
SplineSet
751.5 1028 m 128,-1,1
 785 1009 785 1009 803.5 977 c 128,-1,2
 822 945 822 945 822 906 c 0,3,4
 822 868 822 868 803.5 835.5 c 128,-1,5
 785 803 785 803 751.5 784.5 c 128,-1,6
 718 766 718 766 680 766 c 0,7,8
 641 766 641 766 609.5 784.5 c 128,-1,9
 578 803 578 803 559.5 835.5 c 128,-1,10
 541 868 541 868 541 906 c 0,11,12
 541 965 541 965 581 1006 c 128,-1,13
 621 1047 621 1047 680 1047 c 0,14,0
 718 1047 718 1047 751.5 1028 c 128,-1,1
776 460 m 2,15,16
 776 374 776 374 746 310.5 c 128,-1,17
 716 247 716 247 673.5 205 c 128,-1,18
 631 163 631 163 563 111 c 0,19,20
 508 69 508 69 477 40.5 c 128,-1,21
 446 12 446 12 425 -27 c 128,-1,22
 404 -66 404 -66 404 -114 c 0,23,24
 404 -201 404 -201 473.5 -251 c 128,-1,25
 543 -301 543 -301 652 -301 c 0,26,27
 731 -301 731 -301 808.5 -263.5 c 128,-1,28
 886 -226 886 -226 949 -149 c 1,29,-1
 1075 -242 l 1,30,31
 898 -450 898 -450 634 -450 c 0,32,33
 510 -450 510 -450 416 -404 c 128,-1,34
 322 -358 322 -358 271.5 -283.5 c 128,-1,35
 221 -209 221 -209 221 -125 c 0,36,37
 221 -44 221 -44 248 14 c 128,-1,38
 275 72 275 72 314.5 110 c 128,-1,39
 354 148 354 148 419 197 c 0,40,41
 480 242 480 242 515 276 c 128,-1,42
 550 310 550 310 574.5 358.5 c 128,-1,43
 599 407 599 407 599 474 c 2,44,-1
 599 547 l 1,45,-1
 776 547 l 1,46,-1
 776 460 l 2,15,16
EndSplineSet
Substitution2: "'case' Case-Sensitive Forms lookup 13 subtable" questiondown.case
Substitution2: "'aalt' Access All Alternates lookup 0 subtable" questiondown.case
EndChar

StartChar: AE
Encoding: 198 198 136
Width: 1260
GlyphClass: 2
Flags: W
AnchorPoint: "Anchor-7" 759 1446 basechar 0
AnchorPoint: "Anchor-6" 630 0 basechar 0
LayerCount: 2
Fore
SplineSet
265 369 m 1,0,-1
 161 0 l 1,1,-1
 -25 0 l 1,2,-1
 399 1446 l 1,3,-1
 1189 1446 l 1,4,-1
 1167 1298 l 1,5,-1
 672 1298 l 1,6,-1
 779 808 l 1,7,-1
 1170 808 l 1,8,-1
 1170 660 l 1,9,-1
 808 660 l 1,10,-1
 916 148 l 1,11,-1
 1276 148 l 1,12,-1
 1276 0 l 1,13,-1
 769 0 l 1,14,-1
 692 369 l 1,15,-1
 265 369 l 1,0,-1
660 522 m 1,16,-1
 505 1302 l 1,17,-1
 312 522 l 1,18,-1
 660 522 l 1,16,-1
EndSplineSet
EndChar

StartChar: Ccedilla
Encoding: 199 199 137
Width: 1260
GlyphClass: 2
Flags: W
AnchorPoint: "Anchor-7" 0 0 basechar 0
AnchorPoint: "Anchor-6" 734 0 basechar 0
LayerCount: 2
Fore
SplineSet
922.5 -177.5 m 128,-1,1
 971 -227 971 -227 971 -295 c 0,2,3
 971 -361 971 -361 936 -407.5 c 128,-1,4
 901 -454 901 -454 842 -477.5 c 128,-1,5
 783 -501 783 -501 714 -501 c 0,6,7
 652 -501 652 -501 594.5 -487.5 c 128,-1,8
 537 -474 537 -474 496 -450 c 1,9,-1
 552 -348 l 1,10,11
 580 -364 580 -364 619.5 -372.5 c 128,-1,12
 659 -381 659 -381 694 -381 c 0,13,14
 819 -381 819 -381 819 -295 c 0,15,16
 819 -241 819 -241 774.5 -223 c 128,-1,17
 730 -205 730 -205 638 -205 c 1,18,-1
 651 -16 l 1,19,20
 500 8 500 8 383 101.5 c 128,-1,21
 266 195 266 195 199.5 353 c 128,-1,22
 133 511 133 511 133 724 c 0,23,24
 133 959 133 959 216 1127.5 c 128,-1,25
 299 1296 299 1296 440 1382.5 c 128,-1,26
 581 1469 581 1469 752 1469 c 0,27,28
 889 1469 889 1469 985 1435 c 128,-1,29
 1081 1401 1081 1401 1171 1329 c 1,30,-1
 1069 1210 l 1,31,32
 941 1317 941 1317 766 1317 c 0,33,34
 640 1317 640 1317 540.5 1258 c 128,-1,35
 441 1199 441 1199 381.5 1067 c 128,-1,36
 322 935 322 935 322 724 c 0,37,38
 322 517 322 517 379 384.5 c 128,-1,39
 436 252 436 252 534 192 c 128,-1,40
 632 132 632 132 761 132 c 0,41,42
 871 132 871 132 950 164.5 c 128,-1,43
 1029 197 1029 197 1098 253 c 1,44,-1
 1192 133 l 1,45,46
 1121 64 1121 64 1018 21.5 c 128,-1,47
 915 -21 915 -21 776 -24 c 1,48,-1
 776 -120 l 1,49,0
 874 -128 874 -128 922.5 -177.5 c 128,-1,1
EndSplineSet
EndChar

StartChar: Eth
Encoding: 208 208 146
Width: 1260
GlyphClass: 2
Flags: W
AnchorPoint: "Anchor-7" 615 1446 basechar 0
AnchorPoint: "Anchor-6" 650 0 basechar 0
LayerCount: 2
Fore
SplineSet
845.5 1388 m 128,-1,1
 994 1330 994 1330 1087 1171 c 128,-1,2
 1180 1012 1180 1012 1180 730 c 0,3,4
 1180 319 1180 319 991.5 159.5 c 128,-1,5
 803 0 803 0 527 0 c 2,6,-1
 195 0 l 1,7,-1
 195 671 l 1,8,-1
 43 671 l 1,9,-1
 43 812 l 1,10,-1
 195 812 l 1,11,-1
 195 1446 l 1,12,-1
 504 1446 l 2,13,0
 697 1446 697 1446 845.5 1388 c 128,-1,1
861.5 274.5 m 128,-1,15
 986 403 986 403 986 730 c 0,16,17
 986 965 986 965 922 1090 c 128,-1,18
 858 1215 858 1215 763 1256 c 128,-1,19
 668 1297 668 1297 547 1297 c 2,20,-1
 377 1297 l 1,21,-1
 377 812 l 1,22,-1
 709 812 l 1,23,-1
 709 671 l 1,24,-1
 377 671 l 1,25,-1
 377 146 l 1,26,-1
 549 146 l 2,27,14
 737 146 737 146 861.5 274.5 c 128,-1,15
EndSplineSet
EndChar

StartChar: multiply
Encoding: 215 215 153
Width: 1260
GlyphClass: 2
Flags: W
LayerCount: 2
Fore
SplineSet
998 902 m 1,0,-1
 740 645 l 1,1,-1
 998 388 l 1,2,-1
 887 277 l 1,3,-1
 630 535 l 1,4,-1
 373 277 l 1,5,-1
 263 388 l 1,6,-1
 520 645 l 1,7,-1
 263 902 l 1,8,-1
 373 1016 l 1,9,-1
 630 755 l 1,10,-1
 887 1016 l 1,11,-1
 998 902 l 1,0,-1
EndSplineSet
EndChar

StartChar: Oslash
Encoding: 216 216 154
Width: 1260
GlyphClass: 2
Flags: W
AnchorPoint: "Anchor-7" 630 1446 basechar 0
AnchorPoint: "Anchor-6" 630 0 basechar 0
LayerCount: 2
Fore
SplineSet
1099 1125 m 128,-1,1
 1163 954 1163 954 1163 722 c 0,2,3
 1163 499 1163 499 1102.5 331 c 128,-1,4
 1042 163 1042 163 922 69.5 c 128,-1,5
 802 -24 802 -24 630 -24 c 0,6,7
 560 -24 560 -24 498 -8 c 1,8,-1
 430 -231 l 1,9,-1
 272 -190 l 1,10,-1
 351 59 l 1,11,12
 227 146 227 146 162.5 316.5 c 128,-1,13
 98 487 98 487 98 719 c 0,14,15
 98 942 98 942 158 1111 c 128,-1,16
 218 1280 218 1280 338 1374.5 c 128,-1,17
 458 1469 458 1469 630 1469 c 0,18,19
 705 1469 705 1469 766 1453 c 1,20,-1
 833 1687 l 1,21,-1
 991 1646 l 1,22,-1
 911 1385 l 1,23,0
 1035 1296 1035 1296 1099 1125 c 128,-1,1
320.5 395 m 128,-1,25
 351 270 351 270 415 206 c 1,26,-1
 733 1303 l 1,27,28
 686 1316 686 1316 630 1316 c 0,29,30
 453 1316 453 1316 371.5 1166 c 128,-1,31
 290 1016 290 1016 290 719 c 0,32,24
 290 520 290 520 320.5 395 c 128,-1,25
889 278 m 128,-1,34
 970 426 970 426 970 722 c 0,35,36
 970 926 970 926 940 1052 c 128,-1,37
 910 1178 910 1178 844 1241 c 1,38,-1
 527 143 l 1,39,40
 574 130 574 130 630 130 c 0,41,33
 808 130 808 130 889 278 c 128,-1,34
EndSplineSet
EndChar

StartChar: Thorn
Encoding: 222 222 160
Width: 1260
GlyphClass: 2
Flags: W
AnchorPoint: "Anchor-7" 630 1446 basechar 0
AnchorPoint: "Anchor-6" 630 0 basechar 0
LayerCount: 2
Fore
SplineSet
406 1201 m 1,0,-1
 614 1201 l 2,1,2
 881 1201 881 1201 1024 1088 c 128,-1,3
 1167 975 1167 975 1167 746 c 0,4,5
 1167 503 1167 503 1018.5 386.5 c 128,-1,6
 870 270 870 270 613 270 c 2,7,-1
 406 270 l 1,8,-1
 406 0 l 1,9,-1
 226 0 l 1,10,-1
 226 1446 l 1,11,-1
 406 1446 l 1,12,-1
 406 1201 l 1,0,-1
406 1058 m 1,13,-1
 406 416 l 1,14,-1
 638 416 l 2,15,16
 800 416 800 416 888 489.5 c 128,-1,17
 976 563 976 563 976 741 c 0,18,19
 976 904 976 904 886 981 c 128,-1,20
 796 1058 796 1058 636 1058 c 2,21,-1
 406 1058 l 1,13,-1
EndSplineSet
EndChar

StartChar: germandbls
Encoding: 223 223 161
Width: 1260
GlyphClass: 2
Flags: W
LayerCount: 2
Fore
SplineSet
813 1535 m 128,-1,1
 896 1497 896 1497 942 1428.5 c 128,-1,2
 988 1360 988 1360 988 1272 c 0,3,4
 988 1218 988 1218 968.5 1176.5 c 128,-1,5
 949 1135 949 1135 921 1106.5 c 128,-1,6
 893 1078 893 1078 849 1041 c 0,7,8
 798 997 798 997 774 968 c 128,-1,9
 750 939 750 939 750 900 c 0,10,11
 750 864 750 864 770.5 835 c 128,-1,12
 791 806 791 806 822 782 c 128,-1,13
 853 758 853 758 910 723 c 0,14,15
 992 670 992 670 1044 627 c 128,-1,16
 1096 584 1096 584 1134 515 c 128,-1,17
 1172 446 1172 446 1172 351 c 0,18,19
 1172 233 1172 233 1119 148 c 128,-1,20
 1066 63 1066 63 976.5 19.5 c 128,-1,21
 887 -24 887 -24 780 -24 c 0,22,23
 621 -24 621 -24 509 48 c 1,24,-1
 581 169 l 1,25,26
 621 146 621 146 669.5 132.5 c 128,-1,27
 718 119 718 119 764 119 c 0,28,29
 873 119 873 119 932.5 175 c 128,-1,30
 992 231 992 231 992 341 c 0,31,32
 992 403 992 403 964.5 450.5 c 128,-1,33
 937 498 937 498 895.5 530.5 c 128,-1,34
 854 563 854 563 786 607 c 0,35,36
 717 651 717 651 674.5 684 c 128,-1,37
 632 717 632 717 604 765.5 c 128,-1,38
 576 814 576 814 576 879 c 0,39,40
 576 928 576 928 594 966.5 c 128,-1,41
 612 1005 612 1005 639 1031.5 c 128,-1,42
 666 1058 666 1058 710 1093 c 0,43,44
 766 1137 766 1137 793 1171.5 c 128,-1,45
 820 1206 820 1206 820 1254 c 0,46,47
 820 1297 820 1297 800.5 1337.5 c 128,-1,48
 781 1378 781 1378 737 1404.5 c 128,-1,49
 693 1431 693 1431 622 1431 c 0,50,51
 500 1431 500 1431 439 1361 c 128,-1,52
 378 1291 378 1291 378 1132 c 2,53,-1
 378 0 l 1,54,-1
 202 0 l 1,55,-1
 202 1121 l 2,56,57
 202 1342 202 1342 312.5 1457.5 c 128,-1,58
 423 1573 423 1573 623 1573 c 0,59,0
 730 1573 730 1573 813 1535 c 128,-1,1
EndSplineSet
EndChar

StartChar: ae
Encoding: 230 230 168
Width: 1260
GlyphClass: 2
Flags: W
AnchorPoint: "Anchor-7" 648 1106 basechar 0
AnchorPoint: "Anchor-6" 0 0 basechar 0
LayerCount: 2
Fore
SplineSet
1185 988 m 128,-1,1
 1274 847 1274 847 1274 587 c 0,2,3
 1274 525 1274 525 1270 488 c 1,4,-1
 705 488 l 1,5,6
 720 299 720 299 776 211.5 c 128,-1,7
 832 124 832 124 942 124 c 0,8,9
 1000 124 1000 124 1046.5 144 c 128,-1,10
 1093 164 1093 164 1150 207 c 1,11,-1
 1232 86 l 1,12,13
 1164 32 1164 32 1094.5 4 c 128,-1,14
 1025 -24 1025 -24 940 -24 c 0,15,16
 830 -24 830 -24 752.5 25 c 128,-1,17
 675 74 675 74 617 177 c 1,18,19
 551 66 551 66 482 21 c 128,-1,20
 413 -24 413 -24 308 -24 c 0,21,22
 211 -24 211 -24 138.5 18.5 c 128,-1,23
 66 61 66 61 26.5 138 c 128,-1,24
 -13 215 -13 215 -13 317 c 0,25,26
 -13 490 -13 490 102 581.5 c 128,-1,27
 217 673 217 673 438 673 c 2,28,-1
 532 673 l 1,29,-1
 532 764 l 2,30,31
 532 877 532 877 483.5 929.5 c 128,-1,32
 435 982 435 982 341 982 c 0,33,34
 287 982 287 982 240 969.5 c 128,-1,35
 193 957 193 957 123 925 c 1,36,-1
 75 1059 l 1,37,38
 227 1129 227 1129 358 1129 c 0,39,40
 474 1129 474 1129 539.5 1082 c 128,-1,41
 605 1035 605 1035 638 945 c 1,42,43
 671 1032 671 1032 741 1080.5 c 128,-1,44
 811 1129 811 1129 913 1129 c 0,45,0
 1096 1129 1096 1129 1185 988 c 128,-1,1
802 948.5 m 128,-1,47
 761 914 761 914 737.5 836 c 128,-1,48
 714 758 714 758 705 627 c 1,49,-1
 1102 627 l 1,50,51
 1100 749 1100 749 1081 826 c 128,-1,52
 1062 903 1062 903 1020 943 c 128,-1,53
 978 983 978 983 907 983 c 0,54,46
 843 983 843 983 802 948.5 c 128,-1,47
444 551 m 2,55,56
 300 551 300 551 238.5 493 c 128,-1,57
 177 435 177 435 177 327 c 0,58,59
 177 224 177 224 219.5 168 c 128,-1,60
 262 112 262 112 333 112 c 0,61,62
 401 112 401 112 453 159.5 c 128,-1,63
 505 207 505 207 559 309 c 1,64,65
 533 426 533 426 532 551 c 1,66,-1
 444 551 l 2,55,56
EndSplineSet
EndChar

StartChar: ccedilla
Encoding: 231 231 169
Width: 1260
GlyphClass: 2
Flags: W
AnchorPoint: "Anchor-7" 0 0 basechar 0
AnchorPoint: "Anchor-6" 712 0 basechar 0
LayerCount: 2
Fore
SplineSet
900 -177.5 m 128,-1,1
 948 -227 948 -227 948 -295 c 0,2,3
 948 -361 948 -361 913.5 -407.5 c 128,-1,4
 879 -454 879 -454 820 -477.5 c 128,-1,5
 761 -501 761 -501 692 -501 c 0,6,7
 630 -501 630 -501 572.5 -487.5 c 128,-1,8
 515 -474 515 -474 473 -450 c 1,9,-1
 529 -348 l 1,10,11
 558 -364 558 -364 597 -372.5 c 128,-1,12
 636 -381 636 -381 671 -381 c 0,13,14
 797 -381 797 -381 797 -295 c 0,15,16
 797 -241 797 -241 752.5 -223 c 128,-1,17
 708 -205 708 -205 614 -205 c 1,18,-1
 629 -19 l 1,19,20
 490 -2 490 -2 392 72 c 128,-1,21
 294 146 294 146 243 268 c 128,-1,22
 192 390 192 390 192 548 c 0,23,24
 192 715 192 715 254 847 c 128,-1,25
 316 979 316 979 433.5 1054 c 128,-1,26
 551 1129 551 1129 713 1129 c 0,27,28
 924 1129 924 1129 1083 1001 c 1,29,-1
 997 883 l 1,30,31
 854 982 854 982 711 982 c 0,32,33
 613 982 613 982 539.5 933.5 c 128,-1,34
 466 885 466 885 424.5 787.5 c 128,-1,35
 383 690 383 690 383 548 c 0,36,37
 383 336 383 336 472 232 c 128,-1,38
 561 128 561 128 711 128 c 0,39,40
 859 128 859 128 999 225 c 1,41,-1
 1085 109 l 1,42,43
 1021 54 1021 54 932.5 19.5 c 128,-1,44
 844 -15 844 -15 754 -22 c 1,45,-1
 754 -120 l 1,46,0
 852 -128 852 -128 900 -177.5 c 128,-1,1
EndSplineSet
EndChar

StartChar: eth
Encoding: 240 240 178
Width: 1260
GlyphClass: 2
Flags: W
LayerCount: 2
Fore
SplineSet
526 1358 m 1,0,1
 433 1403 433 1403 280 1435 c 1,2,-1
 319 1573 l 1,3,4
 519 1530 519 1530 633 1469 c 1,5,-1
 779 1625 l 1,6,-1
 885 1532 l 1,7,-1
 755 1398 l 1,8,9
 942 1269 942 1269 1030.5 1062.5 c 128,-1,10
 1119 856 1119 856 1119 553 c 0,11,12
 1119 378 1119 378 1057 248 c 128,-1,13
 995 118 995 118 882.5 47 c 128,-1,14
 770 -24 770 -24 620 -24 c 0,15,16
 486 -24 486 -24 377 37.5 c 128,-1,17
 268 99 268 99 204.5 216 c 128,-1,18
 141 333 141 333 141 494 c 0,19,20
 141 645 141 645 202 762.5 c 128,-1,21
 263 880 263 880 365 945 c 128,-1,22
 467 1010 467 1010 587 1010 c 0,23,24
 792 1010 792 1010 919 865 c 1,25,26
 890 996 890 996 819 1104 c 128,-1,27
 748 1212 748 1212 646 1287 c 1,28,-1
 482 1116 l 1,29,-1
 356 1180 l 1,30,-1
 526 1358 l 1,0,1
934 698 m 1,32,33
 880 781 880 781 796.5 825 c 128,-1,34
 713 869 713 869 610 869 c 0,35,36
 530 869 530 869 464.5 829.5 c 128,-1,37
 399 790 399 790 359.5 707.5 c 128,-1,38
 320 625 320 625 320 503 c 0,39,40
 320 380 320 380 357.5 293.5 c 128,-1,41
 395 207 395 207 462 163 c 128,-1,42
 529 119 529 119 617 119 c 0,43,44
 717 119 717 119 789 169.5 c 128,-1,45
 861 220 861 220 900.5 319 c 128,-1,46
 940 418 940 418 940 562 c 0,47,31
 940 632 940 632 934 698 c 1,32,33
EndSplineSet
EndChar

StartChar: divide
Encoding: 247 247 185
Width: 1260
GlyphClass: 2
Flags: W
LayerCount: 2
Fore
SplineSet
701.5 1188.5 m 128,-1,1
 734 1170 734 1170 753 1138 c 128,-1,2
 772 1106 772 1106 772 1068 c 0,3,4
 772 1008 772 1008 731 968 c 128,-1,5
 690 928 690 928 630 928 c 256,6,7
 570 928 570 928 529 968 c 128,-1,8
 488 1008 488 1008 488 1068 c 0,9,10
 488 1106 488 1106 507 1138 c 128,-1,11
 526 1170 526 1170 558.5 1188.5 c 128,-1,12
 591 1207 591 1207 630 1207 c 256,13,0
 669 1207 669 1207 701.5 1188.5 c 128,-1,1
1018 580 m 1,14,-1
 243 580 l 1,15,-1
 243 730 l 1,16,-1
 1018 730 l 1,17,-1
 1018 580 l 1,14,-1
701.5 365 m 128,-1,19
 734 347 734 347 753 315 c 128,-1,20
 772 283 772 283 772 245 c 0,21,22
 772 206 772 206 753 173 c 128,-1,23
 734 140 734 140 701.5 121 c 128,-1,24
 669 102 669 102 630 102 c 256,25,26
 591 102 591 102 558.5 121 c 128,-1,27
 526 140 526 140 507 173 c 128,-1,28
 488 206 488 206 488 245 c 0,29,30
 488 283 488 283 507 315 c 128,-1,31
 526 347 526 347 558.5 365 c 128,-1,32
 591 383 591 383 630 383 c 256,33,18
 669 383 669 383 701.5 365 c 128,-1,19
EndSplineSet
EndChar

StartChar: oslash
Encoding: 248 248 186
Width: 1260
GlyphClass: 2
Flags: W
AnchorPoint: "Anchor-7" 630 1106 basechar 0
AnchorPoint: "Anchor-6" 0 0 basechar 0
LayerCount: 2
Fore
SplineSet
1046.5 866.5 m 128,-1,1
 1106 734 1106 734 1106 553 c 0,2,3
 1106 382 1106 382 1051 252 c 128,-1,4
 996 122 996 122 888.5 49 c 128,-1,5
 781 -24 781 -24 630 -24 c 0,6,7
 571 -24 571 -24 525 -14 c 1,8,-1
 447 -274 l 1,9,-1
 300 -230 l 1,10,-1
 389 38 l 1,11,12
 277 106 277 106 215.5 239 c 128,-1,13
 154 372 154 372 154 551 c 0,14,15
 154 723 154 723 209.5 853.5 c 128,-1,16
 265 984 265 984 372.5 1056.5 c 128,-1,17
 480 1129 480 1129 632 1129 c 0,18,19
 687 1129 687 1129 734 1120 c 1,20,-1
 815 1374 l 1,21,-1
 963 1331 l 1,22,-1
 875 1066 l 1,23,0
 987 999 987 999 1046.5 866.5 c 128,-1,1
416 877.5 m 128,-1,25
 344 771 344 771 344 551 c 0,26,27
 344 408 344 408 371.5 317 c 128,-1,28
 399 226 399 226 454 179 c 1,29,-1
 702 978 l 1,30,31
 668 984 668 984 632 984 c 0,32,24
 488 984 488 984 416 877.5 c 128,-1,25
845 228 m 128,-1,34
 916 334 916 334 916 553 c 0,35,36
 916 696 916 696 889 787.5 c 128,-1,37
 862 879 862 879 808 927 c 1,38,-1
 561 128 l 1,39,40
 595 122 595 122 630 122 c 0,41,33
 774 122 774 122 845 228 c 128,-1,34
EndSplineSet
EndChar

StartChar: thorn
Encoding: 254 254 192
Width: 1260
GlyphClass: 2
Flags: W
AnchorPoint: "Anchor-7" 630 1551 basechar 0
AnchorPoint: "Anchor-6" 630 -419 basechar 0
LayerCount: 2
Fore
SplineSet
388 969 m 1,0,1
 449 1047 449 1047 530.5 1088 c 128,-1,2
 612 1129 612 1129 706 1129 c 0,3,4
 918 1129 918 1129 1012 979 c 128,-1,5
 1106 829 1106 829 1106 553 c 0,6,7
 1106 382 1106 382 1058.5 252.5 c 128,-1,8
 1011 123 1011 123 915 49.5 c 128,-1,9
 819 -24 819 -24 680 -24 c 0,10,11
 497 -24 497 -24 388 104 c 1,12,-1
 388 -423 l 1,13,-1
 211 -445 l 1,14,-1
 211 1551 l 1,15,-1
 388 1573 l 1,16,-1
 388 969 l 1,0,1
509 936.5 m 128,-1,18
 439 886 439 886 388 810 c 1,19,-1
 388 262 l 1,20,21
 432 197 432 197 497.5 160 c 128,-1,22
 563 123 563 123 641 123 c 0,23,24
 780 123 780 123 848.5 229 c 128,-1,25
 917 335 917 335 917 555 c 0,26,27
 917 773 917 773 855 880 c 128,-1,28
 793 987 793 987 664 987 c 0,29,17
 579 987 579 987 509 936.5 c 128,-1,18
EndSplineSet
EndChar

StartChar: Aogonek
Encoding: 260 260 198
Width: 1260
GlyphClass: 2
Flags: W
AnchorPoint: "Anchor-7" 630 1446 basechar 0
AnchorPoint: "Anchor-6" 626 0 basechar 0
LayerCount: 2
Fore
SplineSet
970 -86.5 m 128,-1,1
 913 -127 913 -127 892 -163.5 c 128,-1,2
 871 -200 871 -200 871 -241 c 0,3,4
 871 -290 871 -290 897.5 -315.5 c 128,-1,5
 924 -341 924 -341 987 -341 c 0,6,7
 1020 -341 1020 -341 1049 -338 c 128,-1,8
 1078 -335 1078 -335 1119 -327 c 1,9,-1
 1100 -467 l 1,10,11
 1063 -474 1063 -474 1033.5 -478 c 128,-1,12
 1004 -482 1004 -482 966 -482 c 0,13,14
 888 -482 888 -482 830.5 -454.5 c 128,-1,15
 773 -427 773 -427 742 -380.5 c 128,-1,16
 711 -334 711 -334 711 -275 c 0,17,18
 711 -175 711 -175 784.5 -98.5 c 128,-1,19
 858 -22 858 -22 1015 36 c 1,20,-1
 911 369 l 1,21,-1
 338 369 l 1,22,-1
 223 0 l 1,23,-1
 43 0 l 1,24,-1
 514 1446 l 1,25,-1
 747 1446 l 1,26,-1
 1217 0 l 1,27,-1
 1131 0 l 1,28,0
 1027 -46 1027 -46 970 -86.5 c 128,-1,1
863 520 m 1,29,-1
 626 1293 l 1,30,-1
 385 520 l 1,31,-1
 863 520 l 1,29,-1
EndSplineSet
EndChar

StartChar: aogonek
Encoding: 261 261 199
Width: 1260
GlyphClass: 2
Flags: W
AnchorPoint: "Anchor-7" 613 1106 basechar 0
AnchorPoint: "Anchor-6" 630 0 basechar 0
LayerCount: 2
Fore
SplineSet
889 -110.5 m 128,-1,1
 832 -151 832 -151 811 -187.5 c 128,-1,2
 790 -224 790 -224 790 -265 c 0,3,4
 790 -314 790 -314 816.5 -339.5 c 128,-1,5
 843 -365 843 -365 906 -365 c 0,6,7
 939 -365 939 -365 968 -362 c 128,-1,8
 997 -359 997 -359 1038 -351 c 1,9,-1
 1019 -492 l 1,10,11
 982 -499 982 -499 952.5 -502.5 c 128,-1,12
 923 -506 923 -506 885 -506 c 0,13,14
 807 -506 807 -506 749.5 -479 c 128,-1,15
 692 -452 692 -452 661 -405 c 128,-1,16
 630 -358 630 -358 630 -299 c 0,17,18
 630 -199 630 -199 704.5 -122 c 128,-1,19
 779 -45 779 -45 938 13 c 1,20,21
 873 53 873 53 848 131 c 1,22,23
 789 54 789 54 699 15 c 128,-1,24
 609 -24 609 -24 501 -24 c 0,25,26
 392 -24 392 -24 311 18 c 128,-1,27
 230 60 230 60 187 137 c 128,-1,28
 144 214 144 214 144 317 c 0,29,30
 144 488 144 488 277.5 579.5 c 128,-1,31
 411 671 411 671 663 671 c 2,32,-1
 826 671 l 1,33,-1
 826 764 l 2,34,35
 826 880 826 880 758.5 931.5 c 128,-1,36
 691 983 691 983 562 983 c 0,37,38
 437 983 437 983 274 926 c 1,39,-1
 228 1060 l 1,40,41
 413 1129 413 1129 589 1129 c 0,42,43
 792 1129 792 1129 897.5 1034 c 128,-1,44
 1003 939 1003 939 1003 772 c 2,45,-1
 1003 242 l 2,46,47
 1003 177 1003 177 1024 145.5 c 128,-1,48
 1045 114 1045 114 1093 100 c 1,49,-1
 1050 -24 l 1,50,0
 946 -70 946 -70 889 -110.5 c 128,-1,1
826 551 m 1,51,-1
 666 551 l 2,52,53
 491 551 491 551 412 491.5 c 128,-1,54
 333 432 333 432 333 319 c 0,55,56
 333 110 333 110 546 110 c 0,57,58
 628 110 628 110 702 151.5 c 128,-1,59
 776 193 776 193 826 267 c 1,60,-1
 826 551 l 1,51,-1
EndSplineSet
EndChar

StartChar: dcroat
Encoding: 273 273 211
Width: 1260
GlyphClass: 2
Flags: W
AnchorPoint: "Anchor-7" 635 1551 basechar 0
AnchorPoint: "Anchor-6" 635 0 basechar 0
LayerCount: 2
Fore
SplineSet
1219 1255 m 1,0,-1
 1054 1255 l 1,1,-1
 1054 0 l 1,2,-1
 899 0 l 1,3,-1
 882 146 l 1,4,5
 822 60 822 60 742.5 18 c 128,-1,6
 663 -24 663 -24 569 -24 c 0,7,8
 359 -24 359 -24 253.5 130.5 c 128,-1,9
 148 285 148 285 148 551 c 0,10,11
 148 718 148 718 200 849.5 c 128,-1,12
 252 981 252 981 349.5 1055 c 128,-1,13
 447 1129 447 1129 582 1129 c 0,14,15
 767 1129 767 1129 878 999 c 1,16,-1
 878 1255 l 1,17,-1
 518 1255 l 1,18,-1
 518 1396 l 1,19,-1
 878 1396 l 1,20,-1
 878 1573 l 1,21,-1
 1054 1551 l 1,22,-1
 1054 1396 l 1,23,-1
 1219 1396 l 1,24,-1
 1219 1255 l 1,0,-1
878 845 m 1,25,26
 833 913 833 913 768.5 950 c 128,-1,27
 704 987 704 987 627 987 c 0,28,29
 487 987 487 987 413.5 877.5 c 128,-1,30
 340 768 340 768 340 551 c 0,31,32
 340 337 340 337 408 228 c 128,-1,33
 476 119 476 119 606 119 c 0,34,35
 762 119 762 119 878 293 c 1,36,-1
 878 845 l 1,25,26
EndSplineSet
EndChar

StartChar: Eogonek
Encoding: 280 280 218
Width: 1260
GlyphClass: 2
Flags: W
AnchorPoint: "Anchor-7" 674 1446 basechar 0
AnchorPoint: "Anchor-6" 684 0 basechar 0
LayerCount: 2
Fore
SplineSet
1104 146 m 1,0,-1
 1104 0 l 1,1,-1
 983 0 l 1,2,3
 879 -46 879 -46 822.5 -86.5 c 128,-1,4
 766 -127 766 -127 745 -163.5 c 128,-1,5
 724 -200 724 -200 724 -241 c 0,6,7
 724 -290 724 -290 750.5 -315.5 c 128,-1,8
 777 -341 777 -341 840 -341 c 0,9,10
 897 -341 897 -341 970 -327 c 1,11,-1
 952 -467 l 1,12,13
 914 -474 914 -474 885.5 -478 c 128,-1,14
 857 -482 857 -482 819 -482 c 0,15,16
 741 -482 741 -482 683 -454.5 c 128,-1,17
 625 -427 625 -427 594 -380.5 c 128,-1,18
 563 -334 563 -334 563 -275 c 0,19,20
 563 -190 563 -190 616.5 -122 c 128,-1,21
 670 -54 670 -54 782 0 c 1,22,-1
 264 0 l 1,23,-1
 264 1446 l 1,24,-1
 1085 1446 l 1,25,-1
 1064 1297 l 1,26,-1
 446 1297 l 1,27,-1
 446 810 l 1,28,-1
 982 810 l 1,29,-1
 982 660 l 1,30,-1
 446 660 l 1,31,-1
 446 146 l 1,32,-1
 1104 146 l 1,0,-1
EndSplineSet
EndChar

StartChar: eogonek
Encoding: 281 281 219
Width: 1260
GlyphClass: 2
Flags: W
AnchorPoint: "Anchor-7" 652 1106 basechar 0
AnchorPoint: "Anchor-6" 630 0 basechar 0
LayerCount: 2
Fore
SplineSet
1093 490 m 1,1,-1
 350 490 l 1,2,3
 354 366 354 366 398 284 c 128,-1,4
 442 202 442 202 513.5 162.5 c 128,-1,5
 585 123 585 123 673 123 c 0,6,7
 755 123 755 123 824 147 c 128,-1,8
 893 171 893 171 968 223 c 1,9,-1
 1051 106 l 1,10,11
 955 31 955 31 834 -2 c 1,12,13
 732 -47 732 -47 676 -87 c 128,-1,14
 620 -127 620 -127 599.5 -163.5 c 128,-1,15
 579 -200 579 -200 579 -241 c 0,16,17
 579 -290 579 -290 605.5 -315.5 c 128,-1,18
 632 -341 632 -341 695 -341 c 0,19,20
 752 -341 752 -341 826 -327 c 1,21,-1
 807 -467 l 1,22,23
 769 -474 769 -474 740.5 -478 c 128,-1,24
 712 -482 712 -482 674 -482 c 0,25,26
 596 -482 596 -482 538 -454.5 c 128,-1,27
 480 -427 480 -427 449 -380.5 c 128,-1,28
 418 -334 418 -334 418 -275 c 0,29,30
 418 -195 418 -195 471 -130.5 c 128,-1,31
 524 -66 524 -66 628 -23 c 1,32,33
 482 -14 482 -14 378 60 c 128,-1,34
 274 134 274 134 219.5 261 c 128,-1,35
 165 388 165 388 165 551 c 0,36,37
 165 718 165 718 225 849.5 c 128,-1,38
 285 981 285 981 394 1055 c 128,-1,39
 503 1129 503 1129 648 1129 c 0,40,41
 787 1129 787 1129 888 1064 c 128,-1,42
 989 999 989 999 1043.5 876.5 c 128,-1,43
 1098 754 1098 754 1098 587 c 0,44,0
 1097 538 1097 538 1093 490 c 1,1,-1
927 627 m 1,45,46
 924 801 924 801 850.5 892.5 c 128,-1,47
 777 984 777 984 650 984 c 0,48,49
 522 984 522 984 441.5 894 c 128,-1,50
 361 804 361 804 351 627 c 1,51,-1
 927 627 l 1,45,46
EndSplineSet
EndChar

StartChar: uni0123
Encoding: 291 291 229
Width: 1260
GlyphClass: 2
Flags: W
AnchorPoint: "Anchor-7" 617 1106 basechar 0
AnchorPoint: "Anchor-6" 0 0 basechar 0
LayerCount: 2
Fore
SplineSet
528 1286 m 128,-1,1
 495 1318 495 1318 495 1366 c 0,2,3
 495 1392 495 1392 502 1417.5 c 128,-1,4
 509 1443 509 1443 526 1482 c 2,5,-1
 631 1707 l 1,6,-1
 739 1707 l 1,7,-1
 677 1460 l 1,8,9
 698 1444 698 1444 711 1419 c 128,-1,10
 724 1394 724 1394 724 1366 c 0,11,12
 724 1318 724 1318 690.5 1286 c 128,-1,13
 657 1254 657 1254 609 1254 c 256,14,0
 561 1254 561 1254 528 1286 c 128,-1,1
1165 1058 m 1,15,16
 1100 1038 1100 1038 1026 1031.5 c 128,-1,17
 952 1025 952 1025 841 1025 c 1,18,19
 1033 937 1033 937 1033 747 c 0,20,21
 1033 638 1033 638 983.5 552 c 128,-1,22
 934 466 934 466 840 418.5 c 128,-1,23
 746 371 746 371 618 371 c 0,24,25
 563 371 563 371 525.5 375.5 c 128,-1,26
 488 380 488 380 453 392 c 1,27,28
 428 374 428 374 411.5 345 c 128,-1,29
 395 316 395 316 395 285 c 0,30,31
 395 242 395 242 428.5 217 c 128,-1,32
 462 192 462 192 543 192 c 2,33,-1
 743 192 l 2,34,35
 852 192 852 192 941.5 152.5 c 128,-1,36
 1031 113 1031 113 1082 44.5 c 128,-1,37
 1133 -24 1133 -24 1133 -108 c 0,38,39
 1133 -271 1133 -271 995.5 -358 c 128,-1,40
 858 -445 858 -445 605 -445 c 0,41,42
 431 -445 431 -445 328.5 -409.5 c 128,-1,43
 226 -374 226 -374 182 -301 c 128,-1,44
 138 -228 138 -228 138 -112 c 1,45,-1
 297 -112 l 1,46,47
 297 -180 297 -180 323 -221 c 128,-1,48
 349 -262 349 -262 415.5 -281.5 c 128,-1,49
 482 -301 482 -301 604 -301 c 0,50,51
 785 -301 785 -301 870 -256 c 128,-1,52
 955 -211 955 -211 955 -120 c 0,53,54
 955 -43 955 -43 885.5 -2 c 128,-1,55
 816 39 816 39 705 39 c 2,56,-1
 507 39 l 2,57,58
 416 39 416 39 353 67.5 c 128,-1,59
 290 96 290 96 259.5 143 c 128,-1,60
 229 190 229 190 229 247 c 0,61,62
 229 301 229 301 260.5 351 c 128,-1,63
 292 401 292 401 351 440 c 1,64,65
 255 490 255 490 210 565 c 128,-1,66
 165 640 165 640 165 746 c 0,67,68
 165 856 165 856 221 943.5 c 128,-1,69
 277 1031 277 1031 377.5 1080.5 c 128,-1,70
 478 1130 478 1130 606 1130 c 0,71,72
 739 1130 739 1130 826.5 1141 c 128,-1,73
 914 1152 914 1152 973 1171 c 128,-1,74
 1032 1190 1032 1190 1110 1224 c 1,75,-1
 1165 1058 l 1,15,16
411.5 931.5 m 128,-1,77
 346 862 346 862 346 746 c 0,78,79
 346 628 346 628 412.5 558 c 128,-1,80
 479 488 479 488 610 488 c 0,81,82
 726 488 726 488 788.5 556 c 128,-1,83
 851 624 851 624 851 747 c 0,84,85
 851 872 851 872 789 936.5 c 128,-1,86
 727 1001 727 1001 606 1001 c 0,87,76
 477 1001 477 1001 411.5 931.5 c 128,-1,77
EndSplineSet
EndChar

StartChar: Hbar
Encoding: 294 294 232
Width: 1260
GlyphClass: 2
Flags: W
LayerCount: 2
Fore
SplineSet
1256 1069 m 1,0,-1
 1087 1069 l 1,1,-1
 1087 0 l 1,2,-1
 904 0 l 1,3,-1
 904 686 l 1,4,-1
 356 686 l 1,5,-1
 356 0 l 1,6,-1
 173 0 l 1,7,-1
 173 1069 l 1,8,-1
 4 1069 l 1,9,-1
 4 1209 l 1,10,-1
 173 1209 l 1,11,-1
 173 1446 l 1,12,-1
 356 1446 l 1,13,-1
 356 1209 l 1,14,-1
 904 1209 l 1,15,-1
 904 1446 l 1,16,-1
 1087 1446 l 1,17,-1
 1087 1209 l 1,18,-1
 1256 1209 l 1,19,-1
 1256 1069 l 1,0,-1
904 1069 m 1,20,-1
 356 1069 l 1,21,-1
 356 837 l 1,22,-1
 904 837 l 1,23,-1
 904 1069 l 1,20,-1
EndSplineSet
EndChar

StartChar: hbar
Encoding: 295 295 233
Width: 1260
GlyphClass: 2
Flags: W
AnchorPoint: "Anchor-7" 630 1551 basechar 0
AnchorPoint: "Anchor-6" 630 0 basechar 0
LayerCount: 2
Fore
SplineSet
975 1045 m 128,-1,1
 1051 961 1051 961 1051 803 c 2,2,-1
 1051 0 l 1,3,-1
 875 0 l 1,4,-1
 875 799 l 2,5,6
 875 898 875 898 828.5 944 c 128,-1,7
 782 990 782 990 684 990 c 0,8,9
 597 990 597 990 517 935 c 128,-1,10
 437 880 437 880 388 806 c 1,11,-1
 388 0 l 1,12,-1
 211 0 l 1,13,-1
 211 1255 l 1,14,-1
 41 1255 l 1,15,-1
 41 1396 l 1,16,-1
 211 1396 l 1,17,-1
 211 1549 l 1,18,-1
 388 1568 l 1,19,-1
 388 1396 l 1,20,-1
 743 1396 l 1,21,-1
 743 1255 l 1,22,-1
 388 1255 l 1,23,-1
 388 955 l 1,24,25
 452 1039 452 1039 546 1084 c 128,-1,26
 640 1129 640 1129 740 1129 c 0,27,0
 899 1129 899 1129 975 1045 c 128,-1,1
EndSplineSet
EndChar

StartChar: Iogonek
Encoding: 302 302 240
Width: 1260
GlyphClass: 2
Flags: W
AnchorPoint: "Anchor-7" 630 1446 basechar 0
AnchorPoint: "Anchor-6" 630 0 basechar 0
LayerCount: 2
Fore
SplineSet
723 1300 m 1,0,-1
 723 146 l 1,1,-1
 1044 146 l 1,2,-1
 1044 0 l 1,3,-1
 723 0 l 1,4,5
 619 -46 619 -46 561.5 -86.5 c 128,-1,6
 504 -127 504 -127 483 -163.5 c 128,-1,7
 462 -200 462 -200 462 -241 c 0,8,9
 462 -290 462 -290 489 -315.5 c 128,-1,10
 516 -341 516 -341 579 -341 c 0,11,12
 612 -341 612 -341 640.5 -338 c 128,-1,13
 669 -335 669 -335 710 -327 c 1,14,-1
 691 -467 l 1,15,16
 654 -474 654 -474 624.5 -478 c 128,-1,17
 595 -482 595 -482 558 -482 c 0,18,19
 480 -482 480 -482 422 -454.5 c 128,-1,20
 364 -427 364 -427 333 -380.5 c 128,-1,21
 302 -334 302 -334 302 -275 c 0,22,23
 302 -190 302 -190 356 -122 c 128,-1,24
 410 -54 410 -54 521 0 c 1,25,-1
 216 0 l 1,26,-1
 216 146 l 1,27,-1
 538 146 l 1,28,-1
 538 1300 l 1,29,-1
 216 1300 l 1,30,-1
 216 1446 l 1,31,-1
 1044 1446 l 1,32,-1
 1044 1300 l 1,33,-1
 723 1300 l 1,0,-1
EndSplineSet
EndChar

StartChar: iogonek
Encoding: 303 303 241
Width: 1260
GlyphClass: 2
Flags: W
AnchorPoint: "Anchor-7" 633 1106 basechar 0
AnchorPoint: "Anchor-6" 0 0 basechar 0
LayerCount: 2
Fore
SplineSet
538.5 1411 m 128,-1,1
 503 1447 503 1447 503 1501 c 0,2,3
 503 1554 503 1554 538.5 1589 c 128,-1,4
 574 1624 574 1624 630 1624 c 0,5,6
 688 1624 688 1624 724 1588.5 c 128,-1,7
 760 1553 760 1553 760 1501 c 0,8,9
 760 1446 760 1446 724 1410.5 c 128,-1,10
 688 1375 688 1375 630 1375 c 0,11,0
 574 1375 574 1375 538.5 1411 c 128,-1,1
1083 140 m 1,12,-1
 1083 0 l 1,13,-1
 771 0 l 1,14,15
 667 -46 667 -46 610 -86.5 c 128,-1,16
 553 -127 553 -127 532 -163.5 c 128,-1,17
 511 -200 511 -200 511 -241 c 0,18,19
 511 -290 511 -290 538 -315.5 c 128,-1,20
 565 -341 565 -341 628 -341 c 0,21,22
 685 -341 685 -341 758 -327 c 1,23,-1
 739 -467 l 1,24,25
 701 -474 701 -474 673 -478 c 128,-1,26
 645 -482 645 -482 607 -482 c 0,27,28
 529 -482 529 -482 471 -454.5 c 128,-1,29
 413 -427 413 -427 382 -380.5 c 128,-1,30
 351 -334 351 -334 351 -275 c 0,31,32
 351 -190 351 -190 404.5 -122 c 128,-1,33
 458 -54 458 -54 570 0 c 1,34,-1
 253 0 l 1,35,-1
 253 140 l 1,36,-1
 594 140 l 1,37,-1
 594 966 l 1,38,-1
 264 966 l 1,39,-1
 264 1106 l 1,40,-1
 771 1106 l 1,41,-1
 771 140 l 1,42,-1
 1083 140 l 1,12,-1
EndSplineSet
EndChar

StartChar: dotlessi
Encoding: 305 305 243
Width: 1260
GlyphClass: 2
Flags: W
AnchorPoint: "Anchor-7" 633 1106 basechar 0
AnchorPoint: "Anchor-6" 0 0 basechar 0
LayerCount: 2
Fore
SplineSet
771 140 m 1,0,-1
 1083 140 l 1,1,-1
 1083 0 l 1,2,-1
 253 0 l 1,3,-1
 253 140 l 1,4,-1
 594 140 l 1,5,-1
 594 966 l 1,6,-1
 264 966 l 1,7,-1
 264 1106 l 1,8,-1
 771 1106 l 1,9,-1
 771 140 l 1,0,-1
EndSplineSet
EndChar

StartChar: IJ
Encoding: 306 306 244
Width: 1260
GlyphClass: 2
Flags: W
LayerCount: 2
Fore
SplineSet
730 -58.5 m 128,-1,1
 845 12 845 12 890 125 c 128,-1,2
 935 238 935 238 935 406 c 2,3,-1
 935 1295 l 1,4,-1
 421 1295 l 1,5,-1
 421 150 l 1,6,-1
 589 150 l 1,7,-1
 589 0 l 1,8,-1
 24 0 l 1,9,-1
 24 150 l 1,10,-1
 234 150 l 1,11,-1
 234 1295 l 1,12,-1
 24 1295 l 1,13,-1
 24 1446 l 1,14,-1
 1119 1446 l 1,15,-1
 1119 395 l 2,16,17
 1119 114 1119 114 967 -68.5 c 128,-1,18
 815 -251 815 -251 430 -286 c 1,19,-1
 409 -149 l 1,20,0
 615 -129 615 -129 730 -58.5 c 128,-1,1
EndSplineSet
EndChar

StartChar: ij
Encoding: 307 307 245
Width: 1260
GlyphClass: 2
Flags: W
LayerCount: 2
Fore
SplineSet
479.5 1588.5 m 128,-1,1
 516 1553 516 1553 516 1501 c 0,2,3
 516 1447 516 1447 479.5 1411 c 128,-1,4
 443 1375 443 1375 388 1375 c 0,5,6
 332 1375 332 1375 295.5 1411 c 128,-1,7
 259 1447 259 1447 259 1501 c 0,8,9
 259 1554 259 1554 295.5 1589 c 128,-1,10
 332 1624 332 1624 388 1624 c 0,11,0
 443 1624 443 1624 479.5 1588.5 c 128,-1,1
1034 1588.5 m 128,-1,13
 1070 1553 1070 1553 1070 1501 c 0,14,15
 1070 1447 1070 1447 1034.5 1411 c 128,-1,16
 999 1375 999 1375 942 1375 c 0,17,18
 886 1375 886 1375 850 1411 c 128,-1,19
 814 1447 814 1447 814 1501 c 0,20,21
 814 1554 814 1554 850 1589 c 128,-1,22
 886 1624 886 1624 942 1624 c 256,23,12
 998 1624 998 1624 1034 1588.5 c 128,-1,13
1051 114 m 2,24,25
 1051 -98 1051 -98 906.5 -231.5 c 128,-1,26
 762 -365 762 -365 515 -445 c 1,27,-1
 462 -308 l 1,28,29
 587 -260 587 -260 674.5 -210 c 128,-1,30
 762 -160 762 -160 820.5 -82 c 128,-1,31
 879 -4 879 -4 879 104 c 2,32,-1
 879 970 l 1,33,-1
 468 970 l 1,34,-1
 468 140 l 1,35,-1
 669 140 l 1,36,-1
 669 0 l 1,37,-1
 102 0 l 1,38,-1
 102 140 l 1,39,-1
 298 140 l 1,40,-1
 298 970 l 1,41,-1
 112 970 l 1,42,-1
 112 1106 l 1,43,-1
 1051 1106 l 1,44,-1
 1051 114 l 2,24,25
EndSplineSet
EndChar

StartChar: kgreenlandic
Encoding: 312 312 250
Width: 1260
GlyphClass: 2
Flags: W
AnchorPoint: "Anchor-7" 630 1106 basechar 0
AnchorPoint: "Anchor-6" 630 0 basechar 0
LayerCount: 2
Fore
SplineSet
388 0 m 1,0,-1
 211 0 l 1,1,-1
 211 1106 l 1,2,-1
 388 1106 l 1,3,-1
 388 0 l 1,0,-1
624 605 m 1,4,-1
 1184 0 l 1,5,-1
 950 0 l 1,6,-1
 406 593 l 1,7,-1
 897 1106 l 1,8,-1
 1126 1106 l 1,9,-1
 624 605 l 1,4,-1
EndSplineSet
EndChar

StartChar: Lslash
Encoding: 321 321 259
Width: 1260
GlyphClass: 2
Flags: W
AnchorPoint: "Anchor-7" 374 1446 basechar 0
AnchorPoint: "Anchor-6" 692 0 basechar 0
LayerCount: 2
Fore
SplineSet
1124 163 m 1,0,-1
 1103 0 l 1,1,-1
 280 0 l 1,2,-1
 280 563 l 1,3,-1
 161 488 l 1,4,-1
 85 607 l 1,5,-1
 280 728 l 1,6,-1
 280 1446 l 1,7,-1
 463 1446 l 1,8,-1
 463 841 l 1,9,-1
 808 1056 l 1,10,-1
 886 938 l 1,11,-1
 463 675 l 1,12,-1
 463 163 l 1,13,-1
 1124 163 l 1,0,-1
EndSplineSet
EndChar

StartChar: lslash
Encoding: 322 322 260
Width: 1260
GlyphClass: 2
Flags: W
AnchorPoint: "Anchor-7" 557 1551 basechar 0
AnchorPoint: "Anchor-6" 757 0 basechar 0
LayerCount: 2
Fore
SplineSet
1058 33 m 1,0,1
 1008 8 1008 8 940.5 -8 c 128,-1,2
 873 -24 873 -24 795 -24 c 0,3,4
 697 -24 697 -24 622 12.5 c 128,-1,5
 547 49 547 49 506 118.5 c 128,-1,6
 465 188 465 188 465 283 c 2,7,-1
 465 643 l 1,8,-1
 323 556 l 1,9,-1
 249 670 l 1,10,-1
 465 800 l 1,11,-1
 465 1412 l 1,12,-1
 126 1412 l 1,13,-1
 126 1551 l 1,14,-1
 642 1551 l 1,15,-1
 642 910 l 1,16,-1
 831 1027 l 1,17,-1
 905 913 l 1,18,-1
 642 751 l 1,19,-1
 642 273 l 2,20,21
 642 195 642 195 690.5 159 c 128,-1,22
 739 123 739 123 824 123 c 0,23,24
 913 123 913 123 1010 162 c 1,25,-1
 1058 33 l 1,0,1
EndSplineSet
EndChar

StartChar: napostrophe
Encoding: 329 329 267
Width: 1260
GlyphClass: 2
Flags: W
AnchorPoint: "Anchor-7" 648 1106 basechar 0
AnchorPoint: "Anchor-6" 650 0 basechar 0
LayerCount: 2
Fore
SplineSet
215 1546.5 m 128,-1,1
 248 1514 248 1514 248 1466 c 0,2,3
 248 1440 248 1440 237 1407 c 128,-1,4
 226 1374 226 1374 192 1303 c 2,5,-1
 106 1122 l 1,6,-1
 1 1122 l 1,7,-1
 64 1371 l 1,8,9
 16 1415 16 1415 16 1466 c 0,10,11
 16 1514 16 1514 50.5 1546.5 c 128,-1,12
 85 1579 85 1579 133 1579 c 0,13,0
 182 1579 182 1579 215 1546.5 c 128,-1,1
229 1106 m 1,14,-1
 380 1106 l 1,15,-1
 393 953 l 1,16,17
 459 1036 459 1036 559.5 1082.5 c 128,-1,18
 660 1129 660 1129 758 1129 c 0,19,20
 917 1129 917 1129 993.5 1045 c 128,-1,21
 1070 961 1070 961 1070 803 c 2,22,-1
 1070 0 l 1,23,-1
 894 0 l 1,24,-1
 894 673 l 2,25,26
 894 796 894 796 880 861.5 c 128,-1,27
 866 927 866 927 826 958.5 c 128,-1,28
 786 990 786 990 704 990 c 0,29,30
 615 990 615 990 536 935.5 c 128,-1,31
 457 881 457 881 405 806 c 1,32,-1
 405 0 l 1,33,-1
 229 0 l 1,34,-1
 229 1106 l 1,14,-1
EndSplineSet
Ligature2: "'locl' Localized Forms in Latin lookup 23 subtable" quoteright n
Ligature2: "'locl' Localized Forms in Latin lookup 23 subtable" quotesingle n
EndChar

StartChar: Eng
Encoding: 330 330 268
Width: 1260
GlyphClass: 2
Flags: W
AnchorPoint: "Anchor-7" 627 1446 basechar 0
AnchorPoint: "Anchor-6" 630 0 basechar 0
LayerCount: 2
Fore
SplineSet
1085 1446 m 1,0,-1
 1085 -129 l 2,1,2
 1085 -284 1085 -284 1003.5 -365 c 128,-1,3
 922 -446 922 -446 780 -446 c 0,4,5
 648 -446 648 -446 544 -369 c 1,6,-1
 613 -248 l 1,7,8
 655 -274 655 -274 689.5 -285.5 c 128,-1,9
 724 -297 724 -297 773 -297 c 0,10,11
 903 -297 903 -297 903 -140 c 2,12,-1
 903 0 l 1,13,-1
 830 0 l 1,14,-1
 320 1272 l 1,15,16
 320 1264 320 1264 321 1242.5 c 128,-1,17
 322 1221 322 1221 326 1183 c 0,18,19
 345 896 345 896 344 725 c 2,20,-1
 344 0 l 1,21,-1
 175 0 l 1,22,-1
 175 1446 l 1,23,-1
 422 1446 l 1,24,-1
 940 169 l 1,25,-1
 936 245 l 1,26,27
 916 524 916 524 916 723 c 2,28,-1
 916 1446 l 1,29,-1
 1085 1446 l 1,0,-1
EndSplineSet
EndChar

StartChar: eng
Encoding: 331 331 269
Width: 1260
GlyphClass: 2
Flags: W
LayerCount: 2
Fore
SplineSet
1016.5 -184.5 m 128,-1,1
 982 -277 982 -277 914.5 -333 c 128,-1,2
 847 -389 847 -389 727 -442 c 1,3,-1
 661 -314 l 1,4,5
 743 -276 743 -276 786.5 -239.5 c 128,-1,6
 830 -203 830 -203 852.5 -136 c 128,-1,7
 875 -69 875 -69 875 48 c 2,8,-1
 875 673 l 2,9,10
 875 797 875 797 862.5 862 c 128,-1,11
 850 927 850 927 809 958.5 c 128,-1,12
 768 990 768 990 684 990 c 0,13,14
 597 990 597 990 517 935 c 128,-1,15
 437 880 437 880 388 806 c 1,16,-1
 388 0 l 1,17,-1
 211 0 l 1,18,-1
 211 1106 l 1,19,-1
 361 1106 l 1,20,-1
 375 953 l 1,21,22
 441 1036 441 1036 540.5 1082.5 c 128,-1,23
 640 1129 640 1129 740 1129 c 0,24,25
 899 1129 899 1129 975 1045 c 128,-1,26
 1051 961 1051 961 1051 803 c 2,27,-1
 1051 60 l 2,28,0
 1051 -92 1051 -92 1016.5 -184.5 c 128,-1,1
EndSplineSet
EndChar

StartChar: OE
Encoding: 338 338 276
Width: 1260
GlyphClass: 2
Flags: W
AnchorPoint: "Anchor-7" 630 1446 basechar 0
AnchorPoint: "Anchor-6" 630 0 basechar 0
LayerCount: 2
Fore
SplineSet
594 1446 m 1,1,-1
 1278 1446 l 1,2,-1
 1256 1298 l 1,3,-1
 745 1298 l 1,4,5
 866 1151 866 1151 880 808 c 1,6,-1
 1203 808 l 1,7,-1
 1203 660 l 1,8,-1
 880 660 l 1,9,10
 871 305 871 305 736 148 c 1,11,-1
 1297 148 l 1,12,-1
 1297 0 l 1,13,-1
 588 0 l 1,14,15
 547 -12 547 -12 513.5 -18 c 128,-1,16
 480 -24 480 -24 444 -24 c 0,17,18
 -3 -24 -3 -24 -3 719 c 0,19,20
 -3 1086 -3 1086 110 1277.5 c 128,-1,21
 223 1469 223 1469 444 1469 c 0,22,0
 525 1469 525 1469 594 1446 c 1,1,-1
302 1258.5 m 128,-1,24
 247 1197 247 1197 219.5 1065.5 c 128,-1,25
 192 934 192 934 192 719 c 0,26,27
 192 405 192 405 254.5 265 c 128,-1,28
 317 125 317 125 444 125 c 0,29,30
 533 125 533 125 589.5 185.5 c 128,-1,31
 646 246 646 246 673.5 376.5 c 128,-1,32
 701 507 701 507 701 722 c 256,33,34
 701 937 701 937 674.5 1068 c 128,-1,35
 648 1199 648 1199 592 1259.5 c 128,-1,36
 536 1320 536 1320 444 1320 c 0,37,23
 357 1320 357 1320 302 1258.5 c 128,-1,24
EndSplineSet
EndChar

StartChar: oe
Encoding: 339 339 277
Width: 1260
GlyphClass: 2
Flags: W
LayerCount: 2
Fore
SplineSet
1207 988.5 m 128,-1,1
 1292 848 1292 848 1292 587 c 0,2,3
 1292 543 1292 543 1288 488 c 1,4,-1
 735 488 l 1,5,6
 750 298 750 298 804 211 c 128,-1,7
 858 124 858 124 965 124 c 0,8,9
 1021 124 1021 124 1065 143.5 c 128,-1,10
 1109 163 1109 163 1168 207 c 1,11,-1
 1249 86 l 1,12,13
 1180 31 1180 31 1113 3.5 c 128,-1,14
 1046 -24 1046 -24 963 -24 c 0,15,16
 849 -24 849 -24 769.5 31 c 128,-1,17
 690 86 690 86 648 189 c 1,18,19
 605 85 605 85 536 30.5 c 128,-1,20
 467 -24 467 -24 351 -24 c 0,21,22
 172 -24 172 -24 83.5 128.5 c 128,-1,23
 -5 281 -5 281 -5 551 c 0,24,25
 -5 820 -5 820 82.5 974.5 c 128,-1,26
 170 1129 170 1129 351 1129 c 0,27,28
 474 1129 474 1129 542.5 1074 c 128,-1,29
 611 1019 611 1019 650 913 c 1,30,31
 691 1014 691 1014 762 1071.5 c 128,-1,32
 833 1129 833 1129 944 1129 c 0,33,0
 1122 1129 1122 1129 1207 988.5 c 128,-1,1
227.5 881.5 m 128,-1,35
 183 776 183 776 183 551 c 0,36,37
 183 398 183 398 202.5 304 c 128,-1,38
 222 210 222 210 263.5 165.5 c 128,-1,39
 305 121 305 121 373 121 c 0,40,41
 442 121 442 121 482 163.5 c 128,-1,42
 522 206 522 206 540 299.5 c 128,-1,43
 558 393 558 393 558 553 c 0,44,45
 558 703 558 703 539.5 798.5 c 128,-1,46
 521 894 521 894 480.5 940.5 c 128,-1,47
 440 987 440 987 373 987 c 0,48,34
 272 987 272 987 227.5 881.5 c 128,-1,35
832.5 948.5 m 128,-1,50
 791 914 791 914 768 836 c 128,-1,51
 745 758 745 758 735 627 c 1,52,-1
 1120 627 l 1,53,54
 1117 750 1117 750 1100 827 c 128,-1,55
 1083 904 1083 904 1044 943.5 c 128,-1,56
 1005 983 1005 983 938 983 c 0,57,49
 874 983 874 983 832.5 948.5 c 128,-1,50
EndSplineSet
EndChar

StartChar: Scedilla
Encoding: 350 350 288
Width: 1260
GlyphClass: 2
Flags: W
AnchorPoint: "Anchor-7" 0 0 basechar 0
AnchorPoint: "Anchor-6" 623 0 basechar 0
LayerCount: 2
Fore
SplineSet
1072.5 192.5 m 128,-1,1
 1018 101 1018 101 914 44.5 c 128,-1,2
 810 -12 810 -12 665 -22 c 1,3,-1
 665 -120 l 1,4,5
 763 -128 763 -128 811 -177.5 c 128,-1,6
 859 -227 859 -227 859 -295 c 0,7,8
 859 -361 859 -361 824.5 -407.5 c 128,-1,9
 790 -454 790 -454 731 -477.5 c 128,-1,10
 672 -501 672 -501 603 -501 c 0,11,12
 541 -501 541 -501 483 -487.5 c 128,-1,13
 425 -474 425 -474 383 -450 c 1,14,-1
 440 -348 l 1,15,16
 469 -364 469 -364 508 -372.5 c 128,-1,17
 547 -381 547 -381 582 -381 c 0,18,19
 708 -381 708 -381 708 -295 c 0,20,21
 708 -241 708 -241 663.5 -223 c 128,-1,22
 619 -205 619 -205 525 -205 c 1,23,-1
 540 -22 l 1,24,25
 402 -14 402 -14 288.5 33 c 128,-1,26
 175 80 175 80 91 161 c 1,27,-1
 200 283 l 1,28,29
 279 208 279 208 377 168.5 c 128,-1,30
 475 129 475 129 602 129 c 0,31,32
 692 129 692 129 768.5 159 c 128,-1,33
 845 189 845 189 891.5 249.5 c 128,-1,34
 938 310 938 310 938 397 c 0,35,36
 938 469 938 469 910 517.5 c 128,-1,37
 882 566 882 566 814 604.5 c 128,-1,38
 746 643 746 643 621 680 c 0,39,40
 467 725 467 725 366 778 c 128,-1,41
 265 831 265 831 209.5 908.5 c 128,-1,42
 154 986 154 986 154 1098 c 0,43,44
 154 1205 154 1205 213.5 1289.5 c 128,-1,45
 273 1374 273 1374 379.5 1421.5 c 128,-1,46
 486 1469 486 1469 623 1469 c 0,47,48
 768 1469 768 1469 879.5 1427.5 c 128,-1,49
 991 1386 991 1386 1085 1304 c 1,50,-1
 978 1186 l 1,51,52
 903 1252 903 1252 814 1284.5 c 128,-1,53
 725 1317 725 1317 629 1317 c 0,54,55
 548 1317 548 1317 482.5 1293.5 c 128,-1,56
 417 1270 417 1270 378.5 1221.5 c 128,-1,57
 340 1173 340 1173 340 1104 c 0,58,59
 340 1040 340 1040 373.5 996 c 128,-1,60
 407 952 407 952 485 915 c 128,-1,61
 563 878 563 878 705 836 c 0,62,63
 835 798 835 798 925.5 749.5 c 128,-1,64
 1016 701 1016 701 1071.5 616 c 128,-1,65
 1127 531 1127 531 1127 400 c 0,66,0
 1127 284 1127 284 1072.5 192.5 c 128,-1,1
EndSplineSet
Substitution2: "'locl' Localized Forms in Latin lookup 17 subtable" uni0218
Substitution2: "'locl' Localized Forms in Latin lookup 16 subtable" uni0218
Substitution2: "'aalt' Access All Alternates lookup 0 subtable" uni0218
EndChar

StartChar: scedilla
Encoding: 351 351 289
Width: 1260
GlyphClass: 2
Flags: W
AnchorPoint: "Anchor-7" 0 0 basechar 0
AnchorPoint: "Anchor-6" 623 0 basechar 0
LayerCount: 2
Fore
SplineSet
943.5 75.5 m 128,-1,1
 834 -5 834 -5 664 -21 c 1,2,-1
 664 -120 l 1,3,4
 762 -128 762 -128 810.5 -177.5 c 128,-1,5
 859 -227 859 -227 859 -295 c 0,6,7
 859 -361 859 -361 824 -407.5 c 128,-1,8
 789 -454 789 -454 730.5 -477.5 c 128,-1,9
 672 -501 672 -501 603 -501 c 0,10,11
 541 -501 541 -501 483 -487.5 c 128,-1,12
 425 -474 425 -474 383 -450 c 1,13,-1
 440 -348 l 1,14,15
 468 -364 468 -364 507 -372.5 c 128,-1,16
 546 -381 546 -381 582 -381 c 0,17,18
 707 -381 707 -381 707 -295 c 0,19,20
 707 -241 707 -241 662.5 -223 c 128,-1,21
 618 -205 618 -205 525 -205 c 1,22,-1
 539 -23 l 1,23,24
 309 -9 309 -9 154 125 c 1,25,-1
 255 242 l 1,26,27
 322 185 322 185 407.5 153.5 c 128,-1,28
 493 122 493 122 587 122 c 0,29,30
 714 122 714 122 788 169 c 128,-1,31
 862 216 862 216 862 297 c 0,32,33
 862 352 862 352 842.5 387 c 128,-1,34
 823 422 823 422 766 451.5 c 128,-1,35
 709 481 709 481 594 509 c 0,36,37
 467 541 467 541 387 578 c 128,-1,38
 307 615 307 615 262 675 c 128,-1,39
 217 735 217 735 217 828 c 0,40,41
 217 919 217 919 269.5 987.5 c 128,-1,42
 322 1056 322 1056 417.5 1092.5 c 128,-1,43
 513 1129 513 1129 638 1129 c 256,44,45
 763 1129 763 1129 863 1096 c 128,-1,46
 963 1063 963 1063 1039 1007 c 1,47,-1
 961 887 l 1,48,49
 892 934 892 934 815.5 960 c 128,-1,50
 739 986 739 986 640 986 c 0,51,52
 515 986 515 986 457.5 948 c 128,-1,53
 400 910 400 910 400 841 c 0,54,55
 400 792 400 792 427 760.5 c 128,-1,56
 454 729 454 729 514 704.5 c 128,-1,57
 574 680 574 680 694 647 c 256,58,59
 814 614 814 614 890.5 574.5 c 128,-1,60
 967 535 967 535 1010 470 c 128,-1,61
 1053 405 1053 405 1053 306 c 0,62,0
 1053 156 1053 156 943.5 75.5 c 128,-1,1
EndSplineSet
Substitution2: "'locl' Localized Forms in Latin lookup 17 subtable" uni0219
Substitution2: "'locl' Localized Forms in Latin lookup 16 subtable" uni0219
Substitution2: "'aalt' Access All Alternates lookup 0 subtable" uni0219
EndChar

StartChar: uni0162
Encoding: 354 354 292
Width: 1260
GlyphClass: 2
Flags: W
AnchorPoint: "Anchor-7" 0 0 basechar 0
AnchorPoint: "Anchor-6" 628 0 basechar 0
LayerCount: 2
Fore
SplineSet
689 0 m 1,0,-1
 689 -120 l 1,1,2
 787 -128 787 -128 835.5 -177.5 c 128,-1,3
 884 -227 884 -227 884 -295 c 0,4,5
 884 -361 884 -361 849 -407.5 c 128,-1,6
 814 -454 814 -454 755 -477.5 c 128,-1,7
 696 -501 696 -501 627 -501 c 0,8,9
 565 -501 565 -501 507.5 -487.5 c 128,-1,10
 450 -474 450 -474 409 -450 c 1,11,-1
 465 -348 l 1,12,13
 493 -364 493 -364 532 -372.5 c 128,-1,14
 571 -381 571 -381 606 -381 c 0,15,16
 732 -381 732 -381 732 -295 c 0,17,18
 732 -241 732 -241 687.5 -223 c 128,-1,19
 643 -205 643 -205 550 -205 c 1,20,-1
 566 0 l 1,21,-1
 536 0 l 1,22,-1
 536 1290 l 1,23,-1
 84 1290 l 1,24,-1
 84 1446 l 1,25,-1
 1175 1446 l 1,26,-1
 1156 1290 l 1,27,-1
 717 1290 l 1,28,-1
 717 0 l 1,29,-1
 689 0 l 1,0,-1
EndSplineSet
Substitution2: "'locl' Localized Forms in Latin lookup 17 subtable" uni021A
Substitution2: "'locl' Localized Forms in Latin lookup 16 subtable" uni021A
Substitution2: "'aalt' Access All Alternates lookup 0 subtable" uni021A
EndChar

StartChar: uni0163
Encoding: 355 355 293
Width: 1260
GlyphClass: 2
Flags: W
AnchorPoint: "Anchor-7" 0 0 basechar 0
AnchorPoint: "Anchor-6" 780 0 basechar 0
LayerCount: 2
Fore
SplineSet
968 -177.5 m 128,-1,1
 1017 -227 1017 -227 1017 -295 c 0,2,3
 1017 -361 1017 -361 981.5 -407.5 c 128,-1,4
 946 -454 946 -454 888 -477.5 c 128,-1,5
 830 -501 830 -501 760 -501 c 0,6,7
 697 -501 697 -501 640 -487.5 c 128,-1,8
 583 -474 583 -474 541 -450 c 1,9,-1
 598 -348 l 1,10,11
 626 -364 626 -364 665 -372.5 c 128,-1,12
 704 -381 704 -381 739 -381 c 0,13,14
 864 -381 864 -381 864 -295 c 0,15,16
 864 -241 864 -241 819.5 -223 c 128,-1,17
 775 -205 775 -205 683 -205 c 1,18,-1
 696 -16 l 1,19,20
 566 8 566 8 493.5 95.5 c 128,-1,21
 421 183 421 183 421 310 c 2,22,-1
 421 969 l 1,23,-1
 167 969 l 1,24,-1
 167 1106 l 1,25,-1
 421 1106 l 1,26,-1
 421 1357 l 1,27,-1
 598 1378 l 1,28,-1
 598 1106 l 1,29,-1
 980 1106 l 1,30,-1
 959 969 l 1,31,-1
 598 969 l 1,32,-1
 598 312 l 2,33,34
 598 217 598 217 647.5 170 c 128,-1,35
 697 123 697 123 809 123 c 256,36,37
 921 123 921 123 1021 175 c 1,38,-1
 1089 56 l 1,39,40
 1039 22 1039 22 966.5 1 c 128,-1,41
 894 -20 894 -20 821 -23 c 1,42,-1
 821 -120 l 1,43,0
 919 -128 919 -128 968 -177.5 c 128,-1,1
EndSplineSet
Substitution2: "'locl' Localized Forms in Latin lookup 17 subtable" uni021B
Substitution2: "'locl' Localized Forms in Latin lookup 16 subtable" uni021B
Substitution2: "'aalt' Access All Alternates lookup 0 subtable" uni021B
EndChar

StartChar: Tbar
Encoding: 358 358 296
Width: 1260
GlyphClass: 2
Flags: W
AnchorPoint: "Anchor-7" 628 1446 basechar 0
AnchorPoint: "Anchor-6" 628 0 basechar 0
LayerCount: 2
Fore
SplineSet
717 1290 m 1,0,-1
 717 877 l 1,1,-1
 995 877 l 1,2,-1
 995 735 l 1,3,-1
 717 735 l 1,4,-1
 717 0 l 1,5,-1
 536 0 l 1,6,-1
 536 735 l 1,7,-1
 262 735 l 1,8,-1
 262 877 l 1,9,-1
 536 877 l 1,10,-1
 536 1290 l 1,11,-1
 84 1290 l 1,12,-1
 84 1446 l 1,13,-1
 1175 1446 l 1,14,-1
 1156 1290 l 1,15,-1
 717 1290 l 1,0,-1
EndSplineSet
EndChar

StartChar: tbar
Encoding: 359 359 297
Width: 1260
GlyphClass: 2
Flags: W
AnchorPoint: "Anchor-7" 509 1370 basechar 0
AnchorPoint: "Anchor-6" 780 0 basechar 0
LayerCount: 2
Fore
SplineSet
1089 56 m 1,0,1
 1033 19 1033 19 952 -2.5 c 128,-1,2
 871 -24 871 -24 793 -24 c 0,3,4
 676 -24 676 -24 592.5 18.5 c 128,-1,5
 509 61 509 61 465 136.5 c 128,-1,6
 421 212 421 212 421 310 c 2,7,-1
 421 604 l 1,8,-1
 190 604 l 1,9,-1
 190 739 l 1,10,-1
 421 739 l 1,11,-1
 421 969 l 1,12,-1
 167 969 l 1,13,-1
 167 1106 l 1,14,-1
 421 1106 l 1,15,-1
 421 1357 l 1,16,-1
 598 1378 l 1,17,-1
 598 1106 l 1,18,-1
 980 1106 l 1,19,-1
 959 969 l 1,20,-1
 598 969 l 1,21,-1
 598 739 l 1,22,-1
 961 739 l 1,23,-1
 961 604 l 1,24,-1
 598 604 l 1,25,-1
 598 312 l 2,26,27
 598 217 598 217 647.5 170 c 128,-1,28
 697 123 697 123 809 123 c 256,29,30
 921 123 921 123 1021 175 c 1,31,-1
 1089 56 l 1,0,1
EndSplineSet
EndChar

StartChar: Uogonek
Encoding: 370 370 308
Width: 1260
GlyphClass: 2
Flags: W
AnchorPoint: "Anchor-7" 630 1446 basechar 0
AnchorPoint: "Anchor-6" 630 0 basechar 0
LayerCount: 2
Fore
SplineSet
1108 1446 m 1,0,-1
 1108 468 l 2,1,2
 1108 349 1108 349 1068 252.5 c 128,-1,3
 1028 156 1028 156 954 90 c 128,-1,4
 880 24 880 24 778 -4 c 1,5,6
 678 -49 678 -49 624 -88.5 c 128,-1,7
 570 -128 570 -128 549.5 -164.5 c 128,-1,8
 529 -201 529 -201 529 -241 c 0,9,10
 529 -290 529 -290 556 -315.5 c 128,-1,11
 583 -341 583 -341 646 -341 c 0,12,13
 703 -341 703 -341 776 -327 c 1,14,-1
 757 -467 l 1,15,16
 721 -474 721 -474 692 -478 c 128,-1,17
 663 -482 663 -482 625 -482 c 0,18,19
 547 -482 547 -482 489.5 -454.5 c 128,-1,20
 432 -427 432 -427 401 -380.5 c 128,-1,21
 370 -334 370 -334 370 -275 c 0,22,23
 370 -197 370 -197 414 -133.5 c 128,-1,24
 458 -70 458 -70 550 -19 c 1,25,26
 426 -3 426 -3 337 62 c 128,-1,27
 248 127 248 127 200 231.5 c 128,-1,28
 152 336 152 336 152 468 c 2,29,-1
 152 1446 l 1,30,-1
 333 1446 l 1,31,-1
 333 462 l 2,32,33
 333 299 333 299 409 216 c 128,-1,34
 485 133 485 133 628 133 c 0,35,36
 772 133 772 133 848 216 c 128,-1,37
 924 299 924 299 924 462 c 2,38,-1
 924 1446 l 1,39,-1
 1108 1446 l 1,0,-1
EndSplineSet
EndChar

StartChar: uogonek
Encoding: 371 371 309
Width: 1260
GlyphClass: 2
Flags: W
AnchorPoint: "Anchor-7" 630 1106 basechar 0
AnchorPoint: "Anchor-6" 0 0 basechar 0
LayerCount: 2
Fore
SplineSet
888 -86.5 m 128,-1,1
 831 -127 831 -127 810 -163.5 c 128,-1,2
 789 -200 789 -200 789 -241 c 0,3,4
 789 -290 789 -290 816 -315.5 c 128,-1,5
 843 -341 843 -341 906 -341 c 0,6,7
 963 -341 963 -341 1037 -327 c 1,8,-1
 1018 -467 l 1,9,10
 980 -474 980 -474 951.5 -478 c 128,-1,11
 923 -482 923 -482 885 -482 c 0,12,13
 807 -482 807 -482 749 -454.5 c 128,-1,14
 691 -427 691 -427 660 -380.5 c 128,-1,15
 629 -334 629 -334 629 -275 c 0,16,17
 629 -182 629 -182 694 -108.5 c 128,-1,18
 759 -35 759 -35 897 21 c 1,19,-1
 884 149 l 1,20,21
 820 67 820 67 725 21.5 c 128,-1,22
 630 -24 630 -24 530 -24 c 0,23,24
 371 -24 371 -24 291 60.5 c 128,-1,25
 211 145 211 145 211 301 c 2,26,-1
 211 1106 l 1,27,-1
 388 1106 l 1,28,-1
 388 322 l 2,29,30
 388 214 388 214 432.5 165.5 c 128,-1,31
 477 117 477 117 573 117 c 0,32,33
 660 117 660 117 743 167 c 128,-1,34
 826 217 826 217 873 292 c 1,35,-1
 873 1106 l 1,36,-1
 1049 1106 l 1,37,-1
 1049 0 l 1,38,0
 945 -46 945 -46 888 -86.5 c 128,-1,1
EndSplineSet
EndChar

StartChar: florin
Encoding: 402 402 321
Width: 1260
GlyphClass: 2
Flags: W
LayerCount: 2
Fore
SplineSet
907 1560 m 128,-1,1
 964 1547 964 1547 1032 1516 c 1,2,-1
 974 1386 l 1,3,4
 882 1428 882 1428 780 1428 c 0,5,6
 691 1428 691 1428 651.5 1389 c 128,-1,7
 612 1350 612 1350 612 1266 c 2,8,-1
 612 1106 l 1,9,-1
 884 1106 l 1,10,-1
 862 967 l 1,11,-1
 612 967 l 1,12,-1
 612 83 l 2,13,14
 612 -80 612 -80 579.5 -176 c 128,-1,15
 547 -272 547 -272 479.5 -330 c 128,-1,16
 412 -388 412 -388 289 -442 c 1,17,-1
 226 -316 l 1,18,19
 308 -277 308 -277 351 -240 c 128,-1,20
 394 -203 394 -203 416 -136 c 128,-1,21
 438 -69 438 -69 438 48 c 2,22,-1
 438 967 l 1,23,-1
 262 967 l 1,24,-1
 262 1106 l 1,25,-1
 438 1106 l 1,26,-1
 438 1261 l 2,27,28
 438 1352 438 1352 477.5 1422.5 c 128,-1,29
 517 1493 517 1493 593 1533 c 128,-1,30
 669 1573 669 1573 775 1573 c 0,31,0
 850 1573 850 1573 907 1560 c 128,-1,1
EndSplineSet
EndChar

StartChar: uni0237
Encoding: 567 567 330
Width: 1260
GlyphClass: 2
Flags: W
AnchorPoint: "Anchor-7" 772 1106 basechar 0
AnchorPoint: "Anchor-6" 0 0 basechar 0
LayerCount: 2
Fore
SplineSet
935 177 m 2,0,1
 935 -91 935 -91 756.5 -239.5 c 128,-1,2
 578 -388 578 -388 230 -445 c 1,3,-1
 201 -309 l 1,4,5
 469 -265 469 -265 613.5 -154.5 c 128,-1,6
 758 -44 758 -44 758 166 c 2,7,-1
 758 966 l 1,8,-1
 298 966 l 1,9,-1
 298 1106 l 1,10,-1
 935 1106 l 1,11,-1
 935 177 l 2,0,1
EndSplineSet
EndChar

StartChar: uni02B9
Encoding: 697 697 331
Width: 1260
GlyphClass: 2
Flags: W
LayerCount: 2
Fore
SplineSet
621 1446 m 1,0,-1
 818 1446 l 1,1,-1
 578 900 l 1,2,-1
 442 900 l 1,3,-1
 621 1446 l 1,0,-1
EndSplineSet
EndChar

StartChar: uni02BC
Encoding: 700 700 333
Width: 1260
GlyphClass: 2
Flags: W
LayerCount: 2
Fore
SplineSet
697 1540.5 m 128,-1,1
 730 1508 730 1508 730 1461 c 0,2,3
 730 1434 730 1434 719.5 1402 c 128,-1,4
 709 1370 709 1370 676 1299 c 2,5,-1
 589 1114 l 1,6,-1
 484 1114 l 1,7,-1
 547 1366 l 1,8,9
 499 1410 499 1410 499 1461 c 0,10,11
 499 1509 499 1509 533.5 1541 c 128,-1,12
 568 1573 568 1573 617 1573 c 0,13,0
 664 1573 664 1573 697 1540.5 c 128,-1,1
EndSplineSet
EndChar

StartChar: circumflex
Encoding: 710 710 334
Width: 1260
GlyphClass: 2
Flags: W
LayerCount: 2
Fore
SplineSet
288 1408 m 1,0,-1
 572 1658 l 1,1,-1
 691 1658 l 1,2,-1
 974 1408 l 1,3,-1
 894 1321 l 1,4,-1
 632 1511 l 1,5,-1
 372 1321 l 1,6,-1
 288 1408 l 1,0,-1
EndSplineSet
Substitution2: "'case' Case-Sensitive Forms lookup 13 subtable" circumflex.case
Substitution2: "'aalt' Access All Alternates lookup 0 subtable" circumflex.case
EndChar

StartChar: caron
Encoding: 711 711 335
Width: 1260
GlyphClass: 2
Flags: W
LayerCount: 2
Fore
SplineSet
974 1570 m 1,0,-1
 691 1321 l 1,1,-1
 572 1321 l 1,2,-1
 288 1570 l 1,3,-1
 372 1658 l 1,4,-1
 632 1467 l 1,5,-1
 894 1658 l 1,6,-1
 974 1570 l 1,0,-1
EndSplineSet
Substitution2: "'case' Case-Sensitive Forms lookup 13 subtable" caron.case
Substitution2: "'aalt' Access All Alternates lookup 0 subtable" caron.case
EndChar

StartChar: uni02C9
Encoding: 713 713 336
Width: 1260
GlyphClass: 2
Flags: W
LayerCount: 2
Fore
SplineSet
347 1436 m 1,0,-1
 347 1570 l 1,1,-1
 912 1570 l 1,2,-1
 912 1436 l 1,3,-1
 347 1436 l 1,0,-1
EndSplineSet
EndChar

StartChar: breve
Encoding: 728 728 337
Width: 1260
GlyphClass: 2
Flags: W
LayerCount: 2
Fore
SplineSet
468.5 1365.5 m 128,-1,1
 401 1408 401 1408 363.5 1474 c 128,-1,2
 326 1540 326 1540 316 1608 c 1,3,-1
 438 1635 l 1,4,5
 461 1552 461 1552 507 1505.5 c 128,-1,6
 553 1459 553 1459 625 1459 c 0,7,8
 699 1459 699 1459 748 1506 c 128,-1,9
 797 1553 797 1553 820 1635 c 1,10,-1
 942 1608 l 1,11,12
 933 1540 933 1540 893.5 1474 c 128,-1,13
 854 1408 854 1408 785 1365.5 c 128,-1,14
 716 1323 716 1323 625 1323 c 0,15,0
 536 1323 536 1323 468.5 1365.5 c 128,-1,1
EndSplineSet
Substitution2: "'case' Case-Sensitive Forms lookup 13 subtable" breve.case
Substitution2: "'aalt' Access All Alternates lookup 0 subtable" breve.case
EndChar

StartChar: dotaccent
Encoding: 729 729 338
Width: 1260
GlyphClass: 2
Flags: W
LayerCount: 2
Fore
SplineSet
721.5 1588.5 m 128,-1,1
 757 1553 757 1553 757 1501 c 0,2,3
 757 1446 757 1446 721.5 1410.5 c 128,-1,4
 686 1375 686 1375 628 1375 c 0,5,6
 572 1375 572 1375 536.5 1410.5 c 128,-1,7
 501 1446 501 1446 501 1501 c 0,8,9
 501 1554 501 1554 536.5 1589 c 128,-1,10
 572 1624 572 1624 628 1624 c 0,11,0
 686 1624 686 1624 721.5 1588.5 c 128,-1,1
EndSplineSet
Substitution2: "'case' Case-Sensitive Forms lookup 13 subtable" dotaccent.case
Substitution2: "'aalt' Access All Alternates lookup 0 subtable" dotaccent.case
EndChar

StartChar: ring
Encoding: 730 730 339
Width: 1260
GlyphClass: 2
Flags: W
LayerCount: 2
Fore
SplineSet
749.5 1701.5 m 128,-1,1
 803 1673 803 1673 833 1623 c 128,-1,2
 863 1573 863 1573 863 1513 c 0,3,4
 863 1454 863 1454 833 1405.5 c 128,-1,5
 803 1357 803 1357 749.5 1328.5 c 128,-1,6
 696 1300 696 1300 630 1300 c 256,7,8
 564 1300 564 1300 510.5 1328.5 c 128,-1,9
 457 1357 457 1357 427 1406 c 128,-1,10
 397 1455 397 1455 397 1513 c 0,11,12
 397 1573 397 1573 427 1623 c 128,-1,13
 457 1673 457 1673 510.5 1701.5 c 128,-1,14
 564 1730 564 1730 630 1730 c 256,15,0
 696 1730 696 1730 749.5 1701.5 c 128,-1,1
548 1600.5 m 128,-1,17
 517 1568 517 1568 517 1513 c 256,18,19
 517 1458 517 1458 548 1426.5 c 128,-1,20
 579 1395 579 1395 630 1395 c 0,21,22
 683 1395 683 1395 713.5 1426.5 c 128,-1,23
 744 1458 744 1458 744 1513 c 0,24,25
 744 1569 744 1569 713.5 1601 c 128,-1,26
 683 1633 683 1633 630 1633 c 0,27,16
 579 1633 579 1633 548 1600.5 c 128,-1,17
EndSplineSet
Substitution2: "'case' Case-Sensitive Forms lookup 13 subtable" ring.case
Substitution2: "'aalt' Access All Alternates lookup 0 subtable" ring.case
EndChar

StartChar: ogonek
Encoding: 731 731 340
Width: 1260
GlyphClass: 2
Flags: W
LayerCount: 2
Fore
SplineSet
843 0 m 1,0,1
 739 -46 739 -46 682 -86.5 c 128,-1,2
 625 -127 625 -127 604 -163.5 c 128,-1,3
 583 -200 583 -200 583 -241 c 0,4,5
 583 -290 583 -290 610.5 -315.5 c 128,-1,6
 638 -341 638 -341 701 -341 c 0,7,8
 758 -341 758 -341 831 -327 c 1,9,-1
 812 -467 l 1,10,11
 774 -474 774 -474 745.5 -478 c 128,-1,12
 717 -482 717 -482 680 -482 c 0,13,14
 602 -482 602 -482 543.5 -454.5 c 128,-1,15
 485 -427 485 -427 454 -380.5 c 128,-1,16
 423 -334 423 -334 423 -275 c 0,17,18
 423 -163 423 -163 518 -79 c 128,-1,19
 613 5 613 5 816 64 c 1,20,-1
 843 0 l 1,0,1
EndSplineSet
EndChar

StartChar: tilde
Encoding: 732 732 341
Width: 1260
GlyphClass: 2
Flags: W
LayerCount: 2
Fore
SplineSet
681.5 1398 m 128,-1,1
 650 1413 650 1413 607 1441 c 0,2,3
 574 1464 574 1464 552.5 1474.5 c 128,-1,4
 531 1485 531 1485 508 1485 c 0,5,6
 474 1485 474 1485 449 1461.5 c 128,-1,7
 424 1438 424 1438 397 1387 c 1,8,-1
 285 1444 l 1,9,10
 325 1525 325 1525 381 1573 c 128,-1,11
 437 1621 437 1621 509 1621 c 0,12,13
 551 1621 551 1621 583 1606 c 128,-1,14
 615 1591 615 1591 655 1563 c 0,15,16
 689 1540 689 1540 709 1530 c 128,-1,17
 729 1520 729 1520 753 1520 c 0,18,19
 783 1520 783 1520 809 1542 c 128,-1,20
 835 1564 835 1564 864 1612 c 1,21,-1
 976 1555 l 1,22,23
 936 1469 936 1469 879 1426 c 128,-1,24
 822 1383 822 1383 753 1383 c 0,25,0
 713 1383 713 1383 681.5 1398 c 128,-1,1
EndSplineSet
Substitution2: "'case' Case-Sensitive Forms lookup 13 subtable" tilde.case
Substitution2: "'aalt' Access All Alternates lookup 0 subtable" tilde.case
EndChar

StartChar: hungarumlaut
Encoding: 733 733 342
Width: 1260
GlyphClass: 2
Flags: W
LayerCount: 2
Fore
SplineSet
452 1755 m 1,0,-1
 608 1681 l 1,1,-1
 404 1337 l 1,2,-1
 289 1391 l 1,3,-1
 452 1755 l 1,0,-1
818 1755 m 1,4,-1
 971 1674 l 1,5,-1
 745 1332 l 1,6,-1
 633 1391 l 1,7,-1
 818 1755 l 1,4,-1
EndSplineSet
Substitution2: "'case' Case-Sensitive Forms lookup 13 subtable" hungarumlaut.case
Substitution2: "'aalt' Access All Alternates lookup 0 subtable" hungarumlaut.case
EndChar

StartChar: gravecomb
Encoding: 768 768 343
Width: 0
GlyphClass: 4
Flags: W
AnchorPoint: "Anchor-10" -630 1106 mark 0
AnchorPoint: "Anchor-8" -630 1106 mark 0
AnchorPoint: "Anchor-7" -630 1106 mark 0
AnchorPoint: "Anchor-5" -630 1106 mark 0
AnchorPoint: "Anchor-3" -630 1106 mark 0
AnchorPoint: "Anchor-1" -630 1106 mark 0
LayerCount: 2
Fore
SplineSet
-385 1439 m 1,0,-1
 -441 1344 l 1,1,-1
 -880 1523 l 1,2,-1
 -799 1674 l 1,3,-1
 -385 1439 l 1,0,-1
EndSplineSet
EndChar

StartChar: acutecomb
Encoding: 769 769 344
Width: 0
GlyphClass: 4
Flags: W
AnchorPoint: "Anchor-10" -630 1106 mark 0
AnchorPoint: "Anchor-8" -630 1106 mark 0
AnchorPoint: "Anchor-7" -630 1106 mark 0
AnchorPoint: "Anchor-5" -630 1106 mark 0
AnchorPoint: "Anchor-3" -630 1106 mark 0
AnchorPoint: "Anchor-1" -630 1106 mark 0
LayerCount: 2
Fore
SplineSet
-373 1523 m 1,0,-1
 -812 1344 l 1,1,-1
 -866 1439 l 1,2,-1
 -455 1674 l 1,3,-1
 -373 1523 l 1,0,-1
EndSplineSet
EndChar

StartChar: uni0302
Encoding: 770 770 345
Width: 0
GlyphClass: 4
Flags: W
AnchorPoint: "Anchor-10" -630 1106 mark 0
AnchorPoint: "Anchor-8" -630 1106 mark 0
AnchorPoint: "Anchor-7" -630 1106 mark 0
AnchorPoint: "Anchor-5" -630 1106 mark 0
AnchorPoint: "Anchor-3" -630 1106 mark 0
AnchorPoint: "Anchor-1" -630 1106 mark 0
LayerCount: 2
Fore
SplineSet
-288 1346 m 1,0,-1
 -364 1257 l 1,1,-1
 -630 1425 l 1,2,-1
 -894 1257 l 1,3,-1
 -974 1346 l 1,4,-1
 -689 1572 l 1,5,-1
 -570 1572 l 1,6,-1
 -288 1346 l 1,0,-1
EndSplineSet
EndChar

StartChar: uni0305
Encoding: 773 773 348
Width: 0
GlyphClass: 4
Flags: W
AnchorPoint: "Anchor-10" -630 1106 mark 0
AnchorPoint: "Anchor-8" -630 1106 mark 0
AnchorPoint: "Anchor-7" -630 1106 mark 0
AnchorPoint: "Anchor-5" -630 1106 mark 0
AnchorPoint: "Anchor-3" -630 1106 mark 0
AnchorPoint: "Anchor-1" -630 1106 mark 0
LayerCount: 2
Fore
SplineSet
-1080 1308 m 1,0,-1
 -1080 1442 l 1,1,-1
 -179 1442 l 1,2,-1
 -179 1308 l 1,3,-1
 -1080 1308 l 1,0,-1
EndSplineSet
EndChar

StartChar: uni0306
Encoding: 774 774 349
Width: 0
GlyphClass: 4
Flags: W
AnchorPoint: "Anchor-10" -630 1106 mark 0
AnchorPoint: "Anchor-8" -630 1106 mark 0
AnchorPoint: "Anchor-7" -630 1106 mark 0
AnchorPoint: "Anchor-5" -630 1106 mark 0
AnchorPoint: "Anchor-3" -630 1106 mark 0
AnchorPoint: "Anchor-1" -630 1106 mark 0
LayerCount: 2
Fore
SplineSet
-782.5 1261 m 128,-1,1
 -850 1292 -850 1292 -893 1349 c 128,-1,2
 -936 1406 -936 1406 -944 1481 c 1,3,-1
 -822 1507 l 1,4,5
 -799 1441 -799 1441 -753 1403.5 c 128,-1,6
 -707 1366 -707 1366 -635 1366 c 0,7,8
 -561 1366 -561 1366 -511 1404 c 128,-1,9
 -461 1442 -461 1442 -438 1507 c 1,10,-1
 -316 1481 l 1,11,12
 -324 1406 -324 1406 -368.5 1349 c 128,-1,13
 -413 1292 -413 1292 -482.5 1261 c 128,-1,14
 -552 1230 -552 1230 -635 1230 c 0,15,0
 -715 1230 -715 1230 -782.5 1261 c 128,-1,1
EndSplineSet
EndChar

StartChar: uni030C
Encoding: 780 780 354
Width: 0
GlyphClass: 4
Flags: W
AnchorPoint: "Anchor-10" -630 1106 mark 0
AnchorPoint: "Anchor-8" -630 1106 mark 0
AnchorPoint: "Anchor-7" -630 1106 mark 0
AnchorPoint: "Anchor-5" -630 1106 mark 0
AnchorPoint: "Anchor-3" -630 1106 mark 0
AnchorPoint: "Anchor-1" -630 1106 mark 0
LayerCount: 2
Fore
SplineSet
-288 1446 m 1,0,-1
 -570 1221 l 1,1,-1
 -689 1221 l 1,2,-1
 -974 1446 l 1,3,-1
 -894 1537 l 1,4,-1
 -630 1366 l 1,5,-1
 -364 1537 l 1,6,-1
 -288 1446 l 1,0,-1
EndSplineSet
EndChar

StartChar: uni030F
Encoding: 783 783 355
Width: 0
GlyphClass: 4
Flags: W
AnchorPoint: "Anchor-10" -526 1106 mark 0
AnchorPoint: "Anchor-8" -619 1749 basemark 0
AnchorPoint: "Anchor-8" -526 1106 mark 0
AnchorPoint: "Anchor-7" -526 1106 mark 0
AnchorPoint: "Anchor-5" -526 1106 mark 0
AnchorPoint: "Anchor-3" -526 1106 mark 0
AnchorPoint: "Anchor-1" -526 1106 mark 0
LayerCount: 2
Fore
SplineSet
-745 1332 m 1,0,-1
 -971 1674 l 1,1,-1
 -818 1755 l 1,2,-1
 -633 1391 l 1,3,-1
 -745 1332 l 1,0,-1
-404 1337 m 1,4,-1
 -608 1681 l 1,5,-1
 -452 1755 l 1,6,-1
 -289 1391 l 1,7,-1
 -404 1337 l 1,4,-1
EndSplineSet
EndChar

StartChar: uni0314
Encoding: 788 788 357
Width: 0
GlyphClass: 4
Flags: W
AnchorPoint: "Anchor-10" -633 1106 mark 0
AnchorPoint: "Anchor-8" -633 1106 mark 0
AnchorPoint: "Anchor-7" -633 1106 mark 0
AnchorPoint: "Anchor-5" -633 1106 mark 0
AnchorPoint: "Anchor-3" -633 1106 mark 0
AnchorPoint: "Anchor-1" -633 1106 mark 0
LayerCount: 2
Fore
SplineSet
-717 1206.5 m 128,-1,1
 -750 1239 -750 1239 -750 1287 c 0,2,3
 -750 1313 -750 1313 -742.5 1338 c 128,-1,4
 -735 1363 -735 1363 -718 1402 c 2,5,-1
 -613 1627 l 1,6,-1
 -506 1627 l 1,7,-1
 -567 1380 l 1,8,9
 -546 1364 -546 1364 -534 1339 c 128,-1,10
 -522 1314 -522 1314 -522 1287 c 0,11,12
 -522 1239 -522 1239 -555 1206.5 c 128,-1,13
 -588 1174 -588 1174 -636 1174 c 256,14,0
 -684 1174 -684 1174 -717 1206.5 c 128,-1,1
EndSplineSet
EndChar

StartChar: uni0326
Encoding: 806 806 358
Width: 0
GlyphClass: 4
Flags: W
AnchorPoint: "Anchor-9" -630 0 mark 0
AnchorPoint: "Anchor-6" -630 0 mark 0
AnchorPoint: "Anchor-4" -630 0 mark 0
AnchorPoint: "Anchor-2" -630 0 mark 0
AnchorPoint: "Anchor-0" -630 0 mark 0
LayerCount: 2
Fore
SplineSet
-542.5 -180.5 m 128,-1,1
 -509 -213 -509 -213 -509 -260 c 0,2,3
 -509 -286 -509 -286 -516.5 -311.5 c 128,-1,4
 -524 -337 -524 -337 -541 -376 c 2,5,-1
 -646 -601 l 1,6,-1
 -753 -601 l 1,7,-1
 -692 -355 l 1,8,9
 -713 -338 -713 -338 -725 -313 c 128,-1,10
 -737 -288 -737 -288 -737 -260 c 0,11,12
 -737 -212 -737 -212 -704 -180 c 128,-1,13
 -671 -148 -671 -148 -623 -148 c 0,14,0
 -576 -148 -576 -148 -542.5 -180.5 c 128,-1,1
EndSplineSet
Substitution2: "'case' Case-Sensitive Forms lookup 13 subtable" uni0326.case
Substitution2: "'aalt' Access All Alternates lookup 0 subtable" uni0326.case
EndChar

StartChar: uni0335
Encoding: 821 821 360
Width: 0
GlyphClass: 4
Flags: W
LayerCount: 2
Fore
SplineSet
-992 583 m 1,0,-1
 -992 724 l 1,1,-1
 -271 724 l 1,2,-1
 -271 583 l 1,3,-1
 -992 583 l 1,0,-1
EndSplineSet
EndChar

StartChar: uni0336
Encoding: 822 822 361
Width: 0
GlyphClass: 4
Flags: W
LayerCount: 2
Fore
SplineSet
-1313 583 m 1,0,-1
 -1313 724 l 1,1,-1
 56 724 l 1,2,-1
 56 583 l 1,3,-1
 -1313 583 l 1,0,-1
EndSplineSet
EndChar

StartChar: uni0345
Encoding: 837 837 363
Width: 0
GlyphClass: 4
Flags: W
AnchorPoint: "Anchor-9" -610 -396 basemark 0
AnchorPoint: "Anchor-9" -767 0 mark 0
AnchorPoint: "Anchor-6" -767 0 mark 0
AnchorPoint: "Anchor-4" -767 0 mark 0
AnchorPoint: "Anchor-2" -767 0 mark 0
AnchorPoint: "Anchor-0" -767 0 mark 0
LayerCount: 2
Fore
SplineSet
-785.5 -337 m 128,-1,1
 -847 -278 -847 -278 -847 -181 c 2,2,-1
 -847 -81 l 1,3,-1
 -689 -81 l 1,4,-1
 -689 -177 l 2,5,6
 -689 -265 -689 -265 -600 -266 c 0,7,8
 -564 -266 -564 -266 -538.5 -257.5 c 128,-1,9
 -513 -249 -513 -249 -482 -230 c 1,10,-1
 -412 -322 l 1,11,12
 -455 -355 -455 -355 -503 -375.5 c 128,-1,13
 -551 -396 -551 -396 -617 -396 c 0,14,0
 -724 -396 -724 -396 -785.5 -337 c 128,-1,1
EndSplineSet
EndChar

StartChar: uni0370
Encoding: 880 880 364
Width: 1260
GlyphClass: 2
Flags: W
AnchorPoint: "Anchor-5" 630 1446 basechar 0
AnchorPoint: "Anchor-4" 630 0 basechar 0
LayerCount: 2
Fore
SplineSet
421 686 m 1,0,-1
 421 0 l 1,1,-1
 239 0 l 1,2,-1
 239 1446 l 1,3,-1
 421 1446 l 1,4,-1
 421 836 l 1,5,-1
 1021 836 l 1,6,-1
 1021 686 l 1,7,-1
 421 686 l 1,0,-1
EndSplineSet
EndChar

StartChar: uni0371
Encoding: 881 881 365
Width: 1260
GlyphClass: 2
Flags: W
AnchorPoint: "Anchor-5" 630 1106 basechar 0
AnchorPoint: "Anchor-4" 630 0 basechar 0
LayerCount: 2
Fore
SplineSet
1099 493 m 1,0,-1
 461 493 l 1,1,-1
 461 0 l 1,2,-1
 285 0 l 1,3,-1
 285 744 l 2,4,5
 285 857 285 857 270.5 939.5 c 128,-1,6
 256 1022 256 1022 230 1108 c 1,7,-1
 390 1131 l 1,8,9
 423 1062 423 1062 442 966.5 c 128,-1,10
 461 871 461 871 461 711 c 2,11,-1
 461 646 l 1,12,-1
 1099 646 l 1,13,-1
 1099 493 l 1,0,-1
EndSplineSet
EndChar

StartChar: uni0372
Encoding: 882 882 366
Width: 1260
GlyphClass: 2
Flags: W
AnchorPoint: "Anchor-5" 630 1446 basechar 0
AnchorPoint: "Anchor-4" 630 0 basechar 0
LayerCount: 2
Fore
SplineSet
1187 1446 m 1,0,-1
 1187 890 l 1,1,-1
 1026 890 l 1,2,-1
 1026 1287 l 1,3,-1
 723 1287 l 1,4,-1
 723 0 l 1,5,-1
 541 0 l 1,6,-1
 541 1287 l 1,7,-1
 236 1287 l 1,8,-1
 236 887 l 1,9,-1
 76 887 l 1,10,-1
 76 1446 l 1,11,-1
 1187 1446 l 1,0,-1
EndSplineSet
EndChar

StartChar: uni0373
Encoding: 883 883 367
Width: 1260
GlyphClass: 2
Flags: W
AnchorPoint: "Anchor-5" 630 1106 basechar 0
AnchorPoint: "Anchor-4" 630 -419 basechar 0
LayerCount: 2
Fore
SplineSet
1193 959 m 1,0,-1
 719 958 l 1,1,-1
 719 -423 l 1,2,-1
 543 -445 l 1,3,-1
 543 958 l 1,4,-1
 255 957 l 2,5,6
 194 957 194 957 161 952.5 c 128,-1,7
 128 948 128 948 71 934 c 1,8,-1
 39 1075 l 1,9,10
 93 1093 93 1093 136.5 1099.5 c 128,-1,11
 180 1106 180 1106 262 1106 c 2,12,-1
 1193 1106 l 1,13,-1
 1193 959 l 1,0,-1
EndSplineSet
EndChar

StartChar: uni0375
Encoding: 885 885 369
Width: 1260
GlyphClass: 2
Flags: W
LayerCount: 2
Fore
SplineSet
639 -279 m 1,0,-1
 442 -279 l 1,1,-1
 683 267 l 1,2,-1
 818 267 l 1,3,-1
 639 -279 l 1,0,-1
EndSplineSet
EndChar

StartChar: uni0377
Encoding: 887 887 371
Width: 1260
GlyphClass: 2
Flags: W
AnchorPoint: "Anchor-5" 630 1106 basechar 0
AnchorPoint: "Anchor-4" 630 0 basechar 0
LayerCount: 2
Fore
SplineSet
1044 198.5 m 128,-1,1
 1053 166 1053 166 1073.5 146 c 128,-1,2
 1094 126 1094 126 1131 109 c 1,3,-1
 1070 -24 l 1,4,5
 949 9 949 9 899.5 85.5 c 128,-1,6
 850 162 850 162 850 302 c 0,7,8
 850 390 850 390 861 556.5 c 128,-1,9
 872 723 872 723 889 896 c 1,10,-1
 415 0 l 1,11,-1
 201 0 l 1,12,-1
 201 1106 l 1,13,-1
 376 1106 l 1,14,-1
 376 589 l 2,15,16
 376 364 376 364 355 208 c 1,17,-1
 827 1106 l 1,18,-1
 1035 1106 l 1,19,-1
 1035 287 l 2,20,0
 1035 231 1035 231 1044 198.5 c 128,-1,1
EndSplineSet
EndChar

StartChar: uni037B
Encoding: 891 891 373
Width: 1260
GlyphClass: 2
Flags: W
LayerCount: 2
Fore
SplineSet
358.5 5.5 m 128,-1,1
 273 35 273 35 192 96 c 1,2,-1
 273 209 l 1,3,4
 349 165 349 165 406 146.5 c 128,-1,5
 463 128 463 128 545 128 c 0,6,7
 703 128 703 128 791 231 c 128,-1,8
 879 334 879 334 879 548 c 0,9,10
 879 982 879 982 566 982 c 0,11,12
 477 982 477 982 413 962.5 c 128,-1,13
 349 943 349 943 278 900 c 1,14,-1
 192 1012 l 1,15,16
 284 1076 284 1076 369 1102.5 c 128,-1,17
 454 1129 454 1129 563 1129 c 0,18,19
 721 1129 721 1129 835 1057.5 c 128,-1,20
 949 986 949 986 1009.5 854 c 128,-1,21
 1070 722 1070 722 1070 543 c 0,22,23
 1070 367 1070 367 1006.5 239 c 128,-1,24
 943 111 943 111 826 43.5 c 128,-1,25
 709 -24 709 -24 551 -24 c 0,26,0
 444 -24 444 -24 358.5 5.5 c 128,-1,1
EndSplineSet
EndChar

StartChar: uni037C
Encoding: 892 892 374
Width: 1260
GlyphClass: 2
Flags: W
AnchorPoint: "Anchor-5" 630 1106 basechar 0
AnchorPoint: "Anchor-4" 630 0 basechar 0
LayerCount: 2
Fore
SplineSet
999 225 m 1,1,-1
 1085 109 l 1,2,3
 1013 48 1013 48 911 12 c 128,-1,4
 809 -24 809 -24 711 -24 c 0,5,6
 548 -24 548 -24 431 46.5 c 128,-1,7
 314 117 314 117 253 246 c 128,-1,8
 192 375 192 375 192 548 c 0,9,10
 192 715 192 715 254 847 c 128,-1,11
 316 979 316 979 433.5 1054 c 128,-1,12
 551 1129 551 1129 713 1129 c 0,13,14
 924 1129 924 1129 1083 1001 c 1,15,-1
 997 883 l 1,16,17
 854 982 854 982 711 982 c 0,18,19
 613 982 613 982 539.5 933.5 c 128,-1,20
 466 885 466 885 424.5 787.5 c 128,-1,21
 383 690 383 690 383 548 c 0,22,23
 383 336 383 336 472 232 c 128,-1,24
 561 128 561 128 711 128 c 0,25,0
 859 128 859 128 999 225 c 1,1,-1
827.5 653.5 m 128,-1,27
 864 618 864 618 864 564 c 0,28,29
 864 509 864 509 828 472.5 c 128,-1,30
 792 436 792 436 733 436 c 0,31,32
 676 436 676 436 640 472.5 c 128,-1,33
 604 509 604 509 604 564 c 0,34,35
 604 618 604 618 640 653.5 c 128,-1,36
 676 689 676 689 733 689 c 0,37,26
 791 689 791 689 827.5 653.5 c 128,-1,27
EndSplineSet
EndChar

StartChar: uni037D
Encoding: 893 893 375
Width: 1260
GlyphClass: 2
Flags: W
LayerCount: 2
Fore
SplineSet
358.5 5.5 m 128,-1,1
 273 35 273 35 192 96 c 1,2,-1
 273 209 l 1,3,4
 349 165 349 165 406 146.5 c 128,-1,5
 463 128 463 128 545 128 c 0,6,7
 703 128 703 128 791 231 c 128,-1,8
 879 334 879 334 879 548 c 0,9,10
 879 982 879 982 566 982 c 0,11,12
 477 982 477 982 413 962.5 c 128,-1,13
 349 943 349 943 278 900 c 1,14,-1
 192 1012 l 1,15,16
 284 1076 284 1076 369 1102.5 c 128,-1,17
 454 1129 454 1129 563 1129 c 0,18,19
 721 1129 721 1129 835 1057.5 c 128,-1,20
 949 986 949 986 1009.5 854 c 128,-1,21
 1070 722 1070 722 1070 543 c 0,22,23
 1070 367 1070 367 1006.5 239 c 128,-1,24
 943 111 943 111 826 43.5 c 128,-1,25
 709 -24 709 -24 551 -24 c 0,26,0
 444 -24 444 -24 358.5 5.5 c 128,-1,1
618.5 653.5 m 128,-1,28
 655 618 655 618 655 564 c 0,29,30
 655 508 655 508 618.5 472 c 128,-1,31
 582 436 582 436 523 436 c 0,32,33
 467 436 467 436 431 472.5 c 128,-1,34
 395 509 395 509 395 564 c 0,35,36
 395 618 395 618 431 653.5 c 128,-1,37
 467 689 467 689 523 689 c 0,38,27
 582 689 582 689 618.5 653.5 c 128,-1,28
EndSplineSet
EndChar

StartChar: tonos
Encoding: 900 900 378
Width: 1260
GlyphClass: 2
Flags: W
LayerCount: 2
Fore
SplineSet
764 1663 m 1,0,-1
 626 1252 l 1,1,-1
 499 1274 l 1,2,-1
 577 1696 l 1,3,-1
 764 1663 l 1,0,-1
EndSplineSet
Substitution2: "'case' Case-Sensitive Forms lookup 13 subtable" tonos.case
Substitution2: "'aalt' Access All Alternates lookup 0 subtable" tonos.case
EndChar

StartChar: dieresistonos
Encoding: 901 901 379
Width: 1260
GlyphClass: 2
Flags: W
LayerCount: 2
Fore
SplineSet
814 1881 m 1,0,-1
 688 1528 l 1,1,-1
 564 1549 l 1,2,-1
 625 1919 l 1,3,-1
 814 1881 l 1,0,-1
497 1512 m 128,-1,5
 530 1479 530 1479 530 1430 c 0,6,7
 530 1382 530 1382 497 1349 c 128,-1,8
 464 1316 464 1316 417 1316 c 0,9,10
 367 1316 367 1316 333.5 1349 c 128,-1,11
 300 1382 300 1382 300 1430 c 256,12,13
 300 1478 300 1478 333.5 1511.5 c 128,-1,14
 367 1545 367 1545 417 1545 c 0,15,4
 464 1545 464 1545 497 1512 c 128,-1,5
925 1512 m 128,-1,17
 958 1479 958 1479 958 1430 c 0,18,19
 958 1382 958 1382 925 1349 c 128,-1,20
 892 1316 892 1316 841 1316 c 0,21,22
 794 1316 794 1316 761 1349 c 128,-1,23
 728 1382 728 1382 728 1430 c 256,24,25
 728 1478 728 1478 761 1511.5 c 128,-1,26
 794 1545 794 1545 841 1545 c 0,27,16
 892 1545 892 1545 925 1512 c 128,-1,17
EndSplineSet
EndChar

